<svg width="164" height="92" viewBox="0 0 164 92" fill="none" xmlns="http://www.w3.org/2000/svg">
<g id="10. startup">
<g id="Group">
<path id="Vector" d="M85.4522 12.8563C84.8151 8.6077 82.7292 4.70981 79.5477 1.82274C76.3663 -1.06434 72.2848 -2.76316 67.9944 -2.98606C63.1749 -3.11496 58.4186 -1.86615 54.284 0.613744C45.92 5.49274 42.476 16.8579 45.6658 25.4105C44.9615 25.5219 44.3142 25.8643 43.8258 26.3839C43.3374 26.9035 43.0357 27.5707 42.968 28.2805C42.968 32.5855 48.5358 34.7257 50.061 31.8393C56.621 37.5793 70.1182 38.3255 79.5072 30.1337C84.0746 26.0337 86.3378 18.8997 85.4522 12.8563ZM72.8406 13.4877C71.4302 14.3897 69.1752 13.3647 69.0604 11.7247C70.6384 11.136 72.1155 10.3061 73.4392 9.26474C73.9131 9.90655 74.1159 10.7088 74.0039 11.4987C73.892 12.2886 73.4742 13.0029 72.8406 13.4877Z" fill="#FFF4EE"/>
<g id="Group_2">
<path id="Vector_2" d="M65.6574 -9.61975C66.4774 -8.02075 64.4356 -6.46275 62.7054 -6.01995C59.3516 -5.19995 55.76 -5.41315 52.48 -4.30615C47.3058 -2.56775 42.64 3.55765 43.9274 9.20745C44.0186 9.47077 44.0411 9.75298 43.993 10.0274C43.8762 10.2937 43.6926 10.5253 43.46 10.6998C40.303 13.7174 40.18 19.482 42.6974 23.2787C40.7048 27.805 37.0394 28.7891 33.6774 30.6586C27.6674 33.9681 23.2039 39.5129 21.2544 46.0911C24.3704 44.1969 28.4376 44.8938 31.7586 46.419C35.0796 47.9442 38.0316 50.2156 41.4756 51.4866C47.9864 53.8728 55.2352 52.3066 59.2696 48.2886C62.32 45.1398 63.1974 40.5643 63.222 36.2018C60.4257 36.1833 57.6529 35.6898 55.022 34.7422C53.2216 34.0767 51.5552 33.0935 50.102 31.8395C48.5768 34.7258 42.9762 32.5856 43.009 28.2806C43.0648 27.729 43.2595 27.2004 43.575 26.7444C43.8904 26.2884 44.3164 25.9198 44.813 25.673C46.8046 27.3986 49.337 28.3733 51.9716 28.4282C46.2808 28.1987 50.02 17.6781 50.02 15.2017C49.9387 13.878 49.6251 12.579 49.0934 11.364C54.2353 9.1342 59.1368 6.3867 63.7222 3.16405C66.0756 1.52405 68.5848 -0.402951 69.4622 -3.18275C70.3396 -5.96255 68.5684 -9.68535 65.6574 -9.61975Z" fill="#FFFDA9"/>
</g>
<path id="Vector_3" d="M56.1046 64.9593L41.6316 48.2559C40.5372 47.5491 39.2608 47.1759 37.958 47.1817C38.2737 47.2084 38.5672 47.3552 38.778 47.5917L53.251 64.3033C53.4602 64.5476 53.5647 64.8646 53.5416 65.1855C53.5186 65.5063 53.37 65.8052 53.128 66.0171L41.238 76.8165C41.1168 76.9207 40.9761 76.9997 40.824 77.049C40.672 77.0982 40.5117 77.1168 40.3524 77.1035C41.2708 77.5299 43.6324 77.8579 44.067 77.4725L55.957 66.6813C56.0798 66.578 56.181 66.4514 56.2549 66.3089C56.3288 66.1664 56.3739 66.0108 56.3876 65.8509C56.4013 65.691 56.3833 65.5299 56.3348 65.3769C56.2862 65.224 56.208 65.082 56.1046 64.9593Z" fill="#A2CCCB"/>
<path id="Vector_4" d="M39.5486 76.702L25.0756 59.9904C24.8639 59.7456 24.7579 59.4268 24.7809 59.1039C24.804 58.7811 24.9542 58.4806 25.1986 58.2684L37.0804 47.469C37.327 47.2613 37.6448 47.1579 37.9664 47.1809C38.288 47.2039 38.5879 47.3513 38.8024 47.592L53.3 64.3036C53.5093 64.5479 53.6137 64.8649 53.5907 65.1858C53.5677 65.5066 53.419 65.8054 53.177 66.0174L41.287 76.8168C41.166 76.9246 41.0246 77.0073 40.8713 77.06C40.7179 77.1127 40.5556 77.1343 40.3938 77.1237C40.232 77.113 40.0739 77.0702 39.9288 76.9978C39.7837 76.9254 39.6545 76.8248 39.5486 76.702Z" fill="#DFEDED"/>
<path id="Vector_5" d="M91.7746 46.2142C91.7287 45.6808 91.5462 45.1681 91.2446 44.7257C90.943 44.2834 90.5324 43.9262 90.0526 43.6886C88.9374 43.2294 87.6746 43.6886 86.5594 44.1724C76.8998 48.2068 71.414 50.306 64.9688 60.2608C63.8618 64.3608 62.7548 68.4608 61.9758 72.5608C61.8111 73.098 61.8284 73.6745 62.025 74.2008C62.265 74.5886 62.6363 74.8772 63.0713 75.0142C63.5062 75.1512 63.9759 75.1273 64.3948 74.947C65.2079 74.566 65.9064 73.9778 66.4202 73.2414C69.3558 69.6088 71.7338 65.5498 74.6694 61.9254C77.1294 58.8668 80.7128 54.4142 84.8702 54.0206C85.1244 54.9062 85.3048 55.8164 85.5016 56.7266C85.5426 57.0007 85.6404 57.2632 85.7886 57.4974C88.1748 60.72 91.135 50.265 91.3646 49.3712C91.7013 48.3547 91.8405 47.2831 91.7746 46.2142Z" fill="#FEDAF6"/>
<path id="Vector_6" d="M68.9704 73.84L78.7202 64.3198L48.8968 79.9818C48.6536 80.0976 48.4463 80.2771 48.2969 80.5012C48.1475 80.7253 48.0615 80.9857 48.048 81.2547C48.0346 81.5237 48.0942 81.7913 48.2205 82.0292C48.3468 82.2671 48.5352 82.4663 48.7656 82.6058C52.2085 84.7191 55.948 86.3056 59.8602 87.3126C60.9754 81.8678 64.9524 77.8252 68.9704 73.84Z" fill="#FFFDA9"/>
<path id="Vector_7" d="M91.3808 104.254C89.8704 106.064 88.0521 107.594 86.0098 108.772C87.125 116.012 87.207 117.16 88.068 119.957C89.0766 123.483 92.086 117.693 92.6928 116.275C96.3336 107.791 99.9716 99.3009 103.607 90.8057C99.589 95.3485 95.5136 99.8311 91.3808 104.254Z" fill="#FFFDA9"/>
<path id="Vector_8" d="M93.3325 13.931C93.2742 13.5235 93.1039 13.1403 92.8405 12.824C91.6597 11.7498 90.1017 12.5944 89.0357 13.7834C87.8139 14.9888 86.6495 16.2434 85.5343 17.5554C85.0505 22.295 82.9267 27.1002 79.5401 30.1342C74.9453 34.1495 69.0197 36.3099 62.9187 36.194C62.7137 37.1288 62.5579 38.0718 62.4267 39.023C57.4162 42.9999 53.0081 47.6815 49.3395 52.922C49.1571 53.1336 49.0378 53.3921 48.9951 53.6682C48.9295 54.4308 49.8971 54.849 50.6351 54.8326C52.6523 54.7834 54.3989 53.496 55.9897 52.266L62.1151 47.5264C62.4306 52.3353 63.0468 57.1198 63.9601 61.8518C68.0601 54.808 74.9399 48.2316 82.7627 45.9602C80.4011 44.1808 79.5565 42.2702 79.0481 39.351C78.8103 37.9816 78.6217 36.604 78.4905 35.251C83.4105 30.823 88.1665 26.0916 91.6105 20.409C92.7503 18.4 93.7835 16.1614 93.3325 13.931Z" fill="#ABFFE1"/>
<path id="Vector_9" d="M59.5976 18.457C61.6944 18.457 63.3942 16.7572 63.3942 14.6604C63.3942 12.5636 61.6944 10.8638 59.5976 10.8638C57.5008 10.8638 55.801 12.5636 55.801 14.6604C55.801 16.7572 57.5008 18.457 59.5976 18.457Z" fill="#FFCECC"/>
<path id="Vector_10" d="M83.845 83.6797C83.6482 83.8601 83.4514 84.0569 83.271 84.2537C83.4161 84.9862 83.8163 85.6436 84.4003 86.109C84.9843 86.5744 85.7144 86.8177 86.4608 86.7957L86.9938 86.1971C85.6899 85.7379 84.58 84.8505 83.845 83.6797Z" fill="#ABFFE1"/>
<path id="Vector_11" d="M81.59 86.4517C81.3643 86.7422 81.2301 87.0933 81.2046 87.4603C81.3224 87.9669 81.5978 88.4232 81.9911 88.7635C82.3845 89.1039 82.8757 89.3108 83.394 89.3545C83.8199 89.3195 84.2229 89.1468 84.542 88.8625C83.8697 88.7887 83.2331 88.5217 82.7092 88.0939C82.1854 87.6661 81.7966 87.0957 81.59 86.4517Z" fill="#ABFFE1"/>
<path id="Vector_12" d="M82.6315 85C82.4921 85.1804 82.3609 85.3608 82.2297 85.5494C82.2318 85.9162 82.3215 86.2772 82.4912 86.6024C82.6609 86.9276 82.9058 87.2075 83.2055 87.419C83.5039 87.6646 83.8518 87.843 84.2254 87.942C84.5989 88.0411 84.9894 88.0585 85.3703 87.993L85.7639 87.5666C85.0589 87.4611 84.3955 87.1668 83.8441 86.715C83.2926 86.2631 82.8736 85.6705 82.6315 85Z" fill="#ABFFE1"/>
<path id="Vector_13" d="M94.8167 71.0107C93.2637 70.428 91.5431 70.4849 90.032 71.1689C88.521 71.8529 87.3429 73.1083 86.7561 74.6597C85.7065 77.4395 86.3543 80.9245 84.5667 83.2451C84.6802 83.4284 84.8063 83.6038 84.9438 83.7699C85.6771 83.0061 86.3463 82.1834 86.9447 81.3099C87.0185 81.2033 87.1251 81.1787 87.1087 80.9491C87.0923 80.7195 86.8627 80.4981 86.7643 80.3013C86.6987 80.1956 86.6559 80.0774 86.6387 79.9543C86.6214 79.8311 86.63 79.7057 86.664 79.5861C86.698 79.4665 86.7565 79.3553 86.8359 79.2596C86.9153 79.1639 87.0138 79.0858 87.1251 79.0303C87.3644 78.9341 87.6286 78.9189 87.8773 78.987C88.1261 79.0551 88.3457 79.2028 88.5027 79.4075C88.8553 79.8585 88.9455 80.4489 89.3801 80.8425C89.7812 81.1552 90.2666 81.3408 90.7741 81.3755C90.8996 81.4039 91.0155 81.4647 91.1103 81.5518C91.2051 81.6389 91.2754 81.7492 91.3144 81.8719C91.3534 81.9946 91.3596 82.1253 91.3324 82.2511C91.3052 82.3769 91.2456 82.4934 91.1595 82.5891C90.7905 82.9745 90.1919 82.9007 89.7163 83.0237C88.6215 83.4455 87.7374 84.2824 87.2563 85.3525L87.5679 85.4591C87.9664 84.8905 88.4822 84.414 89.0806 84.0618C89.6789 83.7095 90.3459 83.4898 91.0364 83.4173C92.6764 83.0893 94.4558 83.0893 95.9564 82.1135C96.9262 81.4864 97.7037 80.6034 98.2032 79.5622C98.7026 78.5209 98.9045 77.3619 98.7866 76.213C98.6686 75.0642 98.2355 73.9704 97.5349 73.0523C96.8343 72.1342 95.8936 71.4277 94.8167 71.0107Z" fill="#ABFFE1"/>
<path id="Vector_14" d="M85.5098 84.3607C85.8089 84.6276 86.1361 84.8613 86.4856 85.0577C87.0225 83.8944 87.9513 82.9568 89.1096 82.4091C89.5343 82.2727 89.9758 82.1954 90.4216 82.1795C90.5446 82.1795 90.4872 82.1057 90.4216 82.0975C89.9405 82.0537 89.4811 81.8772 89.0946 81.5877C88.708 81.2981 88.4094 80.9068 88.2322 80.4575C88.1553 80.2159 88.0297 79.9926 87.8632 79.8015C87.3794 79.3997 87.5926 79.8671 87.5926 79.9491C87.7413 80.1267 87.8492 80.3348 87.9087 80.5586C87.9682 80.7825 87.9779 81.0167 87.937 81.2447C87.2476 82.3713 86.4334 83.4166 85.5098 84.3607Z" fill="#ABFFE1"/>
<path id="Vector_15" d="M123.353 65.7629C117.352 65.7277 111.582 63.4461 107.181 59.3677C102.779 55.2893 100.065 49.71 99.5727 43.7295L68.9703 73.8399C65.5099 77.2429 61.9757 80.8099 60.3357 85.3691C59.3959 88.2062 59.1805 91.2333 59.709 94.1749C60.2374 97.1165 61.493 99.8793 63.3615 102.212C65.2844 104.491 67.6521 106.354 70.3197 107.686C72.9873 109.018 75.8988 109.792 78.8759 109.961C81.2844 110.152 83.7031 109.75 85.9197 108.788C87.9983 107.604 89.8479 106.057 91.3809 104.221C102.976 91.8225 114.068 78.9758 124.656 65.6809C124.225 65.7452 123.789 65.7726 123.353 65.7629ZM92.6601 57.9319C92.7749 57.4153 93.5785 57.6367 93.4801 58.1533C93.0769 60.1752 93.0769 62.2568 93.4801 64.2787C93.5539 64.7953 92.7667 65.0085 92.6601 64.4919C92.1928 62.3302 92.1928 60.0936 92.6601 57.9319ZM96.5633 82.6795C95.1907 83.5152 93.6332 83.9997 92.0287 84.0899C90.8976 84.1702 89.8082 84.5494 88.8717 85.1887C88.0517 85.8611 88.1337 86.5663 85.2063 89.3543C83.6975 90.9943 81.1063 89.9529 80.4175 87.8783C80.1223 86.7631 81.0407 85.7217 81.6475 84.9017C83.2875 82.5975 83.9189 83.0567 84.5011 81.5643C84.9443 80.1641 85.2196 78.7162 85.3211 77.2511C85.5589 73.7251 87.7073 70.6091 91.2579 69.8711C92.1705 69.6949 93.1089 69.7002 94.0195 69.8867C94.9301 70.0732 95.795 70.4373 96.5648 70.9582C97.3347 71.479 97.9944 72.1464 98.5063 72.9223C99.0181 73.6981 99.3722 74.5672 99.5481 75.4799C99.7867 76.8387 99.6335 78.2374 99.1064 79.5124C98.5793 80.7874 97.7 81.8859 96.5715 82.6795H96.5633ZM101.68 68.4443L106.403 64.0409C106.789 63.6801 107.371 64.2623 106.985 64.6231L102.254 69.0265C101.836 69.3873 101.254 68.8051 101.68 68.4443ZM111.643 77.3003C109.249 78.3745 105.411 78.2105 105.657 77.3003C105.67 77.2461 105.695 77.1951 105.728 77.1503C105.761 77.1055 105.803 77.0679 105.851 77.0396C105.9 77.0113 105.953 76.993 106.008 76.9857C106.064 76.9783 106.12 76.9821 106.174 76.9969C107.851 77.4621 109.638 77.3347 111.233 76.6361C111.279 76.6024 111.332 76.5787 111.389 76.5667C111.445 76.5547 111.503 76.5547 111.559 76.5665C111.615 76.5783 111.668 76.6018 111.714 76.6354C111.761 76.669 111.8 76.712 111.829 76.7616C111.858 76.8112 111.876 76.8663 111.882 76.9233C111.888 76.9804 111.882 77.0381 111.865 77.0927C111.847 77.1473 111.818 77.1977 111.78 77.2405C111.742 77.2833 111.695 77.3177 111.643 77.3413V77.3003Z" fill="#ABFFE1"/>
<path id="Vector_16" d="M140.22 21.5322C135.989 21.442 111.274 32.102 104.903 34.6522C103.811 34.9967 102.789 35.5326 101.885 36.2348C99.6957 37.9732 99.3513 41.1548 99.6055 43.9428C100.148 49.885 102.884 55.4123 107.28 59.4465C111.677 63.4807 117.419 65.7326 123.386 65.763C124.972 65.8769 126.555 65.5081 127.928 64.7052C129.568 63.5736 130.388 61.5154 130.995 59.613C133.152 53.053 144.714 25.8208 142.032 22.2456C141.805 21.9954 141.524 21.8009 141.21 21.6772C140.895 21.5534 140.557 21.5038 140.22 21.5322Z" fill="#FEDAF6"/>
<path id="Vector_17" d="M108.421 21.9749C108.151 22.0747 107.859 22.0968 107.578 22.0388C107.297 21.9809 107.038 21.8451 106.83 21.6469C106.654 21.3832 106.552 21.0775 106.535 20.7613L106.174 18.4243C105.862 21.1057 105.354 22.7621 102.648 22.7621C103.538 22.7975 104.412 23.0151 105.214 23.4017C105.603 23.5982 105.929 23.8983 106.158 24.2687C106.387 24.6392 106.508 25.0656 106.51 25.5009C106.599 24.5622 106.996 23.6792 107.637 22.9885C108.279 22.2977 109.131 21.8377 110.061 21.6797C109.501 21.6791 108.945 21.7791 108.421 21.9749Z" fill="#FFE7AB"/>
<path id="Vector_18" d="M110.093 21.2699C108.584 21.2207 108.297 21.9259 107.297 21.5077C106.895 21.2535 106.912 20.5483 106.854 20.1301L106.6 18.3015C106.518 17.8095 105.837 17.9981 105.78 18.4163C105.452 20.7451 105.157 22.3359 102.648 22.3441C102.106 22.3441 102.139 23.1067 102.648 23.1641C104.001 23.3199 106.174 23.7135 106.133 25.5175C106.133 26.0505 106.895 26.0423 106.953 25.5175C107.047 24.6652 107.419 23.8677 108.012 23.2481C108.605 22.6286 109.385 22.2216 110.233 22.0899C110.7 22.0079 110.52 21.3601 110.093 21.2699ZM106.502 24.0169C106.016 23.3358 105.299 22.8549 104.484 22.6639C106.124 21.7291 105.706 21.3027 106.051 20.4007L106.1 20.7205C106.105 20.9974 106.169 21.2701 106.288 21.5203C106.407 21.7706 106.577 21.9927 106.789 22.1719C107.03 22.3412 107.314 22.438 107.609 22.4507C107.135 22.8903 106.758 23.4237 106.502 24.0169Z" fill="#EFAC54"/>
<path id="Vector_19" d="M124.279 92.2162C123.806 92.1006 123.374 91.8563 123.031 91.5105C122.688 91.1646 122.447 90.7306 122.336 90.2564C122.131 89.3046 122.106 88.3229 122.262 87.3618C121.696 90.363 120.843 92.8476 117.736 92.8968L120.327 94.2416C120.717 94.3965 121.038 94.6879 121.229 95.0616C121.491 95.7586 120.925 96.8492 121.614 97.128C121.675 95.8956 122.203 94.7327 123.091 93.8764C123.98 93.0201 125.161 92.5348 126.395 92.5196C125.821 92.0686 124.993 92.3392 124.279 92.2162Z" fill="#FFE7AB"/>
<path id="Vector_20" d="M126.584 92.1421C126.106 91.8641 125.55 91.749 125.001 91.8141C124.704 91.8499 124.403 91.8191 124.119 91.7241C123.835 91.6291 123.577 91.4722 123.361 91.2647C122.328 90.2561 122.541 88.6489 122.648 87.3369C122.697 86.8777 121.926 86.7793 121.828 87.2303C121.546 88.6204 121.1 89.972 120.499 91.2565C120.14 91.6292 119.712 91.9274 119.237 92.1343C118.763 92.3411 118.253 92.4524 117.736 92.4619C117.646 92.461 117.558 92.4899 117.486 92.5441C117.413 92.5982 117.361 92.6746 117.337 92.7615C117.313 92.8483 117.318 92.9408 117.351 93.0245C117.385 93.1082 117.445 93.1785 117.523 93.2245L119.417 94.2249C119.86 94.4545 120.696 94.7169 120.852 95.2581C121.073 96.0043 120.466 96.9883 121.393 97.4557C121.455 97.4916 121.526 97.5105 121.597 97.5106C121.669 97.5107 121.74 97.492 121.802 97.4563C121.864 97.4206 121.916 97.3692 121.952 97.3072C121.988 97.2453 122.008 97.1749 122.008 97.1031C122.06 95.9768 122.543 94.9135 123.356 94.1324C124.169 93.3513 125.251 92.9119 126.379 92.9047C126.468 92.9038 126.555 92.8736 126.626 92.8188C126.696 92.764 126.747 92.6876 126.77 92.6012C126.794 92.5147 126.788 92.4231 126.754 92.3402C126.72 92.2573 126.661 92.1878 126.584 92.1421ZM121.664 95.1761C121.604 94.899 121.474 94.6419 121.286 94.4299C120.847 94.0617 120.355 93.7605 119.827 93.5361L119.007 93.1015C119.735 92.9529 120.401 92.5849 120.914 92.0469C121.427 91.5089 121.763 90.8267 121.877 90.0921C121.968 90.696 122.236 91.2592 122.648 91.7103C123.06 92.1614 123.596 92.4801 124.189 92.6259C123.078 93.1509 122.185 94.047 121.664 95.1597V95.1761Z" fill="#EFAC54"/>
<path id="Vector_21" d="M48.0358 50.0599L44.5508 53.0775L45.625 54.2911L47.757 52.4461C47.8081 52.4013 47.8675 52.3671 47.9319 52.3453C47.9963 52.3235 48.0643 52.3147 48.1321 52.3193C48.1999 52.3238 48.2661 52.3417 48.327 52.3719C48.3878 52.4021 48.4421 52.444 48.4868 52.4953L51.3732 55.7999C51.4682 55.9188 51.5151 56.0692 51.5045 56.2211C51.4938 56.373 51.4265 56.5153 51.3158 56.6199L49.2002 58.4567L50.2662 59.6785L53.7512 56.6855C53.8666 56.5842 53.938 56.4419 53.9503 56.2888C53.9625 56.1357 53.9146 55.9838 53.8168 55.8655L48.8476 50.1255C48.7987 50.0676 48.7389 50.02 48.6716 49.9854C48.6043 49.9508 48.5308 49.9298 48.4553 49.9237C48.3799 49.9176 48.304 49.9265 48.232 49.9499C48.16 49.9733 48.0933 50.0106 48.0358 50.0599Z" fill="#DFEDED"/>
<path id="Vector_22" d="M61.9346 9.22414C61.543 9.22252 61.1598 9.33725 60.8336 9.55377C60.5073 9.77029 60.2528 10.0788 60.1022 10.4403C59.9516 10.8017 59.9118 11.1997 59.9878 11.5839C60.0638 11.968 60.2521 12.3208 60.529 12.5977C60.8059 12.8746 61.1588 13.063 61.5429 13.1389C61.927 13.2149 62.325 13.1751 62.6864 13.0245C63.0479 12.8739 63.3564 12.6194 63.5729 12.2931C63.7895 11.9669 63.9042 11.5837 63.9026 11.1921C63.9026 10.9337 63.8517 10.6778 63.7528 10.439C63.6539 10.2002 63.5089 9.9833 63.3262 9.80055C63.1434 9.6178 62.9265 9.47284 62.6877 9.37394C62.4489 9.27504 62.193 9.22414 61.9346 9.22414Z" fill="#5E503B"/>
<path id="Vector_23" d="M71.709 14.2343C72.4687 14.1777 73.1776 13.8312 73.689 13.2664C74.2003 12.7017 74.4749 11.9619 74.456 11.2003C74.4779 10.5342 74.3131 9.87532 73.9804 9.2979C74.0232 9.22297 74.0407 9.13627 74.0303 9.05061C74.02 8.96496 73.9824 8.88491 73.923 8.8223C73.7016 8.6009 73.4638 8.7075 73.2506 8.8797C71.9601 9.92561 70.5091 10.7563 68.9538 11.3397C68.8696 11.3674 68.7958 11.4198 68.7417 11.4899C68.6876 11.5601 68.6558 11.6449 68.6504 11.7333C68.7558 12.4568 69.1281 13.1148 69.6941 13.5776C70.2602 14.0404 70.9789 14.2747 71.709 14.2343ZM73.349 9.8309C73.574 10.26 73.6812 10.7411 73.6596 11.2251C73.638 11.7091 73.4884 12.1788 73.226 12.5861C72.9945 12.8906 72.6845 13.1264 72.3293 13.2682C71.974 13.41 71.5868 13.4524 71.2093 13.3908C70.8318 13.3293 70.4781 13.1662 70.1862 12.919C69.8943 12.6718 69.6752 12.3498 69.5524 11.9875C70.9007 11.4305 72.1735 10.706 73.3408 9.8309H73.349Z" fill="#5E503B"/>
<path id="Vector_24" d="M142.573 22.3357C141.491 20.5317 139.056 21.0975 137.006 21.7453C127.731 24.6809 121.221 27.4853 107.084 33.2909C105.247 34.0453 103.131 34.6193 101.598 35.9067C99.4169 37.7353 98.9905 40.8267 99.1381 43.5655L91.1513 51.4375C91.3645 50.7651 91.5695 50.0845 91.7499 49.4039C92.1845 47.7639 92.5699 45.8615 91.5039 44.3609C90.4379 42.8603 88.6995 42.8357 87.0923 43.4261C85.4851 44.0165 84.0009 44.6233 82.4757 45.2629C80.9259 43.9509 79.7779 42.1305 79.3597 39.0227C79.1547 37.8173 78.9989 36.6119 78.8759 35.3983C83.5581 31.2327 88.0107 26.7719 91.3809 21.4583C92.5375 19.8362 93.3496 17.9943 93.7671 16.0463C93.9885 14.5621 93.8737 12.2497 91.9959 11.9463C90.1181 11.6429 88.8061 13.3813 87.6909 14.5539C87.1251 15.1443 86.5675 15.7429 86.0509 16.3579C86.2469 11.6734 84.7053 7.08157 81.7223 3.46432C78.7392 -0.152926 74.5249 -2.54057 69.8887 -3.24007C70.7087 -6.36427 68.7325 -10.0297 65.6575 -10.0215C65.586 -10.0201 65.516 -10.0004 65.4543 -9.9642C65.3926 -9.92805 65.3411 -9.87666 65.3049 -9.81497C65.2687 -9.75327 65.249 -9.68331 65.2475 -9.61179C65.2461 -9.54027 65.263 -9.46958 65.2967 -9.40647C65.9691 -7.93867 63.8617 -6.73327 62.7301 -6.44627C58.2611 -5.29827 55.9159 -6.05267 51.8487 -4.51107C46.7401 -2.52667 42.3039 3.55773 43.5585 9.35513C43.6111 9.47537 43.6383 9.60519 43.6383 9.73643C43.6383 9.86767 43.6111 9.9975 43.5585 10.1177C43.1743 10.5037 42.8129 10.9117 42.4761 11.3395C40.1555 14.3571 39.8521 19.6133 42.2547 23.3935C40.8689 26.3455 38.5483 27.7887 35.5963 29.2401C31.0714 31.2552 27.196 34.4889 24.4033 38.5799C22.8492 40.8392 21.662 43.33 20.8855 45.9599C20.8655 46.0378 20.8688 46.1198 20.895 46.1958C20.9212 46.2718 20.9692 46.3384 21.033 46.3874C21.0968 46.4363 21.1736 46.4654 21.2538 46.4711C21.334 46.4767 21.4141 46.4586 21.4841 46.4191C25.7399 43.9591 30.9387 46.0829 35.1371 48.6823L24.9281 57.9565C24.6023 58.2413 24.4023 58.6433 24.3716 59.0749C24.3408 59.5065 24.4819 59.9327 24.7641 60.2607L39.2371 76.9723C39.4987 77.265 39.8565 77.4541 40.2457 77.5053C41.1067 77.8743 43.6733 78.3253 44.3457 77.7759L56.2275 66.9929C56.5556 66.713 56.7603 66.3151 56.7971 65.8853C56.8339 65.4556 56.7 65.0286 56.4243 64.6969L51.5781 59.0799L54.0381 56.9643C54.2219 56.7885 54.3326 56.5497 54.3478 56.2957C54.363 56.0418 54.2816 55.7915 54.1201 55.5949L53.2181 54.5617C55.0057 53.6269 57.3181 51.7081 61.6969 48.3051C62.07 52.8887 62.6886 57.449 63.5501 61.9663C63.5788 62.0634 63.6424 62.1465 63.7287 62.1995C63.815 62.2525 63.9179 62.2717 64.0175 62.2533C63.1319 65.5333 62.2873 68.8133 61.6149 72.2409C61.5468 72.454 61.5028 72.6741 61.4837 72.8969L48.7163 79.5799C48.4297 79.712 48.1808 79.914 47.9924 80.1672C47.8041 80.4205 47.6823 80.7169 47.6382 81.0294C47.5941 81.342 47.6292 81.6605 47.7402 81.956C47.8512 82.2514 48.0346 82.5143 48.2735 82.7205C49.0143 83.2708 49.8114 83.7408 50.6515 84.1227C53.3895 85.5868 56.2867 86.7313 59.2861 87.5339C57.1869 98.0299 65.0835 108.854 77.4081 110.305C79.8994 110.676 82.4422 110.477 84.8455 109.723C85.1298 109.608 85.4031 109.485 85.6655 109.354C86.4855 114.791 86.6167 116.218 87.6171 119.744C87.8631 121.384 89.0849 122.245 90.6921 120.449C92.6847 118.218 93.6359 115.152 94.7921 112.454L103.976 90.9697C111.356 82.6221 118.515 73.9957 124.796 66.0663C125.487 65.9839 126.17 65.844 126.838 65.6481C129.667 64.6395 130.618 61.8351 131.528 59.2439C133.988 52.2165 141.491 34.5455 142.737 25.5009C142.96 24.4496 142.903 23.3585 142.573 22.3357ZM88.4125 14.9557C88.9969 14.289 89.6512 13.687 90.3641 13.1599C91.0611 12.7171 92.1763 12.4957 92.6683 13.3567C93.0281 14.2003 93.1114 15.1361 92.9061 16.0299C92.4882 17.8343 91.7313 19.5429 90.6757 21.0647C87.4695 25.7961 84.6487 29.1171 78.8103 34.3733C78.7283 33.3893 78.6709 32.4053 78.6463 31.4213C79.5284 30.7464 80.3514 29.9975 81.1063 29.1827C83.9325 25.9618 85.6562 21.9225 86.0263 17.6535C86.7479 16.7187 87.5679 15.8331 88.4125 14.9557ZM85.0833 13.1599C85.6331 17.7339 84.6156 22.3591 82.1969 26.2799C75.8747 36.3741 59.2369 38.9899 50.5449 31.7657C50.6037 31.6167 50.6503 31.4631 50.6843 31.3065C50.7827 30.7899 49.9791 30.5685 49.8643 31.0851C49.7223 31.6524 49.364 32.1416 48.8659 32.4481C48.3679 32.7546 47.7697 32.854 47.1993 32.7251C44.6983 32.2003 42.5827 29.7321 43.6323 27.3459C43.8516 26.8481 44.2254 26.4341 44.6983 26.1651C46.8165 27.9121 49.4803 28.8609 52.2259 28.8465C52.3346 28.8465 52.4389 28.8033 52.5158 28.7264C52.5927 28.6496 52.6359 28.5453 52.6359 28.4365C52.6359 28.3278 52.5927 28.2235 52.5158 28.1466C52.4389 28.0697 52.3346 28.0265 52.2259 28.0265C51.736 28.0674 51.2445 27.9681 50.8089 27.7401C50.3733 27.5122 50.0116 27.165 49.7659 26.7391C49.3108 25.7524 49.116 24.6655 49.2001 23.5821C49.5773 18.6621 50.3563 16.7761 50.3973 15.2017C50.3311 13.9559 50.0538 12.7303 49.5773 11.5773C54.4176 9.44409 59.0511 6.86934 63.4189 3.88573C65.6821 2.30313 68.5029 0.23673 69.6099 -2.42007C73.5313 -1.85629 77.1625 -0.0308714 79.9542 2.78011C82.746 5.59109 84.5464 9.23472 85.0833 13.1599ZM42.0825 13.4879C42.3536 12.821 42.724 12.199 43.1813 11.6429C43.6077 11.1263 44.3047 10.6917 44.4113 10.0029C44.4605 9.18293 44.1981 9.03533 44.1407 7.78893C43.8537 2.72953 48.1669 -2.62507 52.9557 -4.01087C57.7445 -5.39667 61.4345 -4.57667 64.2881 -6.21667C65.3787 -6.83987 66.3873 -7.85667 66.2233 -9.14407C69.1671 -8.58647 70.4873 -3.85507 67.7157 -0.80467C66.2252 0.820962 64.5203 2.23615 62.6481 3.40193C58.2909 6.34932 53.6679 8.8832 48.8393 10.9705C48.761 11.0149 48.6998 11.0843 48.6656 11.1675C48.6314 11.2508 48.6261 11.3431 48.6507 11.4297C50.7335 15.8167 48.5113 17.8913 48.3965 23.8609C48.3397 25.0111 48.5767 26.1569 49.0853 27.1901C49.1943 27.3714 49.3207 27.5416 49.4625 27.6985C47.9894 27.3356 46.6107 26.6624 45.4187 25.7239C44.2266 24.7855 43.2486 23.6034 42.55 22.2566C41.8514 20.9099 41.4483 19.4296 41.3677 17.9146C41.2871 16.3996 41.5308 14.8848 42.0825 13.4715V13.4879ZM21.9269 45.2793C23.4381 40.835 26.1311 36.8862 29.7169 33.8567C31.7278 32.2406 33.9312 30.8799 36.2769 29.8059C39.0731 28.4119 41.3281 26.8785 42.7549 24.1151C43.1453 24.6445 43.5816 25.1384 44.0587 25.5911C43.5226 26.0044 43.1079 26.5546 42.8582 27.1838C42.6085 27.813 42.5332 28.4979 42.6401 29.1663C42.8746 30.4117 43.5394 31.535 44.5182 32.3399C45.497 33.1448 46.7275 33.5801 47.9947 33.5697C48.427 33.5563 48.8507 33.4453 49.2341 33.2451C49.6174 33.0449 49.9506 32.7606 50.2087 32.4135C53.692 35.072 57.9386 36.5383 62.3201 36.5955C62.1725 37.3335 62.0577 38.0633 61.9593 38.8013C57.5388 42.3661 53.5853 46.4739 50.1923 51.0275L49.2001 49.8713C49.036 49.6683 48.7986 49.5381 48.5392 49.5089C48.2798 49.4797 48.0193 49.554 47.8143 49.7155L45.3543 51.8721C41.7709 47.7721 41.9759 47.9689 41.8939 47.9115C40.6065 47.0915 37.9497 46.2715 36.8427 47.1653L35.7849 48.1329C31.5291 45.5745 26.4041 43.2785 21.9269 45.2793ZM50.2825 55.1849L51.0533 56.0869C51.0844 56.1203 51.1017 56.1643 51.1017 56.2099C51.1017 56.2556 51.0844 56.2995 51.0533 56.3329L50.0201 57.2595L46.9533 53.7253L48.0685 52.7577C48.0777 52.7473 48.0891 52.7389 48.1018 52.7331C48.1145 52.7274 48.1283 52.7244 48.1423 52.7244C48.1562 52.7244 48.17 52.7274 48.1828 52.7331C48.1955 52.7389 48.2069 52.7473 48.2161 52.7577L48.6917 53.3071C48.3801 54.3075 49.2657 55.1193 50.2825 55.1849ZM46.2891 54.2583L49.3559 57.8007L48.9541 58.1451C48.8985 58.1926 48.8569 58.2543 48.8338 58.3237C48.8106 58.393 48.8069 58.4674 48.8229 58.5387L45.4773 54.6765C45.5475 54.701 45.6228 54.7071 45.696 54.6942C45.7692 54.6813 45.8379 54.6498 45.8955 54.6027L46.2891 54.2583ZM39.5077 47.7803C40.1659 47.9511 40.7918 48.2281 41.3609 48.6003L44.6901 52.4461C44.2391 52.8397 44.1571 52.8725 44.1407 53.0857C44.1243 53.2989 44.6983 53.7745 39.5077 47.7803ZM39.8521 76.4311L25.4201 59.7195C25.2813 59.5547 25.2129 59.3419 25.2298 59.127C25.2467 58.9122 25.3474 58.7126 25.5103 58.5715L37.3429 47.7803C37.5052 47.6479 37.712 47.5827 37.9209 47.5979C38.1298 47.6132 38.3249 47.7078 38.4663 47.8623L52.9393 64.5739C53.0756 64.7383 53.1424 64.9493 53.1256 65.1621C53.1088 65.375 53.0096 65.5729 52.8491 65.7137L41.0001 76.5049C40.8373 76.6457 40.6257 76.7169 40.411 76.7031C40.1962 76.6893 39.9955 76.5916 39.8521 76.4311ZM55.7601 65.2299C55.896 65.3978 55.9602 65.6126 55.9387 65.8275C55.9172 66.0425 55.8118 66.2403 55.6453 66.3779L43.8045 77.1609C43.0727 77.2816 42.3236 77.2452 41.6069 77.0543L53.4149 66.3205C53.737 66.0374 53.9354 65.6394 53.9676 65.2118C53.9998 64.7841 53.8632 64.3609 53.5871 64.0327L50.1431 60.0639C50.2118 60.0894 50.2861 60.096 50.3582 60.083C50.4303 60.07 50.4976 60.0379 50.5531 59.9901L50.9549 59.6457L55.7601 65.2299ZM53.5051 56.3739L50.3317 59.0799L49.8069 58.4731L51.5945 56.9233C51.7743 56.7444 51.8807 56.5047 51.8928 56.2514C51.9049 55.998 51.8219 55.7492 51.6601 55.5539L48.7901 52.2247C48.6288 52.0405 48.4011 51.9275 48.1568 51.9106C47.9125 51.8937 47.6714 51.9742 47.4863 52.1345L45.6659 53.7171L45.1001 53.1185C46.9533 51.4785 48.1341 50.4781 48.2899 50.3551C48.3052 50.339 48.3236 50.3262 48.3441 50.3174C48.3645 50.3086 48.3865 50.3041 48.4088 50.3041C48.431 50.3041 48.453 50.3086 48.4735 50.3174C48.4939 50.3262 48.5124 50.339 48.5277 50.3551L53.4477 56.0951C53.4736 56.1059 53.4965 56.1229 53.5143 56.1445C53.5322 56.1662 53.5444 56.1919 53.5501 56.2194C53.5558 56.2468 53.5546 56.2753 53.5468 56.3022C53.5389 56.3292 53.5246 56.3538 53.5051 56.3739ZM62.5251 47.6901L65.8051 45.1809C66.2233 44.8611 65.6411 44.2871 65.2311 44.6069C53.9069 53.3399 54.1201 53.2743 52.6523 53.8647L50.7335 51.6507C54.4418 46.6381 58.8395 42.1742 63.7961 38.3913C63.8864 38.3173 63.9452 38.2117 63.9604 38.096C63.9757 37.9802 63.9462 37.863 63.8781 37.7681C63.5993 37.3581 63.3041 37.7681 62.9351 38.0551C63.0089 37.5713 63.0991 37.0875 63.1975 36.6119C68.4393 36.6674 73.5638 35.0597 77.8345 32.0199C77.9395 34.5609 78.2135 37.0921 78.6545 39.5967C78.8564 40.8963 79.2632 42.1557 79.8599 43.3277C80.3928 44.2552 81.0774 45.0867 81.8853 45.7877C74.5053 48.2477 68.2815 54.0943 64.2061 60.6953C63.3924 56.3965 62.8284 52.0542 62.5169 47.6901H62.5251ZM62.8367 70.3467C63.5829 66.9437 64.4767 63.6965 65.3951 60.2771C69.3885 54.0779 75.8583 48.4199 82.8201 46.3371C82.9146 46.3071 82.9954 46.2444 83.0479 46.1603C83.1005 46.0761 83.1215 45.9761 83.1071 45.8779C83.9271 45.5581 84.6733 45.2547 85.4359 44.9349C86.7971 44.4019 88.7159 43.2047 90.1755 44.1149C91.6351 45.0251 91.4465 47.0423 91.1103 48.4855C90.7485 49.9497 90.305 51.3924 89.7819 52.8069L85.9033 56.6199C85.6327 55.6933 85.5179 54.7093 85.2473 53.7745C85.2239 53.6878 85.1728 53.6112 85.1017 53.5564C85.0306 53.5016 84.9435 53.4716 84.8537 53.4711C82.0083 53.7745 79.6549 55.6359 77.7115 57.6203C73.9067 61.7203 72.1683 64.5165 69.1015 68.8789L62.3775 72.4131C62.5005 71.7243 62.6809 71.0273 62.8285 70.3467H62.8367ZM78.4167 64.0163L70.6677 68.0999C72.5373 65.3666 74.5326 62.7153 76.6537 60.1459C78.6955 57.7597 81.3031 54.9143 84.5995 54.4059C84.7881 55.1767 85.0587 56.7019 85.2637 57.2513L78.4167 64.0163ZM49.4871 82.5811C49.1252 82.4255 48.809 82.1799 48.5687 81.8677C48.5024 81.7296 48.4642 81.5796 48.4564 81.4265C48.4486 81.2734 48.4713 81.1204 48.5232 80.9762C48.5751 80.8319 48.6551 80.6995 48.7586 80.5865C48.8622 80.4735 48.9872 80.3822 49.1263 80.3179C49.4379 80.1703 46.5515 81.6791 76.3667 66.0171C66.7071 75.5291 65.7559 76.3245 63.2467 79.4487C61.4835 81.6167 60.1956 84.131 59.4665 86.8287C55.9644 85.8673 52.6078 84.4386 49.4871 82.5811ZM90.0935 119.867C89.6343 120.58 88.9373 121.129 88.5683 120.186C87.6007 117.448 87.1743 113.561 86.4691 108.969C88.1192 108.031 89.6041 106.829 90.8643 105.41C94.6445 101.228 98.4985 97.1689 102.238 92.9705C92.3813 115.98 91.8401 117.8 90.0935 119.867ZM93.9557 100.9C92.2009 102.868 90.3969 104.795 88.4699 106.64C86.5606 108.365 84.138 109.417 81.5737 109.633C76.8972 109.986 72.234 108.796 68.2979 106.246C60.2865 101.154 57.0065 90.3137 62.4677 82.0481C65.0835 78.0629 64.0093 79.3585 99.2693 44.6643C99.9256 50.3373 102.555 55.5989 106.698 59.5292C110.842 63.4595 116.234 65.8083 121.934 66.1647C122.522 66.237 123.114 66.2645 123.705 66.2467C109.716 83.6799 99.9663 94.1267 93.9557 100.9ZM142.032 24.3119C141.581 32.2167 132.824 53.1841 131.438 57.1939C130.872 58.8339 130.306 60.4739 129.609 62.0237C129.294 62.7361 128.829 63.3721 128.246 63.8886C127.663 64.4051 126.976 64.7899 126.231 65.0167C124.615 65.3676 122.95 65.4369 121.311 65.2217C116.5 64.7095 111.957 62.7514 108.282 59.6056C104.606 56.4598 101.97 52.274 100.721 47.5999C99.9909 44.7791 99.5153 41.4007 100.721 38.6373C101.35 37.239 102.492 36.1354 103.91 35.5541C104.443 35.2671 125.575 26.6981 129.478 25.2385C134.8 23.2377 140.253 20.8925 141.778 22.5981C141.992 23.1425 142.079 23.7288 142.032 24.3119Z" fill="#5E503B"/>
<path id="Vector_25" d="M134.415 63.7456C122.295 77.4478 115.046 86.1398 107.601 95.1598C107.264 95.5616 107.847 96.152 108.183 95.742C117.818 84.0242 125.944 74.6762 135.03 64.3606C135.374 63.967 134.8 63.3848 134.447 63.7784L134.415 63.7456Z" fill="#FFFDA9"/>
<path id="Vector_26" d="M142.336 60.1543C137.334 66.8007 131.94 73.1424 126.182 79.1455C125.813 79.5227 126.395 80.1049 126.756 79.7277C132.573 73.6931 138.015 67.307 143.049 60.6053C143.369 60.1871 142.655 59.7853 142.336 60.1953V60.1543Z" fill="#FFFDA9"/>
<path id="Vector_27" d="M49.2904 88.2228C43.001 95.8652 26.437 115.193 24.6002 117.3C24.2476 117.694 24.8298 118.276 25.1742 117.882C31.7342 110.412 48.1342 90.9534 49.9054 88.7804C50.2006 88.395 49.6266 87.78 49.2904 88.2228Z" fill="#FFFDA9"/>
<path id="Vector_28" d="M32.7181 99.3421C32.3573 99.7275 32.9395 100.31 33.3003 99.9161L46.5105 85.7219C46.8713 85.3365 46.2891 84.7543 45.9283 85.1397C45.9201 85.2217 46.2809 84.8117 32.7181 99.3421Z" fill="#FFFDA9"/>
<path id="Vector_29" d="M79.007 8.60052C81.1039 8.60052 82.8037 6.90073 82.8037 4.80392C82.8037 2.70712 81.1039 1.00732 79.007 1.00732C76.9102 1.00732 75.2104 2.70712 75.2104 4.80392C75.2104 6.90073 76.9102 8.60052 79.007 8.60052Z" fill="#FFCECC"/>
<path id="Vector_30" d="M74.8334 6.65748C75.2243 6.65748 75.6063 6.54158 75.9313 6.32443C76.2563 6.10728 76.5096 5.79864 76.6592 5.43754C76.8087 5.07644 76.8479 4.67909 76.7716 4.29574C76.6954 3.9124 76.5072 3.56027 76.2308 3.2839C75.9544 3.00752 75.6023 2.8193 75.2189 2.74305C74.8356 2.6668 74.4382 2.70594 74.0771 2.85551C73.716 3.00508 73.4074 3.25838 73.1902 3.58336C72.9731 3.90835 72.8572 4.29042 72.8572 4.68128C72.8561 4.9411 72.9065 5.19857 73.0054 5.43882C73.1043 5.67907 73.2499 5.89736 73.4336 6.08108C73.6173 6.26481 73.8356 6.41033 74.0759 6.50926C74.3161 6.60819 74.5736 6.65856 74.8334 6.65748Z" fill="#5E503B"/>
</g>
</g>
</svg>
