<svg width="41" height="40" viewBox="0 0 41 40" fill="none" xmlns="http://www.w3.org/2000/svg">
<path d="M35.6667 16.6668H5.66675M35.6667 20.8335V14.6668C35.6667 11.8666 35.6667 10.4664 35.1218 9.39688C34.6424 8.45607 33.8775 7.69116 32.9367 7.2118C31.8671 6.66683 30.467 6.66683 27.6667 6.66683H13.6667C10.8665 6.66683 9.46635 6.66683 8.3968 7.2118C7.45599 7.69116 6.69108 8.45607 6.21172 9.39688C5.66675 10.4664 5.66675 11.8666 5.66675 14.6668V28.6668C5.66675 31.4671 5.66675 32.8672 6.21172 33.9368C6.69108 34.8776 7.45599 35.6425 8.3968 36.1219C9.46635 36.6668 10.8665 36.6668 13.6667 36.6668H20.6667M27.3334 3.3335V10.0002M14.0001 3.3335V10.0002M24.8334 31.6668L28.1667 35.0002L35.6667 27.5002" stroke="url(#paint0_linear_275_8930)" stroke-width="2" stroke-linecap="round" stroke-linejoin="round"/>
<defs>
<linearGradient id="paint0_linear_275_8930" x1="5.66675" y1="3.3335" x2="35.7585" y2="14.3654" gradientUnits="userSpaceOnUse">
<stop stop-color="#9930DF"/>
<stop offset="0.506953" stop-color="#C0448F"/>
<stop offset="1" stop-color="#F15C3B"/>
</linearGradient>
</defs>
</svg>
