<svg width="40" height="40" viewBox="0 0 40 40" fill="none" xmlns="http://www.w3.org/2000/svg">
<g id="camera-02">
<g id="Icon">
<path d="M3.33325 12.8362C3.33325 10.3493 5.3493 8.33325 7.83622 8.33325C9.12836 8.33325 10.2755 7.50642 10.6841 6.28058L10.8333 5.83325C10.9036 5.6223 10.9387 5.51682 10.9763 5.42325C11.4567 4.22846 12.5822 3.41719 13.8676 3.33935C13.9683 3.33325 14.0795 3.33325 14.3018 3.33325H25.698C25.9204 3.33325 26.0316 3.33325 26.1322 3.33935C27.4176 3.41719 28.5432 4.22846 29.0235 5.42325C29.0611 5.51682 29.0963 5.6223 29.1666 5.83325L29.3157 6.28058C29.7243 7.50642 30.8715 8.33325 32.1636 8.33325C34.6505 8.33325 36.6666 10.3493 36.6666 12.8362V26.9999C36.6666 29.8002 36.6666 31.2003 36.1216 32.2699C35.6423 33.2107 34.8773 33.9756 33.9365 34.455C32.867 34.9999 31.4668 34.9999 28.6666 34.9999H11.3333C8.53299 34.9999 7.13286 34.9999 6.0633 34.455C5.12249 33.9756 4.35759 33.2107 3.87822 32.2699C3.33325 31.2003 3.33325 29.8002 3.33325 26.9999V12.8362Z" stroke="url(#paint0_linear_514_3083)" stroke-width="2" stroke-linecap="round" stroke-linejoin="round"/>
<path d="M19.9999 27.4999C24.1421 27.4999 27.4999 24.1421 27.4999 19.9999C27.4999 15.8578 24.1421 12.4999 19.9999 12.4999C15.8578 12.4999 12.4999 15.8578 12.4999 19.9999C12.4999 24.1421 15.8578 27.4999 19.9999 27.4999Z" stroke="url(#paint1_linear_514_3083)" stroke-width="2" stroke-linecap="round" stroke-linejoin="round"/>
</g>
</g>
<defs>
<linearGradient id="paint0_linear_514_3083" x1="3.33325" y1="3.33325" x2="35.3718" y2="17.0708" gradientUnits="userSpaceOnUse">
<stop stop-color="#9930DF"/>
<stop offset="0.506953" stop-color="#C0448F"/>
<stop offset="1" stop-color="#F15C3B"/>
</linearGradient>
<linearGradient id="paint1_linear_514_3083" x1="3.33325" y1="3.33325" x2="35.3718" y2="17.0708" gradientUnits="userSpaceOnUse">
<stop stop-color="#9930DF"/>
<stop offset="0.506953" stop-color="#C0448F"/>
<stop offset="1" stop-color="#F15C3B"/>
</linearGradient>
</defs>
</svg>
