<svg width="120" height="34" viewBox="0 0 120 34" fill="none" xmlns="http://www.w3.org/2000/svg">
<rect width="120" height="34" rx="4" fill="white"/>
<path fill-rule="evenodd" clip-rule="evenodd" d="M40.6634 20.0037C40.6497 19.9679 40.6225 19.9376 40.587 19.9211C40.5516 19.9046 40.5107 19.9046 40.4752 19.9156C39.8427 20.1525 38.7941 20.3453 37.9679 20.3453C36.1603 20.3453 35.2987 19.8522 35.2987 17.0509C35.2987 14.8115 35.5632 13.7565 37.9679 13.7565C38.6496 13.7565 39.4744 13.8557 40.2787 14.0926C40.3442 14.1118 40.4151 14.0815 40.4451 14.0209C40.6682 13.5247 40.9922 12.7222 41.2307 12.1315L41.3242 11.9C41.3433 11.8614 41.3433 11.8173 41.3269 11.7788C41.3106 11.7402 41.2779 11.7099 41.237 11.6961C40.1791 11.3546 38.9168 11.1562 37.7798 11.1562C33.9928 11.1562 32.3051 12.9605 32.3051 17.0096C32.3051 21.1165 33.9928 22.9483 37.7798 22.9483C38.7286 22.9483 40.599 22.7472 41.5014 22.3836C41.5723 22.3533 41.6105 22.2707 41.5832 22.1991L40.6634 20.0037ZM11.3711 11.602C11.3711 11.525 11.4326 11.4626 11.5085 11.4626L19.2857 11.4626C19.3829 11.4626 19.4486 11.5642 19.4109 11.6559L18.4477 13.998C18.4223 14.0598 18.3641 14.088 18.3089 14.0824C18.3044 14.0829 18.2998 14.0831 18.2951 14.0831H14.2836V22.502C14.2836 22.579 14.2221 22.6414 14.1462 22.6414H11.5085C11.4326 22.6414 11.3711 22.579 11.3711 22.502V11.602ZM20.0627 17.0091C20.0627 12.7971 21.5043 11.1562 25.2067 11.1562C28.9387 11.1562 30.3938 12.7971 30.3938 17.0091C30.3938 21.2852 28.9387 22.9483 25.2067 22.9483C21.5043 22.9483 20.0627 21.2852 20.0627 17.0091ZM22.9944 17.0509C22.9944 20.0205 23.5199 20.4941 25.2067 20.4941C26.9259 20.4941 27.4621 20.0205 27.4621 17.0509C27.4621 13.8891 26.8774 13.6077 25.2067 13.6077C23.5684 13.6077 22.9944 13.8891 22.9944 17.0509Z" fill="#0066B3"/>
<path fill-rule="evenodd" clip-rule="evenodd" d="M62.8209 20.0032C62.8073 19.9674 62.78 19.9371 62.7446 19.9206C62.7091 19.9041 62.6682 19.9041 62.6328 19.9151C62.0002 20.152 60.9516 20.3448 60.1255 20.3448C58.3178 20.3448 57.4563 19.8517 57.4563 17.0504C57.4563 14.811 57.7207 13.756 60.1255 13.756C60.8071 13.756 61.632 13.8552 62.4363 14.0921C62.5017 14.1113 62.5726 14.081 62.6026 14.0204C62.8258 13.5243 63.1498 12.7217 63.3882 12.1311L63.4818 11.8995C63.5009 11.8609 63.5009 11.8168 63.4845 11.7783C63.4681 11.7397 63.4354 11.7094 63.3945 11.6956C62.3367 11.3541 61.0743 11.1558 59.9374 11.1558C56.1503 11.1558 54.4626 12.96 54.4626 17.0091C54.4626 21.1161 56.1503 22.9478 59.9374 22.9478C60.8862 22.9478 62.7565 22.7467 63.659 22.3831C63.7299 22.3528 63.7681 22.2702 63.7408 22.1986L62.8209 20.0032ZM42.8485 11.4623C42.7532 11.4623 42.6869 11.5574 42.7197 11.6473L46.7273 22.6428C46.1618 23.8492 45.5335 25.119 44.8149 26.5343C44.7679 26.627 44.8334 26.739 44.9363 26.739H47.7873C47.8391 26.739 47.8869 26.7088 47.9102 26.6621C50.0199 22.3065 51.5723 18.4455 53.6948 11.6465C53.7237 11.5566 53.6582 11.4623 53.5648 11.4623H50.9168C50.8553 11.4623 50.801 11.5047 50.7842 11.5646C49.967 14.4712 49.2136 16.7464 48.3402 18.939L45.648 11.5527C45.6283 11.4984 45.5768 11.4623 45.5192 11.4623H42.8485ZM65.1284 22.641H67.8372C67.8949 22.641 67.9498 22.602 67.9662 22.5462C68.3834 21.2165 68.7539 19.7195 69.0668 18.0692C69.3358 16.6602 69.4999 15.3252 69.5973 14.0827H72.2451V22.5016C72.2451 22.5786 72.3067 22.641 72.3825 22.641H75.0203C75.0961 22.641 75.1576 22.5786 75.1576 22.5016V11.6017C75.1576 11.5247 75.0961 11.4623 75.0203 11.4623H66.9699C66.8958 11.4623 66.8355 11.5208 66.8327 11.5961C66.7586 13.2659 66.583 15.1365 66.2481 17.166C65.9215 19.1285 65.4495 20.8987 64.9966 22.4626C64.9719 22.5518 65.0378 22.641 65.1284 22.641ZM89.6754 11.4623C89.5995 11.4623 89.538 11.5247 89.538 11.6017V22.5016C89.538 22.5786 89.5995 22.641 89.6754 22.641H92.3131C92.389 22.641 92.4505 22.5786 92.4505 22.5016V14.0827H96.4621C96.4667 14.0827 96.4713 14.0825 96.4758 14.0821C96.5311 14.0876 96.5892 14.0595 96.6147 13.9976L97.5778 11.6556C97.6155 11.5638 97.5498 11.4623 97.4527 11.4623L89.6754 11.4623ZM76.8136 11.6473C76.7809 11.5574 76.8471 11.4623 76.9424 11.4623H79.6132C79.6708 11.4623 79.7222 11.4984 79.742 11.5527L82.4342 18.939C83.3076 16.7464 84.061 14.4712 84.8781 11.5646C84.895 11.5047 84.9493 11.4623 85.0107 11.4623H87.6588C87.7522 11.4623 87.8177 11.5566 87.7888 11.6465C85.6663 18.4455 84.1139 22.3065 82.0042 26.6621C81.9808 26.7088 81.9331 26.739 81.8813 26.739H79.0303C78.9274 26.739 78.8618 26.627 78.9089 26.5343C79.6274 25.119 80.2558 23.8492 80.8213 22.6428L76.8136 11.6473ZM105.859 11.4623H108.495C108.572 11.4623 108.632 11.5235 108.629 11.6014V11.6181V21.8628C108.629 21.924 108.594 21.9797 108.536 21.9991C107.314 22.472 105.255 22.9477 103.409 22.9477C100.248 22.9477 98.9688 21.5457 98.9057 17.9658C98.9029 17.9574 98.9029 11.6181 98.9029 11.6181V11.6014C98.9029 11.5235 98.9633 11.4623 99.0402 11.4623H101.676C101.753 11.4623 101.814 11.5235 101.814 11.6014V17.9046C101.874 19.8072 102.338 20.2634 103.936 20.2634C104.579 20.2634 105.15 20.1855 105.721 20.0242V11.6014C105.721 11.5235 105.782 11.4623 105.859 11.4623Z" fill="#EE2F53"/>
</svg>
