<svg width="20" height="20" viewBox="0 0 20 20" fill="none" xmlns="http://www.w3.org/2000/svg">
<path fill-rule="evenodd" clip-rule="evenodd" d="M10.2 4.9C7.27231 4.9 4.59718 7.09085 2.94865 8.83992C2.21712 9.61606 2.21712 10.7839 2.94865 11.5601C4.59718 13.3091 7.27231 15.5 10.2 15.5C13.1277 15.5 15.8028 13.3091 17.4514 11.5601C18.1829 10.7839 18.1829 9.61606 17.4514 8.83992C15.8028 7.09085 13.1277 4.9 10.2 4.9ZM1.92985 7.87968C3.60616 6.10114 6.64132 3.5 10.2 3.5C13.7587 3.5 16.7938 6.10114 18.4701 7.87968C19.71 9.19509 19.71 11.2049 18.4701 12.5203C16.7938 14.2989 13.7587 16.9 10.2 16.9C6.64132 16.9 3.60616 14.2989 1.92985 12.5203C0.69005 11.2049 0.690049 9.19509 1.92985 7.87968ZM10.2 8.32857C9.18378 8.32857 8.35 9.1609 8.35 10.2C8.35 11.2391 9.18378 12.0714 10.2 12.0714C11.2162 12.0714 12.05 11.2391 12.05 10.2C12.05 9.1609 11.2162 8.32857 10.2 8.32857ZM6.95 10.2C6.95 8.39877 8.39956 6.92857 10.2 6.92857C12.0004 6.92857 13.45 8.39877 13.45 10.2C13.45 12.0012 12.0004 13.4714 10.2 13.4714C8.39956 13.4714 6.95 12.0012 6.95 10.2Z" fill="url(#paint0_linear_388_5800)"/>
<defs>
<linearGradient id="paint0_linear_388_5800" x1="1" y1="3.5" x2="16.9475" y2="12.42" gradientUnits="userSpaceOnUse">
<stop stop-color="#9930DF"/>
<stop offset="0.506953" stop-color="#C0448F"/>
<stop offset="1" stop-color="#F15C3B"/>
</linearGradient>
</defs>
</svg>
