<svg width="41" height="40" viewBox="0 0 41 40" fill="none" xmlns="http://www.w3.org/2000/svg">
<g id="file-search-02">
<path id="Icon" d="M23.5333 18.3335H13.5333M16.8666 25.0002H13.5333M26.8666 11.6668H13.5333M33.5333 17.5002V11.3335C33.5333 8.53323 33.5333 7.1331 32.9883 6.06354C32.509 5.12273 31.7441 4.35783 30.8033 3.87846C29.7337 3.3335 28.3336 3.3335 25.5333 3.3335H14.8666C12.0664 3.3335 10.6662 3.3335 9.59669 3.87846C8.65588 4.35783 7.89097 5.12273 7.41161 6.06354C6.86664 7.1331 6.86664 8.53323 6.86664 11.3335V28.6668C6.86664 31.4671 6.86664 32.8672 7.41161 33.9368C7.89097 34.8776 8.65588 35.6425 9.59669 36.1219C10.6662 36.6668 12.0664 36.6668 14.8666 36.6668H19.3666M36.8666 36.6668L34.3666 34.1668M36.0333 30.0002C36.0333 33.2218 33.4216 35.8335 30.2 35.8335C26.9783 35.8335 24.3666 33.2218 24.3666 30.0002C24.3666 26.7785 26.9783 24.1668 30.2 24.1668C33.4216 24.1668 36.0333 26.7785 36.0333 30.0002Z" stroke="url(#paint0_linear_369_11498)" stroke-width="2" stroke-linecap="round" stroke-linejoin="round"/>
</g>
<defs>
<linearGradient id="paint0_linear_369_11498" x1="6.86664" y1="3.3335" x2="36.9584" y2="14.3654" gradientUnits="userSpaceOnUse">
<stop stop-color="#9930DF"/>
<stop offset="0.506953" stop-color="#C0448F"/>
<stop offset="1" stop-color="#F15C3B"/>
</linearGradient>
</defs>
</svg>
