<svg width="41" height="40" viewBox="0 0 41 40" fill="none" xmlns="http://www.w3.org/2000/svg">
<path d="M34.0002 20.8335V11.3335C34.0002 8.53323 34.0002 7.1331 33.4552 6.06354C32.9758 5.12273 32.2109 4.35783 31.2701 3.87846C30.2006 3.3335 28.8004 3.3335 26.0002 3.3335H15.3335C12.5332 3.3335 11.1331 3.3335 10.0635 3.87846C9.12273 4.35783 8.35783 5.12273 7.87846 6.06354C7.3335 7.1331 7.3335 8.53323 7.3335 11.3335V28.6668C7.3335 31.4671 7.3335 32.8672 7.87846 33.9368C8.35783 34.8776 9.12273 35.6425 10.0635 36.1219C11.1331 36.6668 12.5332 36.6668 15.3335 36.6668H20.6668M24.0002 18.3335H14.0002M17.3335 25.0002H14.0002M27.3335 11.6668H14.0002M24.8335 31.6668L28.1668 35.0002L35.6668 27.5002" stroke="url(#paint0_linear_493_2246)" stroke-width="2" stroke-linecap="round" stroke-linejoin="round"/>
<defs>
<linearGradient id="paint0_linear_493_2246" x1="7.3335" y1="3.3335" x2="36.1219" y2="13.3012" gradientUnits="userSpaceOnUse">
<stop stop-color="#9930DF"/>
<stop offset="0.506953" stop-color="#C0448F"/>
<stop offset="1" stop-color="#F15C3B"/>
</linearGradient>
</defs>
</svg>
