<svg width="41" height="40" viewBox="0 0 41 40" fill="none" xmlns="http://www.w3.org/2000/svg">
<g id="flag-05">
<path id="Icon" d="M24.3186 11.2035H34.3674C35.1129 11.2035 35.4856 11.2035 35.7036 11.3602C35.8938 11.4969 36.0176 11.7074 36.0448 11.9401C36.076 12.2068 35.8949 12.5326 35.5329 13.1843L33.0836 17.593C32.9524 17.8293 32.8867 17.9475 32.861 18.0726C32.8382 18.1834 32.8382 18.2976 32.861 18.4084C32.8867 18.5335 32.9524 18.6517 33.0836 18.888L35.5329 23.2967C35.8949 23.9483 36.076 24.2742 36.0448 24.5409C36.0176 24.7735 35.8938 24.984 35.7036 25.1208C35.4856 25.2775 35.1129 25.2775 34.3674 25.2775H21.7075C20.774 25.2775 20.3073 25.2775 19.9508 25.0959C19.6372 24.9361 19.3822 24.6811 19.2224 24.3675C19.0408 24.011 19.0408 23.5443 19.0408 22.6109V18.2405M12.8834 35.8335L5.84636 7.68538M8.48532 18.2406H21.6519C22.5853 18.2406 23.052 18.2406 23.4086 18.0589C23.7222 17.8991 23.9771 17.6442 24.1369 17.3306C24.3186 16.974 24.3186 16.5073 24.3186 15.5739V6.83317C24.3186 5.89975 24.3186 5.43304 24.1369 5.07652C23.9771 4.76292 23.7222 4.50795 23.4086 4.34816C23.052 4.1665 22.5853 4.1665 21.6519 4.1665H8.3821C7.2179 4.1665 6.6358 4.1665 6.23766 4.40773C5.88871 4.61915 5.62943 4.95123 5.50896 5.34104C5.3715 5.7858 5.51269 6.35052 5.79506 7.47996L8.48532 18.2406Z" stroke="url(#paint0_linear_369_11486)" stroke-width="2" stroke-linecap="round" stroke-linejoin="round"/>
</g>
<defs>
<linearGradient id="paint0_linear_369_11486" x1="5.45583" y1="4.1665" x2="35.5983" y2="16.0281" gradientUnits="userSpaceOnUse">
<stop stop-color="#9930DF"/>
<stop offset="0.506953" stop-color="#C0448F"/>
<stop offset="1" stop-color="#F15C3B"/>
</linearGradient>
</defs>
</svg>
