<svg width="41" height="40" viewBox="0 0 41 40" fill="none" xmlns="http://www.w3.org/2000/svg">
<path d="M22.0001 11.6667L20.1408 7.94819C19.6058 6.87801 19.3382 6.34288 18.939 5.95194C18.586 5.60622 18.1606 5.34329 17.6935 5.18218C17.1654 5 16.5671 5 15.3706 5H9.00008C7.13324 5 6.19982 5 5.48678 5.36331C4.85957 5.68289 4.34964 6.19282 4.03006 6.82003C3.66675 7.53307 3.66675 8.46649 3.66675 10.3333V11.6667M3.66675 11.6667H29.0001C31.8003 11.6667 33.2005 11.6667 34.27 12.2116C35.2108 12.691 35.9757 13.4559 36.4551 14.3967C37.0001 15.4663 37.0001 16.8664 37.0001 19.6667V27C37.0001 29.8003 37.0001 31.2004 36.4551 32.27C35.9757 33.2108 35.2108 33.9757 34.27 34.455C33.2005 35 31.8003 35 29.0001 35H11.6667C8.86649 35 7.46635 35 6.3968 34.455C5.45599 33.9757 4.69108 33.2108 4.21172 32.27C3.66675 31.2004 3.66675 29.8003 3.66675 27V11.6667ZM15.3334 23.3333L20.3334 28.3333M20.3334 28.3333L25.3334 23.3333M20.3334 28.3333V18.3333" stroke="url(#paint0_linear_493_2237)" stroke-width="2" stroke-linecap="round" stroke-linejoin="round"/>
<defs>
<linearGradient id="paint0_linear_493_2237" x1="3.66675" y1="5" x2="35.147" y2="19.2481" gradientUnits="userSpaceOnUse">
<stop stop-color="#9930DF"/>
<stop offset="0.506953" stop-color="#C0448F"/>
<stop offset="1" stop-color="#F15C3B"/>
</linearGradient>
</defs>
</svg>
