<svg width="41" height="40" viewBox="0 0 41 40" fill="none" xmlns="http://www.w3.org/2000/svg">
<g id="graduation-hat-02">
<path id="Icon" d="M28.9333 24.1666V19.1573C28.9333 18.8582 28.9333 18.7086 28.8878 18.5766C28.8475 18.4598 28.7818 18.3535 28.6953 18.2652C28.5976 18.1654 28.4638 18.0985 28.1963 17.9648L20.6 14.1666M7.26665 15.8333V27.1776C7.26665 27.7975 7.26665 28.1074 7.36335 28.3788C7.44883 28.6187 7.58815 28.8358 7.77062 29.0134C7.97701 29.2144 8.25877 29.3436 8.82224 29.6018L19.4889 34.4907C19.8976 34.678 20.102 34.7717 20.3149 34.8087C20.5035 34.8414 20.6964 34.8414 20.8851 34.8087C21.098 34.7717 21.3023 34.678 21.7111 34.4907L32.3777 29.6018C32.9412 29.3436 33.223 29.2144 33.4294 29.0134C33.6118 28.8358 33.7511 28.6187 33.8366 28.3788C33.9333 28.1074 33.9333 27.7975 33.9333 27.1776V15.8333M3.93332 14.1666L20.0037 6.13142C20.2223 6.0221 20.3317 5.96744 20.4463 5.94593C20.5479 5.92688 20.6521 5.92688 20.7537 5.94593C20.8683 5.96744 20.9776 6.0221 21.1963 6.13142L37.2667 14.1666L21.1963 22.2018C20.9776 22.3111 20.8683 22.3658 20.7537 22.3873C20.6521 22.4063 20.5479 22.4063 20.4463 22.3873C20.3317 22.3658 20.2223 22.3111 20.0037 22.2018L3.93332 14.1666Z" stroke="url(#paint0_linear_369_11490)" stroke-width="2" stroke-linecap="round" stroke-linejoin="round"/>
</g>
<defs>
<linearGradient id="paint0_linear_369_11490" x1="3.93332" y1="5.93164" x2="35.0044" y2="20.529" gradientUnits="userSpaceOnUse">
<stop stop-color="#9930DF"/>
<stop offset="0.506953" stop-color="#C0448F"/>
<stop offset="1" stop-color="#F15C3B"/>
</linearGradient>
</defs>
</svg>
