<svg width="20" height="20" viewBox="0 0 20 20" fill="none" xmlns="http://www.w3.org/2000/svg">
<g id="info-octagon" clip-path="url(#clip0_829_4509)">
<path id="Icon" d="M9.99984 13.3334V10.0001M9.99984 6.66675H10.0082M1.6665 7.10237V12.8978C1.6665 13.1016 1.6665 13.2035 1.68953 13.2994C1.70994 13.3845 1.74361 13.4658 1.7893 13.5403C1.84084 13.6244 1.9129 13.6965 2.05703 13.8406L6.15931 17.9429C6.30344 18.087 6.3755 18.1591 6.4596 18.2106C6.53416 18.2563 6.61545 18.29 6.70048 18.3104C6.79638 18.3334 6.8983 18.3334 7.10212 18.3334H12.8976C13.1014 18.3334 13.2033 18.3334 13.2992 18.3104C13.3842 18.29 13.4655 18.2563 13.5401 18.2106C13.6242 18.1591 13.6962 18.087 13.8404 17.9429L17.9426 13.8406C18.0868 13.6965 18.1588 13.6244 18.2104 13.5403C18.2561 13.4658 18.2897 13.3845 18.3101 13.2994C18.3332 13.2035 18.3332 13.1016 18.3332 12.8978V7.10237C18.3332 6.89854 18.3332 6.79663 18.3101 6.70072C18.2897 6.61569 18.2561 6.5344 18.2104 6.45984C18.1588 6.37575 18.0868 6.30368 17.9426 6.15956L13.8404 2.05727C13.6962 1.91315 13.6242 1.84108 13.5401 1.78955C13.4655 1.74386 13.3842 1.71019 13.2992 1.68977C13.2033 1.66675 13.1014 1.66675 12.8976 1.66675H7.10212C6.8983 1.66675 6.79638 1.66675 6.70048 1.68977C6.61545 1.71019 6.53416 1.74386 6.4596 1.78955C6.3755 1.84108 6.30344 1.91315 6.15931 2.05727L2.05703 6.15956C1.9129 6.30368 1.84084 6.37575 1.7893 6.45984C1.74361 6.5344 1.70994 6.61569 1.68953 6.70072C1.6665 6.79663 1.6665 6.89854 1.6665 7.10237Z" stroke="#424242" stroke-width="2" stroke-linecap="round" stroke-linejoin="round"/>
</g>
<defs>
<clipPath id="clip0_829_4509">
<rect width="20" height="20" fill="white"/>
</clipPath>
</defs>
</svg>
