<svg width="89" height="88" viewBox="0 0 89 88" fill="none" xmlns="http://www.w3.org/2000/svg">
<g id="message-chat-circle">
<path id="Icon" d="M22.846 41.1724C22.6181 39.7037 22.4999 38.199 22.4999 36.6668C22.4999 20.4665 35.7193 7.3335 52.0262 7.3335C68.3331 7.3335 81.5525 20.4665 81.5525 36.6668C81.5525 40.3264 80.878 43.8295 79.6456 47.06C79.3897 47.7309 79.2617 48.0664 79.2036 48.3283C79.146 48.5878 79.1238 48.7704 79.1175 49.0361C79.1112 49.3044 79.1476 49.5998 79.2203 50.1907L80.6965 62.1814C80.8563 63.4794 80.9361 64.1285 80.7202 64.6003C80.5311 65.0137 80.195 65.3421 79.7774 65.5217C79.3007 65.7267 78.6537 65.6318 77.3597 65.4421L65.6804 63.7302C65.0706 63.6408 64.7656 63.5961 64.4879 63.5977C64.2132 63.5992 64.0231 63.6195 63.7543 63.676C63.4825 63.7332 63.1353 63.8632 62.441 64.1233C59.2022 65.3364 55.6922 66.0002 52.0262 66.0002C50.4929 66.0002 48.9868 65.884 47.5165 65.6602M28.4825 80.6668C39.3538 80.6668 48.1667 71.6379 48.1667 60.5002C48.1667 49.3624 39.3538 40.3335 28.4825 40.3335C17.6112 40.3335 8.79829 49.3624 8.79829 60.5002C8.79829 62.739 9.15438 64.8926 9.81172 66.9048C10.0896 67.7554 10.2285 68.1807 10.2741 68.4713C10.3217 68.7746 10.3301 68.9449 10.3123 69.2515C10.2954 69.5451 10.2219 69.8769 10.075 70.5406L7.83337 80.6668L18.8143 79.1672C19.4137 79.0853 19.7134 79.0444 19.9751 79.0461C20.2506 79.048 20.3969 79.0629 20.6671 79.1168C20.9238 79.168 21.3053 79.3026 22.0684 79.572C24.0789 80.2815 26.2368 80.6668 28.4825 80.6668Z" stroke="url(#paint0_linear_649_1146)" stroke-width="4" stroke-linecap="round" stroke-linejoin="round"/>
</g>
<defs>
<linearGradient id="paint0_linear_649_1146" x1="7.83337" y1="7.3335" x2="79.6706" y2="36.7498" gradientUnits="userSpaceOnUse">
<stop stop-color="#9930DF"/>
<stop offset="0.506953" stop-color="#C0448F"/>
<stop offset="1" stop-color="#F15C3B"/>
</linearGradient>
</defs>
</svg>
