<svg width="24" height="24" viewBox="0 0 24 24" fill="none" xmlns="http://www.w3.org/2000/svg">
<g clip-path="url(#clip0_171_8743)">
<path d="M12.0662 12.3868C15.4874 12.3857 18.2585 9.61126 18.2574 6.1912C18.2563 2.77004 15.4819 -0.00110327 12.0618 3.29515e-07C8.64176 0.00110393 5.86952 2.77556 5.87062 6.19561C5.87504 9.61457 8.64728 12.3846 12.0662 12.3868ZM12.0662 3.63085C13.4833 3.63085 14.6321 4.77969 14.6321 6.19672C14.6321 7.61374 13.4833 8.76149 12.0662 8.76149C10.6492 8.76149 9.50037 7.61264 9.50037 6.19561C9.50257 4.77969 10.6503 3.63195 12.0662 3.63085ZM14.5703 17.4402C15.845 17.1511 17.0611 16.6467 18.168 15.9503C19.0112 15.4063 19.254 14.2828 18.7099 13.4396C18.1747 12.6097 17.0733 12.3592 16.2323 12.8768C13.6819 14.4715 10.4439 14.4715 7.89352 12.8768C7.04706 12.346 5.92911 12.5998 5.39607 13.4452C4.86083 14.2916 5.11245 15.4129 5.96001 15.9481C5.96112 15.9481 5.96222 15.9492 5.96222 15.9492C7.06803 16.6445 8.2842 17.1488 9.55775 17.4391L6.09465 20.9022C5.4049 21.6306 5.43691 22.7805 6.16639 23.4703C6.86717 24.1324 7.96195 24.1324 8.66273 23.4703L12.064 20.0668L15.4675 23.4703C16.176 24.1777 17.3227 24.1777 18.0312 23.4703C18.7386 22.7618 18.7386 21.6151 18.0312 20.9066L14.5703 17.4402Z" fill="#EB722E"/>
</g>
<defs>
<clipPath id="clip0_171_8743">
<rect width="24" height="24" fill="white"/>
</clipPath>
</defs>
</svg>
