<svg width="41" height="40" viewBox="0 0 41 40" fill="none" xmlns="http://www.w3.org/2000/svg">
<path d="M23.7495 10.0002C25.3774 10.3178 26.8735 11.1139 28.0463 12.2867C29.2191 13.4595 30.0152 14.9556 30.3328 16.5835M23.7495 3.3335C27.1316 3.70922 30.2855 5.22379 32.6932 7.62851C35.101 10.0332 36.6195 13.1852 36.9995 16.5668M17.3778 23.1053C15.3752 21.1026 13.7939 18.8382 12.6339 16.4222C12.5341 16.2144 12.4842 16.1105 12.4459 15.979C12.3097 15.5117 12.4075 14.938 12.6909 14.5423C12.7706 14.4309 12.8659 14.3357 13.0564 14.1451C13.6391 13.5625 13.9304 13.2711 14.1209 12.9782C14.8392 11.8733 14.8392 10.449 14.1209 9.34422C13.9304 9.05125 13.6391 8.75992 13.0564 8.17724L12.7316 7.85245C11.8459 6.96672 11.403 6.52385 10.9274 6.28327C9.98142 5.80482 8.86431 5.80482 7.91837 6.28327C7.44274 6.52385 6.99987 6.96672 6.11413 7.85245L5.85141 8.11518C4.9687 8.99788 4.52735 9.43924 4.19027 10.0393C3.81624 10.7051 3.5473 11.7393 3.54957 12.503C3.55162 13.1912 3.68513 13.6616 3.95214 14.6023C5.38709 19.658 8.09455 24.4286 12.0745 28.4086C16.0545 32.3885 20.8251 35.096 25.8807 36.531C26.8215 36.798 27.2919 36.9315 27.9801 36.9335C28.7438 36.9358 29.778 36.6669 30.4438 36.2928C31.0439 35.9557 31.4852 35.5144 32.3679 34.6317L32.6306 34.369C33.5164 33.4832 33.9592 33.0404 34.1998 32.5647C34.6783 31.6188 34.6783 30.5017 34.1998 29.5557C33.9592 29.0801 33.5164 28.6372 32.6306 27.7515L32.3059 27.4267C31.7232 26.844 31.4318 26.5527 31.1389 26.3622C30.0341 25.6439 28.6098 25.6439 27.5049 26.3622C27.212 26.5527 26.9206 26.844 26.338 27.4267C26.1474 27.6172 26.0522 27.7125 25.9408 27.7922C25.5451 28.0756 24.9713 28.1734 24.5041 28.0372C24.3726 27.9989 24.2687 27.949 24.0609 27.8492C21.6448 26.6892 19.3804 25.1079 17.3778 23.1053Z" stroke="url(#paint0_linear_365_9585)" stroke-width="2" stroke-linecap="round" stroke-linejoin="round"/>
<defs>
<linearGradient id="paint0_linear_365_9585" x1="3.54956" y1="3.3335" x2="36.236" y2="16.5886" gradientUnits="userSpaceOnUse">
<stop stop-color="#9930DF"/>
<stop offset="0.506953" stop-color="#C0448F"/>
<stop offset="1" stop-color="#F15C3B"/>
</linearGradient>
</defs>
</svg>
