<svg width="24" height="24" viewBox="0 0 24 24" fill="none" xmlns="http://www.w3.org/2000/svg">
<path d="M8.37979 8.85335C9.07579 10.303 10.0246 11.6616 11.2262 12.8632C12.4277 14.0648 13.7864 15.0136 15.236 15.7096C15.3607 15.7694 15.423 15.7994 15.5019 15.8224C15.7823 15.9041 16.1265 15.8454 16.364 15.6754C16.4308 15.6275 16.4879 15.5704 16.6022 15.4561C16.9518 15.1064 17.1266 14.9316 17.3024 14.8174C17.9653 14.3864 18.8199 14.3864 19.4828 14.8174C19.6586 14.9316 19.8334 15.1064 20.183 15.4561L20.3778 15.6509C20.9093 16.1824 21.175 16.4481 21.3194 16.7335C21.6064 17.301 21.6064 17.9713 21.3194 18.5389C21.175 18.8242 20.9093 19.09 20.3778 19.6214L20.2202 19.779C19.6906 20.3087 19.4258 20.5735 19.0657 20.7757C18.6662 21.0001 18.0457 21.1615 17.5875 21.1601C17.1746 21.1589 16.8924 21.0788 16.3279 20.9186C13.2945 20.0576 10.4322 18.4332 8.04417 16.0452C5.65619 13.6572 4.03172 10.7948 3.17075 7.76144C3.01054 7.19699 2.93044 6.91477 2.92921 6.50182C2.92784 6.0436 3.08921 5.42311 3.31363 5.0236C3.51587 4.66357 3.78069 4.39876 4.31031 3.86913L4.46794 3.7115C4.99939 3.18006 5.26511 2.91433 5.55049 2.76999C6.11805 2.48292 6.78832 2.48292 7.35588 2.76999C7.64126 2.91433 7.90698 3.18006 8.43842 3.7115L8.63329 3.90637C8.9829 4.25597 9.1577 4.43078 9.27199 4.60655C9.70298 5.26945 9.70298 6.12403 9.27198 6.78692C9.1577 6.96269 8.9829 7.1375 8.63329 7.4871C8.51898 7.60142 8.46182 7.65857 8.41398 7.72538C8.24397 7.96281 8.18527 8.30707 8.26699 8.58743C8.28999 8.66632 8.31992 8.72866 8.37979 8.85335Z" stroke="#F15C3B" stroke-width="2" stroke-linecap="round" stroke-linejoin="round"/>
</svg>
