<svg width="40" height="40" viewBox="0 0 40 40" fill="none" xmlns="http://www.w3.org/2000/svg">
<g id="pin-02">
<path id="Icon" d="M13.9613 26.0271L4.5332 35.4552M19.4908 11.0697L16.8893 13.6711C16.6771 13.8833 16.571 13.9894 16.4501 14.0737C16.3428 14.1486 16.2271 14.2105 16.1053 14.2583C15.9681 14.3121 15.8209 14.3415 15.5267 14.4004L9.41921 15.6219C7.83204 15.9393 7.03845 16.098 6.66718 16.5165C6.34374 16.881 6.19604 17.3688 6.26297 17.8515C6.33978 18.4056 6.91205 18.9779 8.05657 20.1224L19.8661 31.9319C21.0107 33.0765 21.5829 33.6487 22.137 33.7255C22.6197 33.7925 23.1075 33.6448 23.4721 33.3213C23.8905 32.9501 24.0492 32.1565 24.3666 30.5693L25.5881 24.4619C25.647 24.1676 25.6764 24.0204 25.7302 23.8832C25.778 23.7615 25.8399 23.6457 25.9148 23.5384C25.9991 23.4175 26.1052 23.3114 26.3174 23.0992L28.9189 20.4977C29.0545 20.3621 29.1224 20.2942 29.1969 20.235C29.2632 20.1824 29.3333 20.1349 29.4068 20.0929C29.4895 20.0457 29.5777 20.0079 29.754 19.9323L33.9113 18.1506C35.1241 17.6308 35.7305 17.3709 36.006 16.951C36.2469 16.5837 36.3331 16.1362 36.2458 15.7058C36.146 15.2135 35.6795 14.747 34.7465 13.8139L26.1746 5.24205C25.2415 4.30901 24.775 3.84249 24.2828 3.7427C23.8523 3.65544 23.4048 3.74162 23.0375 3.98251C22.6176 4.25797 22.3577 4.86439 21.8379 6.07722L20.0562 10.2345C19.9806 10.4108 19.9428 10.499 19.8956 10.5817C19.8536 10.6552 19.8061 10.7253 19.7535 10.7916C19.6943 10.8661 19.6264 10.934 19.4908 11.0697Z" stroke="url(#paint0_linear_410_1424)" stroke-width="2" stroke-linecap="round" stroke-linejoin="round"/>
</g>
<defs>
<linearGradient id="paint0_linear_410_1424" x1="4.5332" y1="3.70947" x2="35.5151" y2="16.3297" gradientUnits="userSpaceOnUse">
<stop stop-color="#9930DF"/>
<stop offset="0.506953" stop-color="#C0448F"/>
<stop offset="1" stop-color="#F15C3B"/>
</linearGradient>
</defs>
</svg>
