<svg width="24" height="24" viewBox="0 0 24 24" fill="none" xmlns="http://www.w3.org/2000/svg">
<path d="M20.9784 6.39047C20.3798 5.79245 19.6002 5.43316 18.7039 5.29564C18.5664 4.39933 18.2071 3.61973 17.6091 3.02122C13.5808 -1.00707 7.04902 -1.00707 3.02073 3.02122C-1.00756 7.04951 -1.00756 13.5813 3.02073 17.6095C3.61924 18.208 4.39885 18.5668 5.29515 18.7048C5.43267 19.6012 5.79197 20.3808 6.38999 20.9788C10.4183 25.0071 16.95 25.0071 20.9784 20.9788C25.0071 16.9505 25.0071 10.4193 20.9784 6.39047Z" fill="url(#paint0_linear_171_8740)"/>
<path d="M9.41246 9.41329C12.4195 6.40626 16.0667 4.89062 18.7043 5.29592C18.5668 4.39962 18.2075 3.62001 17.6095 3.0215C15.2503 0.662346 10.072 2.01527 6.0437 6.04405C2.01541 10.0723 0.661993 15.2507 3.02115 17.6098C3.61966 18.2084 4.39926 18.5672 5.29557 18.7052C4.8893 16.0676 6.40542 12.4204 9.41246 9.41329Z" fill="url(#paint1_radial_171_8740)"/>
<defs>
<linearGradient id="paint0_linear_171_8740" x1="4.47683" y1="18.5828" x2="19.3613" y2="5.55883" gradientUnits="userSpaceOnUse">
<stop stop-color="#0000C9"/>
<stop offset="0.1277" stop-color="#2006C9"/>
<stop offset="0.3216" stop-color="#4A0EC8"/>
<stop offset="0.5106" stop-color="#6B14C8"/>
<stop offset="0.6905" stop-color="#8318C7"/>
<stop offset="0.8578" stop-color="#911BC7"/>
<stop offset="1" stop-color="#961CC7"/>
</linearGradient>
<radialGradient id="paint1_radial_171_8740" cx="0" cy="0" r="1" gradientUnits="userSpaceOnUse" gradientTransform="translate(14.6543 14.8581) rotate(-128.972) scale(9.13449 13.4728)">
<stop stop-color="#0B25CE"/>
<stop offset="0.4859" stop-color="#2C93DB"/>
<stop offset="0.8379" stop-color="#42DCE4"/>
<stop offset="1" stop-color="#4BF9E8"/>
</radialGradient>
</defs>
</svg>
