<svg width="24" height="24" viewBox="0 0 24 24" fill="none" xmlns="http://www.w3.org/2000/svg">
<g clip-path="url(#clip0_171_8733)">
<mask id="mask0_171_8733" style="mask-type:luminance" maskUnits="userSpaceOnUse" x="0" y="0" width="24" height="24">
<path d="M23.8808 0H0.118408V24H23.8808V0Z" fill="white"/>
</mask>
<g mask="url(#mask0_171_8733)">
<path d="M0.118408 11.52C0.118408 6.08942 0.118408 3.37414 1.78877 1.68707C3.45914 0 6.14754 0 11.5243 0H12.4748C17.8517 0 20.5401 0 22.2104 1.68707C23.8808 3.37414 23.8808 6.08942 23.8808 11.52V12.48C23.8808 17.9106 23.8808 20.6259 22.2104 22.3129C20.5401 24 17.8517 24 12.4748 24H11.5243C6.14754 24 3.45914 24 1.78877 22.3129C0.118408 20.6259 0.118408 17.9106 0.118408 12.48V11.52Z" fill="#0082EE"/>
<path d="M12.7621 17.2903C7.34622 17.2903 4.25714 13.5403 4.12842 7.30029H6.8413C6.93041 11.8803 8.93037 13.8203 10.5145 14.2203V7.30029H13.0691V11.2503C14.6334 11.0803 16.2768 9.28029 16.8312 7.30029H19.3858C18.96 9.7403 17.1778 11.5403 15.9105 12.2803C17.1778 12.8803 19.2076 14.4503 19.9799 17.2903H17.168C16.564 15.3903 15.0592 13.9203 13.0691 13.7203V17.2903H12.7621Z" fill="white"/>
</g>
</g>
<defs>
<clipPath id="clip0_171_8733">
<rect width="24" height="24" fill="white" transform="translate(-0.000488281)"/>
</clipPath>
</defs>
</svg>
