<svg width="164" height="92" fill="none" xmlns="http://www.w3.org/2000/svg"><path d="M85.452 12.856A18.63 18.63 0 0067.994-2.986a25.338 25.338 0 00-13.71 3.6C45.92 5.493 42.476 16.858 45.666 25.41a3.214 3.214 0 00-2.698 2.87c0 4.306 5.568 6.446 7.093 3.56 6.56 5.74 20.057 6.485 29.446-1.706 4.568-4.1 6.83-11.234 5.945-17.278zm-12.611.632c-1.41.902-3.666-.123-3.78-1.763a16.292 16.292 0 004.378-2.46 3.042 3.042 0 01-.598 4.223z" fill="#FFF4EE"/><path d="M65.657-9.62c.82 1.6-1.221 3.157-2.952 3.6-3.353.82-6.945.607-10.225 1.714-5.174 1.738-9.84 7.864-8.553 13.513.092.264.114.546.066.82-.117.267-.3.498-.533.673-3.157 3.017-3.28 8.782-.763 12.579-1.992 4.526-5.658 5.51-9.02 7.38A26.076 26.076 0 0021.254 46.09c3.116-1.894 7.184-1.197 10.505.328 3.32 1.525 6.273 3.797 9.717 5.068 6.51 2.386 13.76.82 17.794-3.198 3.05-3.15 3.927-7.725 3.952-12.087a24.68 24.68 0 01-8.2-1.46 16.047 16.047 0 01-4.92-2.902c-1.525 2.886-7.126.746-7.093-3.56a3.28 3.28 0 011.804-2.607 11.291 11.291 0 007.159 2.755c-5.691-.23-1.952-10.75-1.952-13.226a11.3 11.3 0 00-.927-3.838 82.58 82.58 0 0014.63-8.2c2.353-1.64 4.862-3.567 5.74-6.347.877-2.78-.895-6.502-3.806-6.437z" fill="#FFFDA9"/><path d="M56.105 64.96L41.632 48.255a6.716 6.716 0 00-3.674-1.074c.316.026.61.173.82.41l14.473 16.711a1.222 1.222 0 01-.123 1.714l-11.89 10.8a1.205 1.205 0 01-.886.287c.919.426 3.28.754 3.715.368l11.89-10.79a1.221 1.221 0 00.148-1.723z" fill="#A2CCCB"/><path d="M39.549 76.702L25.076 59.99a1.222 1.222 0 01.123-1.722L37.08 47.47a1.238 1.238 0 011.722.123L53.3 64.304a1.222 1.222 0 01-.123 1.713l-11.89 10.8a1.223 1.223 0 01-1.738-.115z" fill="#DFEDED"/><path d="M91.775 46.214a3.117 3.117 0 00-1.722-2.525c-1.116-.46-2.378 0-3.494.483-9.66 4.035-15.145 6.134-21.59 16.089-1.107 4.1-2.214 8.2-2.993 12.3a2.55 2.55 0 00.049 1.64 1.902 1.902 0 002.37.746 5.117 5.117 0 002.025-1.706c2.936-3.632 5.314-7.691 8.25-11.316 2.46-3.058 6.043-7.51 10.2-7.904.254.885.435 1.795.632 2.706.04.274.138.536.287.77 2.386 3.223 5.346-7.232 5.576-8.126a8.397 8.397 0 00.41-3.157z" fill="#FEDAF6"/><path d="M68.97 73.84l9.75-9.52-29.823 15.662a1.492 1.492 0 00-.131 2.624 40.513 40.513 0 0011.094 4.707c1.115-5.445 5.092-9.488 9.11-13.473zm22.41 30.414a20.033 20.033 0 01-5.37 4.518c1.115 7.24 1.197 8.388 2.058 11.185 1.009 3.526 4.018-2.264 4.625-3.682 3.64-8.484 7.279-16.974 10.914-25.47a664.965 664.965 0 01-12.226 13.449z" fill="#FFFDA9"/><path d="M93.332 13.931a2.221 2.221 0 00-.491-1.107c-1.181-1.074-2.74-.23-3.805.96a58.636 58.636 0 00-3.502 3.771c-.484 4.74-2.607 9.545-5.994 12.58a24.551 24.551 0 01-16.621 6.059 36.346 36.346 0 00-.492 2.829A66.256 66.256 0 0049.34 52.922c-.183.212-.302.47-.345.746-.066.763.902 1.181 1.64 1.165 2.017-.05 3.764-1.337 5.355-2.567l6.125-4.74a115.49 115.49 0 001.845 14.326c4.1-7.044 10.98-13.62 18.803-15.892-2.362-1.78-3.207-3.69-3.715-6.609a55.201 55.201 0 01-.558-4.1c4.92-4.428 9.677-9.16 13.12-14.842 1.14-2.009 2.174-4.248 1.722-6.478z" fill="#ABFFE1"/><path d="M59.598 18.457a3.797 3.797 0 100-7.593 3.797 3.797 0 000 7.593z" fill="#FFCECC"/><path d="M83.845 83.68a9.14 9.14 0 00-.574.574 3.157 3.157 0 003.19 2.542l.533-.599a6.117 6.117 0 01-3.149-2.517zm-2.255 2.772c-.226.29-.36.641-.385 1.008a2.46 2.46 0 002.189 1.895 1.968 1.968 0 001.148-.493 3.502 3.502 0 01-2.952-2.41zM82.632 85c-.14.18-.271.36-.402.55a2.305 2.305 0 00.975 1.869 2.689 2.689 0 002.165.574l.394-.426A3.952 3.952 0 0182.632 85zm12.185-13.99a6.265 6.265 0 00-8.06 3.65c-1.05 2.78-.403 6.264-2.19 8.585.113.183.24.359.377.525a19.31 19.31 0 002-2.46c.075-.107.181-.131.165-.36-.017-.23-.246-.452-.345-.649a.892.892 0 01.361-1.27 1.18 1.18 0 011.378.376c.352.452.442 1.042.877 1.436a2.55 2.55 0 001.394.532.738.738 0 01.385 1.214c-.369.386-.967.312-1.443.435a4.452 4.452 0 00-2.46 2.329l.312.106a4.854 4.854 0 013.468-2.042c1.64-.328 3.42-.328 4.92-1.303a6.265 6.265 0 00-1.14-11.103z" fill="#ABFFE1"/><path d="M85.51 84.36c.299.268.626.501.976.698a5.461 5.461 0 012.624-2.649 4.857 4.857 0 011.312-.23c.123 0 .065-.073 0-.082a2.608 2.608 0 01-2.19-1.64 1.855 1.855 0 00-.369-.655c-.484-.402-.27.065-.27.147a1.583 1.583 0 01.344 1.296 17.57 17.57 0 01-2.427 3.116z" fill="#ABFFE1"/><path d="M123.353 65.763a24 24 0 01-23.78-22.034L68.97 73.84c-3.46 3.404-6.994 6.97-8.634 11.53a17.924 17.924 0 003.026 16.843 21.913 21.913 0 0015.514 7.749 14.76 14.76 0 007.044-1.173 20.03 20.03 0 005.46-4.567 641.297 641.297 0 0033.276-38.54 7.675 7.675 0 01-1.303.082zM92.66 57.932c.115-.517.919-.295.82.221a15.66 15.66 0 000 6.126c.074.516-.713.73-.82.213a15.524 15.524 0 010-6.56zm3.903 24.748a9.775 9.775 0 01-4.534 1.41c-1.131.08-2.22.46-3.157 1.099-.82.672-.738 1.377-3.666 4.165-1.508 1.64-4.1.599-4.788-1.476-.296-1.115.623-2.156 1.23-2.976 1.64-2.305 2.27-1.845 2.853-3.338.443-1.4.719-2.848.82-4.313.238-3.526 2.386-6.642 5.937-7.38a7.077 7.077 0 018.29 5.609 7.266 7.266 0 01-2.977 7.2h-.008zm5.117-14.236l4.723-4.403c.386-.36.968.221.582.582l-4.731 4.403c-.418.361-1-.22-.574-.582zm9.963 8.856c-2.394 1.075-6.232.91-5.986 0a.42.42 0 01.517-.303 7.568 7.568 0 005.059-.36.404.404 0 01.326-.07.404.404 0 01.27.195.404.404 0 01.036.33.422.422 0 01-.222.25V77.3z" fill="#ABFFE1"/><path d="M140.22 21.532c-4.231-.09-28.946 10.57-35.317 13.12a9.655 9.655 0 00-3.018 1.583c-2.19 1.738-2.534 4.92-2.28 7.708a24.005 24.005 0 0023.781 21.82 7.879 7.879 0 004.542-1.058c1.64-1.131 2.46-3.19 3.067-5.092 2.157-6.56 13.719-33.792 11.037-37.367a2.197 2.197 0 00-1.812-.714z" fill="#FEDAF6"/><path d="M108.421 21.975a1.536 1.536 0 01-1.591-.328 1.766 1.766 0 01-.295-.886l-.361-2.337c-.312 2.682-.82 4.338-3.526 4.338.89.035 1.764.253 2.566.64a2.362 2.362 0 011.296 2.099 4.29 4.29 0 013.551-3.821c-.56 0-1.116.1-1.64.295z" fill="#FFE7AB"/><path d="M110.093 21.27c-1.509-.05-1.796.656-2.796.238-.402-.255-.385-.96-.443-1.378l-.254-1.828c-.082-.492-.763-.304-.82.114-.328 2.33-.623 3.92-3.132 3.928-.542 0-.509.763 0 .82 1.353.156 3.526.55 3.485 2.353 0 .534.762.525.82 0a3.9 3.9 0 013.28-3.427c.467-.082.287-.73-.14-.82zm-3.591 2.747a3.444 3.444 0 00-2.018-1.353c1.64-.935 1.222-1.361 1.567-2.263l.049.32a1.944 1.944 0 00.689 1.45c.241.17.525.267.82.28-.474.44-.851.973-1.107 1.566z" fill="#EFAC54"/><path d="M124.279 92.216a2.641 2.641 0 01-1.943-1.96 7.807 7.807 0 01-.074-2.894c-.566 3.001-1.419 5.486-4.526 5.535l2.591 1.345c.39.154.711.446.902.82.262.697-.304 1.787.385 2.066a4.85 4.85 0 014.781-4.608c-.574-.451-1.402-.18-2.116-.304z" fill="#FFE7AB"/><path d="M126.584 92.142a2.552 2.552 0 00-1.583-.328 2.018 2.018 0 01-1.64-.55c-1.033-1.008-.82-2.615-.713-3.927.049-.46-.722-.558-.82-.107a17.896 17.896 0 01-1.329 4.026 3.93 3.93 0 01-2.763 1.206.41.41 0 00-.213.763l1.894 1c.443.23 1.279.492 1.435 1.033.221.746-.386 1.73.541 2.198a.41.41 0 00.615-.353 4.402 4.402 0 014.371-4.198.412.412 0 00.391-.304.41.41 0 00-.186-.46zm-4.92 3.034a1.651 1.651 0 00-.378-.746 5.802 5.802 0 00-1.459-.894l-.82-.434a3.642 3.642 0 002.87-3.01 3.08 3.08 0 002.312 2.534 5.278 5.278 0 00-2.525 2.534v.016z" fill="#EFAC54"/><path d="M48.036 50.06l-3.485 3.017 1.074 1.214 2.132-1.845a.516.516 0 01.73.05l2.886 3.304a.607.607 0 01-.057.82L49.2 58.457l1.066 1.221 3.485-2.992a.59.59 0 00.066-.82l-4.97-5.74a.574.574 0 00-.811-.066z" fill="#DFEDED"/><path d="M61.935 9.224a1.976 1.976 0 101.968 1.968 1.968 1.968 0 00-1.968-1.968zm9.774 5.01a2.969 2.969 0 002.747-3.034 3.575 3.575 0 00-.476-1.902.401.401 0 00-.057-.476c-.221-.221-.46-.114-.672.058a15.432 15.432 0 01-4.297 2.46.443.443 0 00-.304.393 2.928 2.928 0 003.059 2.501zm1.64-4.403a2.74 2.74 0 01-.123 2.755 2.108 2.108 0 01-3.674-.598 17.376 17.376 0 003.789-2.157h.008z" fill="#5E503B"/><path d="M142.573 22.336c-1.082-1.804-3.517-1.238-5.567-.59-9.275 2.935-15.785 5.74-29.922 11.545-1.837.754-3.953 1.328-5.486 2.616-2.181 1.828-2.608 4.92-2.46 7.659l-7.987 7.871a44.35 44.35 0 00.599-2.033c.434-1.64.82-3.543-.246-5.043-1.066-1.5-2.805-1.525-4.412-.935a108.24 108.24 0 00-4.616 1.837c-1.55-1.312-2.698-3.133-3.116-6.24a54.126 54.126 0 01-.484-3.625c4.682-4.165 9.135-8.626 12.505-13.94a14.588 14.588 0 002.386-5.412c.222-1.484.107-3.796-1.771-4.1-1.878-.303-3.19 1.435-4.305 2.608a37.426 37.426 0 00-1.64 1.804A19.016 19.016 0 0069.889-3.24c.82-3.124-1.156-6.79-4.231-6.781a.418.418 0 00-.361.615c.672 1.467-1.435 2.673-2.567 2.96-4.469 1.148-6.814.393-10.881 1.935-5.109 1.984-9.545 8.069-8.29 13.866a.951.951 0 010 .763 14.08 14.08 0 00-1.083 1.221c-2.32 3.018-2.624 8.274-.221 12.054-1.386 2.953-3.707 4.396-6.659 5.847a26.708 26.708 0 00-11.193 9.34 26.026 26.026 0 00-3.517 7.38.41.41 0 00.598.46c4.256-2.46 9.455-.337 13.653 2.262l-10.209 9.274a1.64 1.64 0 00-.164 2.305l14.473 16.711c.262.293.62.482 1.009.533.86.37 3.427.82 4.1.27l11.882-10.782a1.64 1.64 0 00.196-2.296l-4.846-5.617 2.46-2.116a1.009 1.009 0 00.082-1.37l-.902-1.032c1.788-.935 4.1-2.854 8.479-6.257.373 4.584.992 9.144 1.853 13.661a.41.41 0 00.468.287c-.886 3.28-1.73 6.56-2.403 9.988a2.996 2.996 0 00-.131.656L48.716 79.58a1.887 1.887 0 00-.443 3.14c.741.55 1.538 1.02 2.378 1.403a40.527 40.527 0 008.635 3.41c-2.1 10.497 5.797 21.321 18.122 22.772 2.491.371 5.034.172 7.438-.582.284-.115.557-.238.82-.369.82 5.437.95 6.864 1.951 10.39.246 1.64 1.468 2.501 3.075.705 1.993-2.231 2.944-5.297 4.1-7.995l9.184-21.484a610.53 610.53 0 0020.82-24.904 12.527 12.527 0 002.042-.418c2.829-1.008 3.78-3.813 4.69-6.404 2.46-7.027 9.963-24.699 11.209-33.743a6.15 6.15 0 00-.164-3.165zm-54.16-7.38a12.392 12.392 0 011.951-1.796c.697-.443 1.812-.664 2.304.197.36.843.443 1.78.238 2.673a14.622 14.622 0 01-2.23 5.035c-3.207 4.731-6.027 8.052-11.866 13.308a50.85 50.85 0 01-.164-2.952 19.538 19.538 0 002.46-2.238 20.114 20.114 0 004.92-11.53c.722-.934 1.542-1.82 2.386-2.697zm-3.33-1.796c.55 4.574-.467 9.2-2.886 13.12-6.322 10.094-22.96 12.71-31.652 5.486.059-.15.105-.303.14-.46.098-.516-.706-.738-.82-.22a2.239 2.239 0 01-2.666 1.64c-2.5-.526-4.616-2.994-3.567-5.38a2.53 2.53 0 011.066-1.18 11.734 11.734 0 007.528 2.68.41.41 0 000-.82 2.59 2.59 0 01-2.46-1.287 6.362 6.362 0 01-.566-3.157c.377-4.92 1.156-6.806 1.197-8.38a11.02 11.02 0 00-.82-3.625A86.098 86.098 0 0063.42 3.886c2.263-1.583 5.084-3.65 6.19-6.306a18.237 18.237 0 0115.474 15.58zm-43 .328a7.135 7.135 0 011.098-1.845c.427-.517 1.124-.951 1.23-1.64.05-.82-.213-.968-.27-2.214-.287-5.06 4.026-10.414 8.815-11.8 4.788-1.386 8.478-.566 11.332-2.206 1.09-.623 2.1-1.64 1.935-2.927 2.944.558 4.264 5.289 1.493 8.34a24.306 24.306 0 01-5.068 4.206A84.457 84.457 0 0148.84 10.97a.402.402 0 00-.188.46c2.082 4.387-.14 6.461-.255 12.43a6.781 6.781 0 00.69 3.33c.108.181.235.352.377.508a10.658 10.658 0 01-7.38-14.226v.016zM21.927 45.279a25.846 25.846 0 017.79-11.422 31.218 31.218 0 016.56-4.051c2.796-1.394 5.051-2.928 6.478-5.69.39.529.827 1.022 1.304 1.475a3.764 3.764 0 00-1.419 3.575 5.403 5.403 0 005.355 4.404 2.87 2.87 0 002.214-1.157 20.402 20.402 0 0012.111 4.183 34.305 34.305 0 00-.36 2.205 67.575 67.575 0 00-11.768 12.227L49.2 49.87a.993.993 0 00-1.386-.156l-2.46 2.157c-3.583-4.1-3.378-3.903-3.46-3.96-1.288-.82-3.944-1.64-5.051-.747l-1.058.968c-4.256-2.559-9.38-4.855-13.858-2.854zm28.355 9.906l.771.902a.18.18 0 010 .246l-1.033.927-3.067-3.535 1.115-.967a.1.1 0 01.074-.034.1.1 0 01.074.034l.476.55c-.312 1 .574 1.811 1.59 1.877zm-3.993-.927l3.067 3.543-.402.344a.402.402 0 00-.131.394l-3.346-3.863a.435.435 0 00.419-.073l.393-.345zm-6.781-6.478a6.267 6.267 0 011.853.82l3.33 3.846c-.452.394-.534.427-.55.64-.017.213.557.689-4.633-5.306zm.344 28.651L25.42 59.72a.82.82 0 01.09-1.148l11.833-10.79a.82.82 0 011.123.081L52.94 64.574a.82.82 0 01-.09 1.14L41 76.504a.82.82 0 01-1.148-.073zM55.76 65.23a.82.82 0 01-.115 1.148L43.805 77.16a5.23 5.23 0 01-2.198-.107L53.415 66.32a1.64 1.64 0 00.172-2.287l-3.444-3.97a.41.41 0 00.41-.073l.402-.344 4.805 5.584zm-2.255-8.856l-3.173 2.706-.525-.607 1.787-1.55a1.016 1.016 0 00.066-1.37l-2.87-3.328a.927.927 0 00-1.304-.09l-1.82 1.582-.566-.599c1.853-1.64 3.034-2.64 3.19-2.763a.164.164 0 01.238 0l4.92 5.74a.172.172 0 01.057.279zm9.02-8.684l3.28-2.51c.418-.319-.164-.893-.574-.573-11.324 8.733-11.11 8.667-12.579 9.258l-1.919-2.214a66.233 66.233 0 0113.063-13.26.46.46 0 00.082-.623c-.279-.41-.574 0-.943.287.074-.484.164-.968.262-1.443a24.789 24.789 0 0014.638-4.592c.105 2.54.379 5.072.82 7.577.201 1.3.608 2.559 1.205 3.73a9.567 9.567 0 002.025 2.46c-7.38 2.46-13.604 8.307-17.679 14.908a113.299 113.299 0 01-1.69-13.005h.01zm.312 22.657c.746-3.403 1.64-6.65 2.558-10.07 3.993-6.2 10.463-11.857 17.425-13.94a.418.418 0 00.287-.46 97.65 97.65 0 002.329-.942c1.361-.533 3.28-1.73 4.74-.82 1.46.91 1.27 2.927.934 4.37a40.397 40.397 0 01-1.328 4.322l-3.879 3.813c-.27-.927-.385-1.91-.656-2.845a.41.41 0 00-.393-.304c-2.846.304-5.2 2.165-7.142 4.15-3.805 4.1-5.544 6.895-8.61 11.258l-6.725 3.534c.123-.689.304-1.386.451-2.066h.009zm15.58-6.33l-7.75 4.083a110.346 110.346 0 015.987-7.954c2.041-2.386 4.65-5.232 7.946-5.74.188.77.459 2.296.664 2.845l-6.847 6.765zM49.487 82.58a2.31 2.31 0 01-.918-.713 1.155 1.155 0 01.557-1.55c.312-.148-2.575 1.361 27.24-14.3-9.659 9.511-10.61 10.306-13.12 13.43a19.943 19.943 0 00-3.78 7.38 40.444 40.444 0 01-9.979-4.247zm40.607 37.286c-.46.713-1.157 1.262-1.526.319-.967-2.738-1.394-6.625-2.099-11.217a17.335 17.335 0 004.395-3.559c3.78-4.182 7.635-8.241 11.374-12.44-9.857 23.01-10.398 24.83-12.144 26.897zm3.862-18.967c-1.755 1.968-3.56 3.895-5.486 5.74a11.76 11.76 0 01-6.896 2.993 21.448 21.448 0 01-13.276-3.387c-8.012-5.092-11.291-15.932-5.83-24.198 2.615-3.985 1.541-2.69 36.801-37.384a24.346 24.346 0 0022.665 21.5c.588.073 1.18.1 1.771.083-13.989 17.433-23.739 27.88-29.75 34.653zm48.076-76.588c-.451 7.905-9.208 28.872-10.594 32.882-.566 1.64-1.132 3.28-1.829 4.83a5.42 5.42 0 01-3.378 2.993 14.4 14.4 0 01-4.92.205 23.932 23.932 0 01-20.59-17.622c-.73-2.82-1.206-6.2 0-8.963a5.987 5.987 0 013.189-3.083c.533-.287 21.665-8.856 25.568-10.316 5.322-2 10.775-4.346 12.3-2.64a3.84 3.84 0 01.254 1.714z" fill="#5E503B"/><path d="M134.415 63.746c-12.12 13.702-19.369 22.394-26.814 31.414-.337.402.246.992.582.582 9.635-11.718 17.761-21.066 26.847-31.381.344-.394-.23-.976-.583-.583l-.032-.032zm7.921-3.592a208.924 208.924 0 01-16.154 18.991c-.369.378.213.96.574.583a204.71 204.71 0 0016.293-19.123c.32-.418-.394-.82-.713-.41v-.04zM49.29 88.223c-6.289 7.642-22.853 26.97-24.69 29.077-.352.394.23.976.574.582 6.56-7.47 22.96-26.929 24.731-29.102.296-.385-.278-1-.615-.557zM32.718 99.342c-.36.386.221.968.582.574l13.21-14.194c.361-.385-.22-.968-.582-.582-.008.082.353-.328-13.21 14.202z" fill="#FFFDA9"/><path d="M79.007 8.6a3.797 3.797 0 100-7.593 3.797 3.797 0 000 7.594z" fill="#FFCECC"/><path d="M74.833 6.657a1.976 1.976 0 10-1.976-1.976 1.968 1.968 0 001.976 1.976z" fill="#5E503B"/></svg>