<svg width="41" height="40" fill="none" xmlns="http://www.w3.org/2000/svg"><path d="M35.667 16.667h-30m30 4.166v-6.166c0-2.8 0-4.2-.545-5.27a5 5 0 00-2.185-2.185c-1.07-.545-2.47-.545-5.27-.545h-14c-2.8 0-4.2 0-5.27.545a5 5 0 00-2.185 2.185c-.545 1.07-.545 2.47-.545 5.27v14c0 2.8 0 4.2.545 5.27a5 5 0 002.185 2.185c1.07.545 2.47.545 5.27.545h7m6.666-33.334V10M14 3.333V10m10.833 21.667L28.167 35l7.5-7.5" stroke="url(#paint0_linear_275_8930)" stroke-width="2" stroke-linecap="round" stroke-linejoin="round"/><defs><linearGradient id="paint0_linear_275_8930" x1="5.667" y1="3.333" x2="35.758" y2="14.365" gradientUnits="userSpaceOnUse"><stop stop-color="#9930DF"/><stop offset=".507" stop-color="#C0448F"/><stop offset="1" stop-color="#F15C3B"/></linearGradient></defs></svg>