<svg width="40" height="40" fill="none" xmlns="http://www.w3.org/2000/svg"><g stroke-width="2" stroke-linecap="round" stroke-linejoin="round"><path d="M3.333 12.836a4.503 4.503 0 014.503-4.503c1.292 0 2.44-.827 2.848-2.052l.15-.448c.07-.21.105-.316.142-.41a3.333 3.333 0 012.892-2.084c.1-.006.211-.006.434-.006h11.396c.222 0 .334 0 .434.006a3.333 3.333 0 012.891 2.084c.038.094.073.2.144.41l.149.448a3.002 3.002 0 002.848 2.052 4.503 4.503 0 014.503 4.503V27c0 2.8 0 4.2-.545 5.27a5 5 0 01-2.185 2.185c-1.07.545-2.47.545-5.27.545H11.333c-2.8 0-4.2 0-5.27-.545a5 5 0 01-2.185-2.185c-.545-1.07-.545-2.47-.545-5.27V12.836z" stroke="url(#paint0_linear_514_3083)"/><path d="M20 27.5a7.5 7.5 0 100-15 7.5 7.5 0 000 15z" stroke="url(#paint1_linear_514_3083)"/></g><defs><linearGradient id="paint0_linear_514_3083" x1="3.333" y1="3.333" x2="35.372" y2="17.071" gradientUnits="userSpaceOnUse"><stop stop-color="#9930DF"/><stop offset=".507" stop-color="#C0448F"/><stop offset="1" stop-color="#F15C3B"/></linearGradient><linearGradient id="paint1_linear_514_3083" x1="3.333" y1="3.333" x2="35.372" y2="17.071" gradientUnits="userSpaceOnUse"><stop stop-color="#9930DF"/><stop offset=".507" stop-color="#C0448F"/><stop offset="1" stop-color="#F15C3B"/></linearGradient></defs></svg>