<svg width="20" height="20" fill="none" xmlns="http://www.w3.org/2000/svg"><path fill-rule="evenodd" clip-rule="evenodd" d="M10.2 4.9c-2.928 0-5.603 2.19-7.251 3.94a1.96 1.96 0 000 2.72c1.648 1.75 4.323 3.94 7.251 3.94s5.603-2.19 7.251-3.94a1.96 1.96 0 000-2.72C15.803 7.09 13.128 4.9 10.2 4.9zM1.93 7.88C3.606 6.1 6.64 3.5 10.2 3.5c3.559 0 6.594 2.601 8.27 4.38a3.36 3.36 0 010 4.64c-1.676 1.78-4.71 4.38-8.27 4.38-3.559 0-6.594-2.601-8.27-4.38a3.36 3.36 0 010-4.64zm8.27.449A1.86 1.86 0 008.35 10.2a1.86 1.86 0 001.85 1.871 1.86 1.86 0 001.85-1.871 1.86 1.86 0 00-1.85-1.871zM6.95 10.2c0-1.801 1.45-3.271 3.25-3.271s3.25 1.47 3.25 3.271-1.45 3.271-3.25 3.271-3.25-1.47-3.25-3.271z" fill="url(#paint0_linear_388_5800)"/><defs><linearGradient id="paint0_linear_388_5800" x1="1" y1="3.5" x2="16.948" y2="12.42" gradientUnits="userSpaceOnUse"><stop stop-color="#9930DF"/><stop offset=".507" stop-color="#C0448F"/><stop offset="1" stop-color="#F15C3B"/></linearGradient></defs></svg>