<svg width="41" height="40" fill="none" xmlns="http://www.w3.org/2000/svg"><path d="M23.533 18.334h-10M16.867 25h-3.334m13.334-13.333H13.533m20 5.833v-6.166c0-2.8 0-4.2-.545-5.27a5 5 0 00-2.185-2.186c-1.07-.545-2.47-.545-5.27-.545H14.867c-2.8 0-4.2 0-5.27.545a5 5 0 00-2.185 2.186c-.545 1.07-.545 2.47-.545 5.27v17.333c0 2.8 0 4.2.545 5.27a5 5 0 002.185 2.185c1.07.545 2.47.545 5.27.545h4.5m17.5 0l-2.5-2.5M36.033 30a5.833 5.833 0 11-11.666 0 5.833 5.833 0 0111.666 0z" stroke="url(#paint0_linear_369_11498)" stroke-width="2" stroke-linecap="round" stroke-linejoin="round"/><defs><linearGradient id="paint0_linear_369_11498" x1="6.867" y1="3.333" x2="36.958" y2="14.365" gradientUnits="userSpaceOnUse"><stop stop-color="#9930DF"/><stop offset=".507" stop-color="#C0448F"/><stop offset="1" stop-color="#F15C3B"/></linearGradient></defs></svg>