<svg width="41" height="40" fill="none" xmlns="http://www.w3.org/2000/svg"><path d="M34 20.834v-9.5c0-2.8 0-4.2-.545-5.27a5 5 0 00-2.185-2.186c-1.07-.545-2.47-.545-5.27-.545H15.334c-2.8 0-4.2 0-5.27.545a5 5 0 00-2.186 2.186c-.545 1.07-.545 2.47-.545 5.27v17.333c0 2.8 0 4.2.545 5.27a5 5 0 002.185 2.185c1.07.545 2.47.545 5.27.545h5.334M24 18.333H14M17.334 25H14m13.334-13.333H14m10.834 20L28.166 35l7.5-7.5" stroke="url(#paint0_linear_493_2246)" stroke-width="2" stroke-linecap="round" stroke-linejoin="round"/><defs><linearGradient id="paint0_linear_493_2246" x1="7.333" y1="3.333" x2="36.122" y2="13.301" gradientUnits="userSpaceOnUse"><stop stop-color="#9930DF"/><stop offset=".507" stop-color="#C0448F"/><stop offset="1" stop-color="#F15C3B"/></linearGradient></defs></svg>