<svg width="40" height="40" fill="none" xmlns="http://www.w3.org/2000/svg"><g stroke-width="2" stroke-linecap="round" stroke-linejoin="round"><path d="M13.5 35.368a20.265 20.265 0 01-3.68-11.67c0-5.624 4.557-10.182 10.178-10.182 5.62 0 10.177 4.558 10.177 10.182" stroke="url(#paint0_linear_410_1435)"/><path d="M13.5 35.368a20.266 20.266 0 01-3.679-11.67c0-5.624 4.557-10.182 10.177-10.182 5.62 0 10.177 4.558 10.177 10.182" stroke="url(#paint1_linear_410_1435)"/><path d="M30.727 33.853c-.183.01-.363.027-.548.027-5.621 0-10.177-4.558-10.177-10.182" stroke="url(#paint2_linear_410_1435)"/><path d="M30.727 33.853c-.183.01-.363.027-.548.027-5.62 0-10.177-4.558-10.177-10.182" stroke="url(#paint3_linear_410_1435)"/><path d="M22.116 36.667c-4.324-2.697-7.204-7.496-7.204-12.97a5.09 5.09 0 1110.179 0 5.09 5.09 0 1010.178 0c0-8.435-6.835-15.272-15.266-15.272-8.431 0-15.267 6.837-15.267 15.273 0 1.88.21 3.711.598 5.476" stroke="url(#paint4_linear_410_1435)"/><path d="M22.116 36.667c-4.324-2.697-7.204-7.496-7.204-12.97a5.09 5.09 0 1110.179 0 5.09 5.09 0 1010.178 0c0-8.435-6.835-15.272-15.266-15.272-8.431 0-15.267 6.837-15.267 15.273 0 1.88.21 3.711.598 5.476" stroke="url(#paint5_linear_410_1435)"/><path d="M34.21 9.772C30.74 5.83 25.665 3.333 20 3.333c-5.664 0-10.739 2.497-14.209 6.439" stroke="url(#paint6_linear_410_1435)"/><path d="M34.21 9.772C30.74 5.83 25.665 3.333 20 3.333c-5.664 0-10.739 2.497-14.209 6.439" stroke="url(#paint7_linear_410_1435)"/></g><defs><linearGradient id="paint0_linear_410_1435" x1="9.821" y1="13.516" x2="30.067" y2="21.197" gradientUnits="userSpaceOnUse"><stop stop-color="#9930DF"/><stop offset=".507" stop-color="#C0448F"/><stop offset="1" stop-color="#F15C3B"/></linearGradient><linearGradient id="paint1_linear_410_1435" x1="9.821" y1="13.516" x2="30.067" y2="21.197" gradientUnits="userSpaceOnUse"><stop stop-color="#9930DF"/><stop offset=".507" stop-color="#C0448F"/><stop offset="1" stop-color="#F15C3B"/></linearGradient><linearGradient id="paint2_linear_410_1435" x1="20.002" y1="23.698" x2="30.308" y2="28.12" gradientUnits="userSpaceOnUse"><stop stop-color="#9930DF"/><stop offset=".507" stop-color="#C0448F"/><stop offset="1" stop-color="#F15C3B"/></linearGradient><linearGradient id="paint3_linear_410_1435" x1="20.002" y1="23.698" x2="30.308" y2="28.12" gradientUnits="userSpaceOnUse"><stop stop-color="#9930DF"/><stop offset=".507" stop-color="#C0448F"/><stop offset="1" stop-color="#F15C3B"/></linearGradient><linearGradient id="paint4_linear_410_1435" x1="4.736" y1="8.425" x2="33.836" y2="21.239" gradientUnits="userSpaceOnUse"><stop stop-color="#9930DF"/><stop offset=".507" stop-color="#C0448F"/><stop offset="1" stop-color="#F15C3B"/></linearGradient><linearGradient id="paint5_linear_410_1435" x1="4.736" y1="8.425" x2="33.836" y2="21.239" gradientUnits="userSpaceOnUse"><stop stop-color="#9930DF"/><stop offset=".507" stop-color="#C0448F"/><stop offset="1" stop-color="#F15C3B"/></linearGradient><linearGradient id="paint6_linear_410_1435" x1="5.791" y1="3.333" x2="13.431" y2="17.069" gradientUnits="userSpaceOnUse"><stop stop-color="#9930DF"/><stop offset=".507" stop-color="#C0448F"/><stop offset="1" stop-color="#F15C3B"/></linearGradient><linearGradient id="paint7_linear_410_1435" x1="5.791" y1="3.333" x2="13.431" y2="17.069" gradientUnits="userSpaceOnUse"><stop stop-color="#9930DF"/><stop offset=".507" stop-color="#C0448F"/><stop offset="1" stop-color="#F15C3B"/></linearGradient></defs></svg>