<svg width="41" height="40" fill="none" xmlns="http://www.w3.org/2000/svg"><path d="M22 11.667l-1.86-3.719c-.534-1.07-.802-1.605-1.201-1.996a3.333 3.333 0 00-1.245-.77C17.165 5 16.567 5 15.37 5H9c-1.868 0-2.8 0-3.514.363-.627.32-1.137.83-1.457 1.457-.363.713-.363 1.646-.363 3.513v1.334m0 0H29c2.8 0 4.2 0 5.27.545a5 5 0 012.185 2.185c.545 1.07.545 2.47.545 5.27V27c0 2.8 0 4.2-.545 5.27a5 5 0 01-2.185 2.185C33.2 35 31.8 35 29 35H11.667c-2.8 0-4.2 0-5.27-.545a5 5 0 01-2.185-2.185c-.545-1.07-.545-2.47-.545-5.27V11.667zm11.666 11.666l5 5m0 0l5-5m-5 5v-10" stroke="url(#paint0_linear_493_2237)" stroke-width="2" stroke-linecap="round" stroke-linejoin="round"/><defs><linearGradient id="paint0_linear_493_2237" x1="3.667" y1="5" x2="35.147" y2="19.248" gradientUnits="userSpaceOnUse"><stop stop-color="#9930DF"/><stop offset=".507" stop-color="#C0448F"/><stop offset="1" stop-color="#F15C3B"/></linearGradient></defs></svg>