<svg width="405" height="28" fill="none" xmlns="http://www.w3.org/2000/svg"><path d="M5.848 13.732a.316.316 0 01-.296.176c-.08 0-.17-.03-.272-.088a4.764 4.764 0 00-.376-.192 2.869 2.869 0 00-.52-.2 2.402 2.402 0 00-.72-.096c-.24 0-.456.032-.648.096a1.546 1.546 0 00-.496.248 1.167 1.167 0 00-.312.376.996.996 0 00-.104.456.78.78 0 00.176.52c.123.139.283.259.48.36.197.101.421.192.672.272.25.075.507.157.768.248.267.085.525.181.776.288.25.107.475.24.672.4.197.16.355.357.472.592.123.23.184.507.184.832 0 .373-.067.72-.2 1.04-.133.315-.33.59-.592.824-.261.23-.581.41-.96.544-.379.133-.816.2-1.312.2-.565 0-1.077-.09-1.536-.272a3.956 3.956 0 01-1.168-.712l.336-.544a.488.488 0 01.152-.16.41.41 0 01.224-.056c.096 0 .197.037.304.112.107.075.235.157.384.248.155.09.341.173.56.248.219.075.49.112.816.112.277 0 .52-.035.728-.104.208-.075.381-.173.52-.296s.24-.264.304-.424c.07-.16.104-.33.104-.512a.821.821 0 00-.184-.552 1.403 1.403 0 00-.472-.376 3.475 3.475 0 00-.68-.272l-.776-.248c-.261-.085-.52-.181-.776-.288a2.85 2.85 0 01-.672-.416 1.926 1.926 0 01-.48-.608c-.117-.245-.176-.541-.176-.888 0-.31.064-.605.192-.888a2.14 2.14 0 01.56-.752c.245-.219.547-.392.904-.52a3.618 3.618 0 011.224-.192c.533 0 1.01.085 1.432.256.427.165.795.395 1.104.688l-.32.52zm3.546-.16a4.81 4.81 0 01.56-.536c.197-.16.405-.296.624-.408a3.257 3.257 0 011.512-.36c.443 0 .832.075 1.168.224.341.144.624.352.848.624.23.267.402.59.52.968.117.379.176.797.176 1.256v5.16H13.37v-5.16c0-.613-.141-1.088-.424-1.424-.277-.341-.701-.512-1.272-.512-.421 0-.816.101-1.184.304a3.914 3.914 0 00-1.008.824V20.5H8.05v-8.104h.856c.203 0 .328.099.376.296l.112.88zm7.338 6.048c0-.139.024-.27.072-.392.053-.123.122-.23.208-.32a1.024 1.024 0 01.712-.296c.138 0 .27.027.392.08a1.026 1.026 0 01.536.536c.053.123.08.253.08.392a.993.993 0 01-.08.4 1.058 1.058 0 01-.216.312.923.923 0 01-.32.208.973.973 0 01-.392.08.973.973 0 01-.392-.08.921.921 0 01-.32-.208 1.138 1.138 0 01-.208-.312 1.088 1.088 0 01-.072-.4zm8.741-5.888a.316.316 0 01-.296.176c-.08 0-.17-.03-.272-.088a4.764 4.764 0 00-.376-.192 2.868 2.868 0 00-.52-.2 2.402 2.402 0 00-.72-.096c-.24 0-.456.032-.648.096a1.546 1.546 0 00-.496.248 1.167 1.167 0 00-.312.376.996.996 0 00-.104.456.78.78 0 00.176.52c.123.139.283.259.48.36.197.101.421.192.672.272.25.075.507.157.768.248.267.085.525.181.776.288.25.107.475.24.672.4.197.16.355.357.472.592.123.23.184.507.184.832 0 .373-.067.72-.2 1.04-.133.315-.33.59-.592.824-.261.23-.581.41-.96.544-.379.133-.816.2-1.312.2-.565 0-1.077-.09-1.536-.272a3.955 3.955 0 01-1.168-.712l.336-.544a.488.488 0 01.152-.16.41.41 0 01.224-.056c.096 0 .197.037.304.112.107.075.235.157.384.248.155.09.341.173.56.248.219.075.49.112.816.112.277 0 .52-.035.728-.104.208-.075.381-.173.52-.296s.24-.264.304-.424c.07-.16.104-.33.104-.512a.821.821 0 00-.184-.552 1.403 1.403 0 00-.472-.376 3.474 3.474 0 00-.68-.272l-.776-.248c-.261-.085-.52-.181-.776-.288a2.849 2.849 0 01-.672-.416 1.927 1.927 0 01-.48-.608c-.117-.245-.176-.541-.176-.888 0-.31.064-.605.192-.888a2.14 2.14 0 01.56-.752c.245-.219.547-.392.904-.52a3.617 3.617 0 011.224-.192c.533 0 1.01.085 1.432.256.427.165.795.395 1.104.688l-.32.52zm2.73 6.768v-6.888l-.896-.104a.794.794 0 01-.28-.12.307.307 0 01-.104-.248v-.584h1.28v-.784c0-.464.064-.875.192-1.232.133-.363.32-.667.56-.912.245-.25.539-.44.88-.568a3.262 3.262 0 011.152-.192c.363 0 .696.053 1 .16l-.032.712c-.01.128-.083.197-.216.208-.128.01-.302.016-.52.016-.245 0-.47.032-.672.096a1.265 1.265 0 00-.512.312 1.449 1.449 0 00-.336.568 2.91 2.91 0 00-.112.872v.744h2.336v1.032h-2.288V20.5h-1.432zm6.433-6.48c.256-.555.57-.987.944-1.296.374-.315.83-.472 1.368-.472.17 0 .334.019.488.056.16.037.302.096.424.176l-.104 1.064c-.032.133-.112.2-.24.2-.074 0-.184-.016-.328-.048a2.258 2.258 0 00-.488-.048 1.98 1.98 0 00-.688.112 1.621 1.621 0 00-.536.336 2.375 2.375 0 00-.424.544 4.737 4.737 0 00-.336.736v5.12h-1.432v-8.104h.816c.155 0 .262.03.32.088.059.059.099.16.12.304l.096 1.232zm3.611 5.6c0-.139.024-.27.072-.392.054-.123.123-.23.208-.32a1.024 1.024 0 01.712-.296c.139 0 .27.027.392.08a1.026 1.026 0 01.536.536c.054.123.08.253.08.392a.993.993 0 01-.08.4 1.058 1.058 0 01-.216.312.923.923 0 01-.32.208.973.973 0 01-.392.08.973.973 0 01-.392-.08.921.921 0 01-.32-.208 1.138 1.138 0 01-.208-.312 1.088 1.088 0 01-.072-.4zm6.846-3.08c.288 0 .541-.04.76-.12a1.55 1.55 0 00.552-.336 1.38 1.38 0 00.336-.512c.074-.203.112-.424.112-.664 0-.496-.152-.89-.456-1.184-.299-.293-.734-.44-1.304-.44-.576 0-1.016.147-1.32.44-.299.293-.448.688-.448 1.184 0 .24.037.461.112.664a1.47 1.47 0 00.896.848c.218.08.472.12.76.12zm2.568 4.4a.684.684 0 00-.168-.48 1.117 1.117 0 00-.456-.288 2.717 2.717 0 00-.656-.144 11.487 11.487 0 00-.8-.072l-.848-.048a10.021 10.021 0 01-.832-.08 2.248 2.248 0 00-.736.528c-.187.208-.28.453-.28.736 0 .181.045.35.136.504.096.16.24.296.432.408.192.117.432.208.72.272.293.07.637.104 1.032.104a4.66 4.66 0 001.032-.104c.304-.07.56-.168.768-.296.213-.128.376-.28.488-.456.112-.176.168-.37.168-.584zm1.448-8.224v.528c0 .176-.112.288-.336.336l-.92.12c.181.352.272.741.272 1.168 0 .395-.078.755-.232 1.08-.15.32-.358.595-.624.824-.267.23-.587.405-.96.528a3.873 3.873 0 01-1.216.184c-.379 0-.736-.045-1.072-.136a1.39 1.39 0 00-.392.344.584.584 0 00-.136.36c0 .192.077.339.232.44.16.096.368.165.624.208.256.043.546.07.872.08.33.01.666.03 1.008.056.346.021.682.061 1.008.12.33.059.624.155.88.288.256.133.461.317.616.552.16.235.24.539.24.912 0 .347-.088.683-.264 1.008a2.64 2.64 0 01-.744.864 3.73 3.73 0 01-1.2.608c-.47.155-1 .232-1.592.232-.592 0-1.11-.059-1.552-.176a3.635 3.635 0 01-1.104-.472 2.083 2.083 0 01-.664-.688 1.624 1.624 0 01-.216-.808c0-.4.125-.739.376-1.016.25-.277.594-.499 1.032-.664a1.532 1.532 0 01-.576-.424c-.139-.181-.208-.424-.208-.728 0-.117.021-.237.064-.36a1.44 1.44 0 01.192-.376 2.068 2.068 0 01.776-.656c-.4-.224-.712-.52-.936-.888-.224-.373-.336-.805-.336-1.296 0-.395.074-.752.224-1.072.154-.325.368-.6.64-.824.272-.23.594-.405.968-.528a4.003 4.003 0 011.24-.184c.352 0 .68.04.984.12.304.075.581.187.832.336h2.2zm4.763-.448c.592 0 1.126.099 1.6.296.475.197.88.477 1.216.84.336.363.592.803.768 1.32.181.512.272 1.085.272 1.72 0 .64-.09 1.216-.272 1.728a3.64 3.64 0 01-.768 1.312 3.428 3.428 0 01-1.216.84 4.233 4.233 0 01-1.6.288 4.318 4.318 0 01-1.616-.288 3.429 3.429 0 01-1.216-.84 3.742 3.742 0 01-.776-1.312A5.296 5.296 0 0150 16.444c0-.635.088-1.208.264-1.72a3.73 3.73 0 01.776-1.32 3.429 3.429 0 011.216-.84 4.216 4.216 0 011.616-.296zm0 7.232c.8 0 1.398-.267 1.792-.8.395-.539.592-1.288.592-2.248 0-.965-.197-1.717-.592-2.256-.395-.539-.992-.808-1.792-.808-.405 0-.76.07-1.064.208-.298.139-.55.339-.752.6a2.756 2.756 0 00-.448.968 5.255 5.255 0 00-.144 1.288c0 .96.197 1.71.592 2.248.4.533 1.006.8 1.816.8zm12.388-7.104L62.955 20.5h-1.28l-3.303-8.104h1.16a.44.44 0 01.44.296l2.056 5.216c.064.197.12.39.168.576.047.187.093.373.136.56.042-.187.087-.373.136-.56a7 7 0 01.175-.576l2.08-5.216a.44.44 0 01.16-.208.415.415 0 01.264-.088h1.112zm.534 7.224c0-.139.024-.27.072-.392.054-.123.123-.23.208-.32a1.024 1.024 0 01.712-.296c.139 0 .27.027.392.08a1.026 1.026 0 01.536.536c.054.123.08.253.08.392a.993.993 0 01-.08.4 1.058 1.058 0 01-.216.312.923.923 0 01-.32.208.973.973 0 01-.392.08.973.973 0 01-.392-.08.921.921 0 01-.32-.208 1.138 1.138 0 01-.208-.312 1.088 1.088 0 01-.072-.4zm5.374-5.6c.255-.555.57-.987.944-1.296.373-.315.829-.472 1.368-.472.17 0 .333.019.487.056.16.037.302.096.424.176l-.104 1.064c-.032.133-.112.2-.24.2-.074 0-.183-.016-.328-.048a2.258 2.258 0 00-.487-.048 1.98 1.98 0 00-.689.112 1.622 1.622 0 00-.536.336 2.375 2.375 0 00-.424.544 4.737 4.737 0 00-.335.736v5.12h-1.433v-8.104h.817c.154 0 .26.03.32.088.058.059.098.16.12.304l.096 1.232zm11.14-1.624V20.5h-.848c-.203 0-.331-.099-.384-.296l-.112-.872a4.52 4.52 0 01-1.184.944c-.438.235-.939.352-1.504.352-.443 0-.835-.072-1.176-.216a2.372 2.372 0 01-.848-.624 2.681 2.681 0 01-.52-.968 4.418 4.418 0 01-.168-1.256v-5.168h1.424v5.168c0 .613.138 1.088.416 1.424.282.336.712.504 1.288.504.421 0 .813-.099 1.176-.296a3.79 3.79 0 001.016-.832v-5.968h1.424z" fill="url(#paint0_linear_275_9168)"/><g clip-path="url(#clip0_275_9168)" stroke-width="1.5"><circle cx="115" cy="14" r="12.783" stroke="url(#paint1_linear_275_9168)"/><path d="M116.279 17.835L120.114 14m0 0l-3.835-3.835M120.114 14h-10.227" stroke="url(#paint2_linear_275_9168)" stroke-linecap="round" stroke-linejoin="round"/></g><defs><linearGradient id="paint0_linear_275_9168" x1="0" y1="4.5" x2="22.384" y2="45.291" gradientUnits="userSpaceOnUse"><stop stop-color="#9930DF"/><stop offset=".507" stop-color="#C0448F"/><stop offset="1" stop-color="#F15C3B"/></linearGradient><linearGradient id="paint1_linear_275_9168" x1="102.218" y1="1.217" x2="127.168" y2="11.381" gradientUnits="userSpaceOnUse"><stop stop-color="#9930DF"/><stop offset=".507" stop-color="#C0448F"/><stop offset="1" stop-color="#F15C3B"/></linearGradient><linearGradient id="paint2_linear_275_9168" x1="120.114" y1="17.835" x2="117.675" y2="9.853" gradientUnits="userSpaceOnUse"><stop stop-color="#9930DF"/><stop offset=".507" stop-color="#C0448F"/><stop offset="1" stop-color="#F15C3B"/></linearGradient><clipPath id="clip0_275_9168"><path fill="#fff" transform="translate(101)" d="M0 0h28v28H0z"/></clipPath></defs></svg>