<svg width="24" height="24" fill="none" xmlns="http://www.w3.org/2000/svg"><path d="M20.978 6.39c-.598-.598-1.378-.957-2.274-1.094-.138-.897-.497-1.676-1.095-2.275-4.028-4.028-10.56-4.028-14.588 0-4.029 4.029-4.029 10.56 0 14.589.598.598 1.378.957 2.274 1.095.138.896.497 1.676 1.095 2.274 4.028 4.028 10.56 4.028 14.588 0 4.03-4.028 4.03-10.56 0-14.589z" fill="url(#paint0_linear_171_8740)"/><path d="M9.412 9.413c3.007-3.007 6.655-4.522 9.292-4.117-.137-.896-.497-1.676-1.095-2.275C15.25.663 10.073 2.016 6.045 6.045 2.015 10.072.662 15.251 3.02 17.61c.599.598 1.378.957 2.275 1.095-.407-2.637 1.11-6.285 4.116-9.292z" fill="url(#paint1_radial_171_8740)"/><defs><radialGradient id="paint1_radial_171_8740" cx="0" cy="0" r="1" gradientUnits="userSpaceOnUse" gradientTransform="matrix(-5.74505 -7.10164 10.47447 -8.47359 14.654 14.858)"><stop stop-color="#0B25CE"/><stop offset=".486" stop-color="#2C93DB"/><stop offset=".838" stop-color="#42DCE4"/><stop offset="1" stop-color="#4BF9E8"/></radialGradient><linearGradient id="paint0_linear_171_8740" x1="4.477" y1="18.583" x2="19.361" y2="5.559" gradientUnits="userSpaceOnUse"><stop stop-color="#0000C9"/><stop offset=".128" stop-color="#2006C9"/><stop offset=".322" stop-color="#4A0EC8"/><stop offset=".511" stop-color="#6B14C8"/><stop offset=".691" stop-color="#8318C7"/><stop offset=".858" stop-color="#911BC7"/><stop offset="1" stop-color="#961CC7"/></linearGradient></defs></svg>