<svg width="120" height="34" fill="none" xmlns="http://www.w3.org/2000/svg"><rect width="120" height="34" rx="4" fill="#fff"/><path fill-rule="evenodd" clip-rule="evenodd" d="M40.663 20.004a.15.15 0 00-.076-.083.157.157 0 00-.112-.005c-.632.236-1.68.43-2.507.43-1.808 0-2.67-.494-2.67-3.295 0-2.24.265-3.294 2.67-3.294.682 0 1.506.099 2.31.336a.142.142 0 00.167-.072c.223-.496.547-1.299.786-1.89l.093-.231a.145.145 0 00.003-.121.149.149 0 00-.09-.083 11.739 11.739 0 00-3.457-.54c-3.787 0-5.475 1.804-5.475 5.854 0 4.106 1.688 5.938 5.475 5.938.949 0 2.819-.2 3.721-.564a.147.147 0 00.082-.185l-.92-2.195zm-29.292-8.402a.14.14 0 01.137-.14h7.778c.097 0 .163.102.125.194l-.963 2.342a.134.134 0 01-.14.084l-.013.001h-4.011v8.419a.14.14 0 01-.138.14h-2.638a.138.138 0 01-.137-.14v-10.9zm8.692 5.407c0-4.212 1.441-5.853 5.144-5.853 3.732 0 5.187 1.641 5.187 5.853 0 4.276-1.455 5.94-5.187 5.94-3.703 0-5.144-1.664-5.144-5.94zm2.931.042c0 2.97.526 3.443 2.213 3.443 1.719 0 2.255-.474 2.255-3.443 0-3.162-.585-3.443-2.255-3.443-1.639 0-2.213.281-2.213 3.443z" fill="#0066B3"/><path fill-rule="evenodd" clip-rule="evenodd" d="M62.82 20.003a.15.15 0 00-.075-.082.157.157 0 00-.112-.006c-.633.237-1.681.43-2.508.43-1.807 0-2.669-.493-2.669-3.295 0-2.239.265-3.294 2.67-3.294.681 0 1.506.1 2.31.336a.142.142 0 00.167-.072c.223-.496.547-1.298.785-1.889l.094-.232a.145.145 0 00.002-.12.15.15 0 00-.09-.083 11.738 11.738 0 00-3.457-.54c-3.787 0-5.474 1.804-5.474 5.853 0 4.107 1.687 5.939 5.474 5.939.95 0 2.82-.201 3.722-.565.07-.03.11-.113.082-.184l-.92-2.196zm-19.971-8.54a.138.138 0 00-.13.184l4.008 10.996a138.178 138.178 0 01-1.912 3.891c-.047.093.018.205.121.205h2.851c.052 0 .1-.03.123-.077 2.11-4.355 3.662-8.216 5.785-15.015a.14.14 0 00-.13-.185h-2.648a.14.14 0 00-.133.103c-.817 2.906-1.57 5.181-2.444 7.374l-2.692-7.386a.137.137 0 00-.129-.09h-2.67zm22.28 11.178h2.708a.136.136 0 00.13-.095 39.79 39.79 0 001.1-4.477 36.28 36.28 0 00.53-3.986h2.648v8.419c0 .077.062.139.137.139h2.638a.138.138 0 00.138-.14v-10.9a.138.138 0 00-.138-.139h-8.05a.138.138 0 00-.137.134 47.02 47.02 0 01-.585 5.57c-.327 1.962-.799 3.733-1.251 5.297a.14.14 0 00.131.178zm24.546-11.179a.138.138 0 00-.137.14v10.9c0 .077.062.139.137.139h2.638a.138.138 0 00.138-.14v-8.418h4.025a.134.134 0 00.139-.085l.963-2.342a.139.139 0 00-.125-.194h-7.778zm-12.861.185a.138.138 0 01.128-.185h2.671c.058 0 .11.036.129.09l2.692 7.387c.874-2.193 1.627-4.468 2.444-7.374a.14.14 0 01.133-.103h2.648a.14.14 0 01.13.184c-2.123 6.8-3.675 10.66-5.785 15.016a.138.138 0 01-.123.077h-2.85a.14.14 0 01-.122-.205 138.452 138.452 0 001.912-3.891l-4.007-10.996zm29.045-.185h2.636c.077 0 .137.062.134.14v10.261a.14.14 0 01-.093.136c-1.222.473-3.281.949-5.127.949-3.161 0-4.44-1.402-4.503-4.982-.003-.009-.003-6.348-.003-6.348v-.017c0-.078.06-.139.137-.139h2.636c.077 0 .138.062.138.14v6.303c.06 1.902.524 2.358 2.122 2.358a6.41 6.41 0 001.785-.239v-8.423c0-.078.061-.139.138-.139z" fill="#EE2F53"/></svg>