<svg width="41" height="40" fill="none" xmlns="http://www.w3.org/2000/svg"><path d="M28.933 24.167v-5.01c0-.299 0-.448-.045-.58a.833.833 0 00-.193-.312c-.097-.1-.231-.166-.499-.3L20.6 14.167M7.267 15.833v11.345c0 .62 0 .93.096 1.2.086.24.225.458.408.635.206.201.488.33 1.051.589L19.49 34.49c.409.187.613.28.826.318.188.032.381.032.57 0 .213-.037.417-.131.826-.318l10.667-4.89c.563-.257.845-.387 1.051-.588a1.66 1.66 0 00.408-.634c.096-.272.096-.582.096-1.201V15.833m-30-1.666l16.07-8.036c.22-.109.329-.164.443-.185a.834.834 0 01.308 0c.114.021.224.076.442.185l16.07 8.036-16.07 8.035c-.218.11-.328.164-.442.185a.836.836 0 01-.308 0c-.114-.021-.224-.076-.442-.185l-16.07-8.035z" stroke="url(#paint0_linear_369_11490)" stroke-width="2" stroke-linecap="round" stroke-linejoin="round"/><defs><linearGradient id="paint0_linear_369_11490" x1="3.933" y1="5.932" x2="35.004" y2="20.529" gradientUnits="userSpaceOnUse"><stop stop-color="#9930DF"/><stop offset=".507" stop-color="#C0448F"/><stop offset="1" stop-color="#F15C3B"/></linearGradient></defs></svg>