<svg width="20" height="20" fill="none" xmlns="http://www.w3.org/2000/svg"><g clip-path="url(#clip0_829_4509)"><path d="M10 13.333V10m0-3.333h.008m-8.341.435v5.796c0 .204 0 .306.023.401a.81.81 0 00.1.241c.05.084.123.157.267.3l4.102 4.103c.144.144.216.216.3.268a.878.878 0 00.241.1c.096.022.198.022.402.022h5.796c.203 0 .305 0 .401-.023a.834.834 0 00.241-.1c.084-.05.156-.123.3-.267l4.103-4.102c.144-.144.216-.217.267-.3a.831.831 0 00.1-.242c.023-.095.023-.197.023-.401V7.102c0-.203 0-.305-.023-.401a.833.833 0 00-.1-.241c-.051-.084-.123-.156-.267-.3L13.84 2.057c-.144-.144-.216-.216-.3-.267a.834.834 0 00-.24-.1c-.097-.023-.199-.023-.402-.023H7.102c-.204 0-.306 0-.402.023a.834.834 0 00-.24.1c-.085.051-.157.123-.3.267L2.056 6.16c-.144.144-.216.216-.268.3a.833.833 0 00-.1.24c-.022.097-.022.199-.022.402z" stroke="#424242" stroke-width="2" stroke-linecap="round" stroke-linejoin="round"/></g><defs><clipPath id="clip0_829_4509"><path fill="#fff" d="M0 0h20v20H0z"/></clipPath></defs></svg>