<svg width="89" height="88" fill="none" xmlns="http://www.w3.org/2000/svg"><path d="M22.846 41.172a29.37 29.37 0 01-.346-4.505c0-16.2 13.22-29.334 29.526-29.334 16.307 0 29.526 13.133 29.526 29.334a29.1 29.1 0 01-1.906 10.393c-.256.67-.384 1.006-.442 1.268a3.29 3.29 0 00-.086.708c-.007.268.03.564.102 1.155l1.477 11.99c.16 1.298.24 1.948.023 2.42a1.828 1.828 0 01-.943.92c-.476.206-1.123.11-2.417-.079L65.68 63.73c-.61-.09-.914-.134-1.192-.132a3.29 3.29 0 00-.734.078c-.271.057-.619.187-1.313.447A29.634 29.634 0 0152.026 66c-1.533 0-3.04-.116-4.51-.34M28.483 80.667c10.87 0 19.684-9.03 19.684-20.167 0-11.138-8.813-20.166-19.684-20.166-10.872 0-19.685 9.028-19.685 20.166 0 2.239.356 4.393 1.014 6.405.278.85.417 1.276.462 1.566.048.304.056.474.038.78-.017.294-.09.626-.237 1.29L7.833 80.667l10.981-1.5c.6-.082.9-.123 1.161-.12.276.001.422.016.692.07.257.051.638.186 1.401.455 2.01.71 4.169 1.095 6.415 1.095z" stroke="url(#paint0_linear_649_1146)" stroke-width="4" stroke-linecap="round" stroke-linejoin="round"/><defs><linearGradient id="paint0_linear_649_1146" x1="7.833" y1="7.333" x2="79.671" y2="36.75" gradientUnits="userSpaceOnUse"><stop stop-color="#9930DF"/><stop offset=".507" stop-color="#C0448F"/><stop offset="1" stop-color="#F15C3B"/></linearGradient></defs></svg>