<svg width="24" height="24" fill="none" xmlns="http://www.w3.org/2000/svg"><g clip-path="url(#clip0_171_8743)"><path d="M12.066 12.387A6.193 6.193 0 1012.062 0a6.193 6.193 0 00.004 12.387zm0-8.756a2.566 2.566 0 110 5.132 2.566 2.566 0 010-5.132zm2.504 13.81a11.588 11.588 0 003.598-1.49 1.816 1.816 0 00-1.936-3.074 7.865 7.865 0 01-8.338 0 1.814 1.814 0 00-1.932 3.072 11.6 11.6 0 003.596 1.49l-3.463 3.463a1.816 1.816 0 002.568 2.568l3.401-3.403 3.403 3.403a1.814 1.814 0 002.564-2.563l-3.46-3.467z" fill="#EB722E"/></g><defs><clipPath id="clip0_171_8743"><path fill="#fff" d="M0 0h24v24H0z"/></clipPath></defs></svg>