<svg width="24" height="24" fill="none" xmlns="http://www.w3.org/2000/svg"><path d="M8.38 8.853a14.602 14.602 0 002.846 4.01 14.6 14.6 0 004.01 2.847c.125.06.187.09.266.112.28.082.624.023.862-.147.067-.048.124-.105.238-.219.35-.35.525-.524.7-.639a2 2 0 012.18 0c.177.115.351.29.701.64l.195.194c.531.531.797.797.941 1.082a2 2 0 010 1.806c-.144.285-.41.551-.941 1.082l-.158.158c-.53.53-.794.794-1.154.997-.4.224-1.02.386-1.479.384-.412-.001-.695-.081-1.26-.241a19.039 19.039 0 01-8.283-4.874 19.039 19.039 0 01-4.873-8.284c-.16-.564-.24-.846-.242-1.26a3.377 3.377 0 01.385-1.477c.202-.36.467-.625.996-1.155l.158-.158c.531-.53.797-.797 1.082-.941a2 2 0 011.806 0c.285.144.551.41 1.082.942l.195.194c.35.35.525.525.639.7a2 2 0 010 2.18c-.114.177-.29.352-.639.701a2.099 2.099 0 00-.219.238c-.17.238-.229.582-.147.862.023.08.053.142.113.266z" stroke="#F15C3B" stroke-width="2" stroke-linecap="round" stroke-linejoin="round"/></svg>