<svg width="41" height="40" fill="none" xmlns="http://www.w3.org/2000/svg"><path d="M23.75 10a8.333 8.333 0 016.583 6.584M23.75 3.334A15 15 0 0137 16.567m-19.622 6.538a24.34 24.34 0 01-4.744-6.683c-.1-.208-.15-.312-.188-.443a1.743 1.743 0 01.245-1.437c.08-.111.175-.206.365-.397.583-.582.874-.874 1.065-1.167a3.333 3.333 0 000-3.634c-.19-.293-.482-.584-1.065-1.167l-.324-.325c-.886-.885-1.329-1.328-1.805-1.569a3.333 3.333 0 00-3.009 0c-.475.24-.918.684-1.804 1.57l-.263.262c-.882.883-1.324 1.324-1.66 1.924-.375.666-.644 1.7-.641 2.464.002.688.135 1.159.402 2.1a31.731 31.731 0 008.123 13.806A31.732 31.732 0 0025.88 36.53c.94.267 1.41.4 2.1.403.763.002 1.797-.267 2.463-.641.6-.337 1.041-.779 1.924-1.661l.263-.263c.885-.886 1.328-1.329 1.569-1.804a3.333 3.333 0 000-3.01c-.24-.475-.684-.918-1.57-1.803l-.324-.325c-.583-.583-.874-.874-1.167-1.065a3.334 3.334 0 00-3.634 0c-.293.19-.584.482-1.167 1.065a3.41 3.41 0 01-.397.365c-.396.284-.97.381-1.437.245a2.824 2.824 0 01-.443-.188 24.336 24.336 0 01-6.683-4.744z" stroke="url(#paint0_linear_365_9585)" stroke-width="2" stroke-linecap="round" stroke-linejoin="round"/><defs><linearGradient id="paint0_linear_365_9585" x1="3.55" y1="3.333" x2="36.236" y2="16.589" gradientUnits="userSpaceOnUse"><stop stop-color="#9930DF"/><stop offset=".507" stop-color="#C0448F"/><stop offset="1" stop-color="#F15C3B"/></linearGradient></defs></svg>