<svg width="40" height="40" fill="none" xmlns="http://www.w3.org/2000/svg"><path d="M13.961 26.027l-9.428 9.428M19.491 11.07l-2.602 2.601c-.212.212-.318.318-.439.403a1.665 1.665 0 01-.345.184c-.137.054-.284.084-.578.142l-6.108 1.222c-1.587.317-2.38.476-2.752.895a1.667 1.667 0 00-.404 1.335c.077.554.649 1.126 1.794 2.27l11.81 11.81c1.144 1.145 1.716 1.717 2.27 1.793.483.067.97-.08 1.335-.404.418-.37.577-1.164.895-2.752l1.221-6.107c.059-.294.088-.442.142-.579.048-.121.11-.237.185-.345.084-.12.19-.227.402-.439l2.602-2.601c.136-.136.203-.204.278-.263.066-.053.136-.1.21-.142.082-.047.17-.085.347-.16l4.157-1.782c1.213-.52 1.82-.78 2.095-1.2.24-.367.327-.815.24-1.245-.1-.492-.567-.959-1.5-1.892l-8.571-8.572c-.934-.933-1.4-1.4-1.892-1.5a1.667 1.667 0 00-1.245.24c-.42.276-.68.882-1.2 2.095l-1.782 4.158a3.476 3.476 0 01-.16.347c-.042.073-.09.143-.143.21-.059.074-.127.142-.262.278z" stroke="url(#paint0_linear_410_1424)" stroke-width="2" stroke-linecap="round" stroke-linejoin="round"/><defs><linearGradient id="paint0_linear_410_1424" x1="4.533" y1="3.709" x2="35.515" y2="16.33" gradientUnits="userSpaceOnUse"><stop stop-color="#9930DF"/><stop offset=".507" stop-color="#C0448F"/><stop offset="1" stop-color="#F15C3B"/></linearGradient></defs></svg>