<svg width="453" height="335" fill="none" xmlns="http://www.w3.org/2000/svg"><path d="M410.878 255.263c5.927 15.017 11.901 33.32 11.448 51.098-.333 12.781.381 13.043-7.806 33.13-3.427 8.401-13.614 21.206-21.706 26.18a84.276 84.276 0 01-31.463 10.876 367.982 367.982 0 00-47.743 9.925c-20.539 4.165-29.845 2.047-50.742-2.523-14.613-3.213-19.04-4.212-34.391-4.189-48.171 0-98.532 7.664-96.866-39.984 0-1.38.976-2.903 2.38-2.665a43.076 43.076 0 0012.662-1.642c3.451-.833 15.089-2.214 17.945-9.901 1.143-3.142 1.452-2.832 7.664-12.733 9.996-15.899 14.803-15.684 22.729-21.087 3.094-2.118 3.974-5.45 1.285-9.52a25.194 25.194 0 008.568-2.618 5.143 5.143 0 002.594-6.664 33.583 33.583 0 0015.208 4.094c9.639.19 23.562-2.952 35.391-1.69v.19a76.845 76.845 0 00-32.511 10.187 18.483 18.483 0 00-6.664 6.473c-.309.595.214.857.595.5a44.9 44.9 0 017.14-5.307c6.141-3.975 20.206-8.735 33.891-9.925 8.426-.738 12.329-.286 20.254-1.833a83.407 83.407 0 0112.852-1.404c4.522-.166 5.617.738 13.709-1.095a114.035 114.035 0 0116.327-2.975c10.591-1.57 13.828-5.569 22.61-13.78a153.597 153.597 0 0146.362-30.678c1.785-.738 1.523-2.547-.88-1.523-28.56 11.9-40.936 26.513-44.459 28.56 2.88-7.402 17.16-24.514 30.464-37.271.381-.381.667-.619.857-.785a.525.525 0 00-.547-.881c-.58.264-1.123.6-1.619 1-12.186 9.52-22.396 25.656-24.085 26.87 2.165-13.661 3.07-12.614 6.306-24.348 3.118-11.257 1.595-8.092 4.76-34.129.167-1.237.358-1.428 1.381-1.523 3.165-.286 7.878-.976 7.925-4.117.215-14.28-.975-26.728-1.356-31.75-1.047-13.113-.619-8.282-1.571-13.494-1.856-10.163-3.403-15.161-6.616-20.563-.357-.595-.12-1.024.571-1.214a22.417 22.417 0 0114.422 2.142 69.571 69.571 0 0116.304 12.162c6.306 6.188 9.02 14.018 12.304 22.871 6.045 16.208 5.046 34.558 4.903 52.099-.024 12.614-8.187 36.747-.786 55.454zm-40.15 100.245a163.862 163.862 0 00-8.068-47.1c-3.38-9.52-11.424-25.871-20.563-30.369-1.024-.428-1.452.405-.595 1.143 5.664 4.902 12.352 10.686 19.04 29.44 7.616 21.42 8.615 46.577 8.71 46.934.167.904 1.405 1.047 1.476-.048zm-23.181-6.854a164.65 164.65 0 00-1.619-37.271c-1.261-6.164-5.14-21.967-10.876-24.681-.952-.452-1.047.215-.738.905.785 1.809 5.76 2.975 9.948 25.061 2.523 13.328 1.857 35.2 1.881 35.867.047 1.261 1.237 1.023 1.404.119zm-76.66-64.26c.619-1.024-.619-2.023-1.714 0a110.532 110.532 0 00-11.757 30.392 135.113 135.113 0 00-3.046 44.721c0 .547 1.19.904 1.166-.143a149.203 149.203 0 013.38-41.626 125.433 125.433 0 0111.971-33.439v.095zm-16.47 13.685c.405-.69 1.19-1.476.786-1.928-1.642-1.88-25.038 34.391-20.016 64.26.167 1 1.261 1.142 1.166-.143-1.951-22.848 6.307-41.888 18.064-62.284v.095z" fill="#D6F3E3"/><path d="M370.942 177.008c0 .167.286.238.191.357-.25.137-.526.218-.81.238-5.521-.143-26.441-1.88-31.963.619-.452 0-16.136 1.642-16.66 1.713-.262-3.522.238-6.902-.238-17.516a12.483 12.483 0 011.333-5.403 63.781 63.781 0 0122.015-27.87c1.523-1.071.833-2.594-1.999-.857-6.307 3.832-12.162 11.9-15.661 17.208-1.475 2.237-2.523 3.998-3.022 4.76 0-11.9.452-31.154 6.925-41.388 3.118-4.927 5.736-8.902 11.163-10.734a7.852 7.852 0 015.497-.333 23.017 23.017 0 019.854 7.949 55.124 55.124 0 0110.448 26.822c2.213 11.853 2.903 32.416 2.927 44.435zm-28.845-32.939c.761-.952 2.165-2.38 1.975-3.189-.309-1.167-1.476-.691-2.38.357a93.231 93.231 0 00-7.449 11.209c-1.357 2.38-5.855 13.519-3.808 13.733 1.523.119.642-8.116 11.662-22.11z" fill="#fff"/><path d="M362.66 308.408a163.896 163.896 0 018.068 47.1c0 1.095-1.309 1-1.5 0 0-.357-1.094-25.466-8.71-46.934-6.664-18.754-13.352-24.537-19.04-29.44-.857-.738-.429-1.571.595-1.143 9.163 4.546 17.207 20.802 20.587 30.417z" fill="#000001"/><path d="M361.993 180.34a54.398 54.398 0 01-.833 9.282c-.757 4.3-1.766 8.552-3.022 12.733-5.07 19.278-10.972 18.112-26.656 19.849-8.443.582-16.918.502-25.347-.238-11.662-.809-17.017-1.951-34.153-2.38h-1.405a45.188 45.188 0 00-.833-12.399l31.845-8.188c11.305-2.832 20.254-3.617 24.466-6.545 2.999-2.094 2.618-3.998 3.07-9.948 0-.524 0-1.19.262-1.523.262-.333.952 0 1.452-.143 17.207-2.38 15.97-2.38 24.514-2.19 6.117-.023 6.64-.023 6.64 1.69z" fill="#FFB68C"/><path d="M359.28 204.14c.167-.571.476-.5.595-.333-.904 14.399-7.14 24.062-8.497 34.51a52.617 52.617 0 01-7.14 16.898 30.615 30.615 0 01-23.181 13.376 91.349 91.349 0 00-14.565 2.641 32.413 32.413 0 01-10.282 1.143c-.524 0-.69-.262-.785-.762-.833-4.093-1.19-23.8-10.687-38.08a22.852 22.852 0 01-3.403-11.21.588.588 0 01.146-.573.59.59 0 01.568-.164c17.779 1.261 15.875 1.808 25.918 2.213 9.358.661 18.75.661 28.108 0 14.637-1.523 18.635-4.522 23.205-19.659zm-17.493 41.031c.143-.595-6.521-5.997-17.35-10.091-7.569-2.856-5.807-2.023-13.043-4.95-.856-.357-2.879-1.214-2.07.143.809 1.356 13.994 6.164 14.089 6.188 12.353 4.688 18.017 9.758 18.255 8.687l.119.023zm-23.205 16.994c.333.714 1.428 0 1.142-.786-6.33-18.373-16.66-27.774-22.3-34.01-.571-.619-1.761-.952-1 .762l.167.19c9.782 11.495 11.495 12.757 16.66 22.991 1.737 3.57 4.189 9.02 5.212 10.829l.119.024z" fill="#FF8373"/><path d="M345.928 311.383a164.65 164.65 0 011.619 37.271c0 .904-1.357 1.142-1.404-.119 0-.667.642-22.539-1.881-35.867-4.188-22.086-9.163-23.253-9.948-25.061-.309-.691-.214-1.357.738-.905 5.736 2.713 9.615 18.517 10.876 24.681zm-1.856-170.503c.19.761-1.214 2.237-1.976 3.189-11.019 13.994-10.138 22.229-11.566 22.11-2.047-.214 2.38-11.471 3.808-13.732a93.243 93.243 0 017.449-11.21c.833-1.047 1.975-1.523 2.285-.357zm-19.754 94.2c10.829 4.094 17.493 9.52 17.35 10.091-.238 1.071-5.902-3.998-18.373-8.711 0 0-13.471-5.14-14.09-6.188-.619-1.047 1.214-.499 2.071-.142 7.235 2.903 5.474 2.07 13.042 4.95z" fill="#000001"/><path d="M343.834 95.97a17.327 17.327 0 00-7.426 3.76c-13.399 10.828-12.852 30.773-14.161 48.075-.619 8.307-2.618 10.472-2.118 18.041.19 3.07.167 13.447 0 14.589-.143 3.047 4.522 3.546 6.95 3.594a10.07 10.07 0 01-.453 5.046 6.256 6.256 0 01-4.569 3.546c-3.285.785-20.587 4.76-22.777 5.069a3129.55 3129.55 0 011.88-19.444 212.63 212.63 0 012.928-21.159 139.503 139.503 0 012.38-18.873c.714-3.451 5.45-19.659 5.474-19.706 1.047-3.499 3.261-8.735 4.403-13.995 4.189-19.302.904-19.42 4.26-18.516 3.76 1.047 22.301 7.259 23.229 9.972z" fill="#FF8373"/><path d="M319.605 261.26c.286.857-.809 1.5-1.142.786-1.023-1.809-3.475-7.259-5.307-10.853-5.189-10.234-6.902-11.496-16.66-22.991l-.167-.19c-.762-1.714.428-1.381 1-.762 5.712 6.331 15.946 15.732 22.276 34.01z" fill="#000001"/><path d="M315.179 83.64c1.214 1.024 1.999 1.548 1.499 4.309a57.082 57.082 0 01-4.189 13.708c-2.927 6.355-10.067 17.755-16.969 16.66-4.617-.666-6.331-13.494-6.378-13.851-.143-.833 0-.31 4.76 3.927.214.214 1.094.761 1.356.238.262-.524-.357-1.262-.666-1.523-1.333-1.143-3.808-3.666-5.712-5.546a1.938 1.938 0 01-.584-1.537 1.943 1.943 0 01.798-1.438 36.775 36.775 0 0012.043-13.28c.238-.5.88-1.476.357-1.642-.524-.167-1.047.214-2.047 1.808-4.903 7.712-14.946 16.232-24.133 15.804-10.258-.476-16.089-9.378-17.041-18.731a9.258 9.258 0 005.45 0c.381-.167 1.143-1.357-.333-1.309-4.332 0-6.973-.88-8.235-2.737-1.713-2.547 1.047-4.546 5.498-3.594 1.856.405 2.547-.857.666-1.237a9.874 9.874 0 00-4.26-.215c-1.095.286-.5-.666-1.904-1.594-.785-.619-1.499-.238-1.594.761v.81a7.135 7.135 0 01-2.261-2.928c.761 0 1.594-.214 1.927-.833.334-.619.119-1.452-.38-1.547a.524.524 0 00-.381 0 2.38 2.38 0 01-2.19.548 51.88 51.88 0 01-3.141-15.494c0-.595 0-.857.809-.952 6.14-.81 8.734-3.784 13.304-8.092.357-.333.5-.548.952 0 3.998 3.57 8.639.88 11.162-1.809.452 1 2.38 1.404 4.57 0-.476 3.641 1.618 5.498 4.76 6.664 2.118.785.309 1.666-.548 4.427a2.698 2.698 0 00.339 2.496 2.69 2.69 0 002.256 1.121h3.117c-.904 1.619-1.832 2.833-1.19 4.284a1.787 1.787 0 001.381 1.167 5.354 5.354 0 006.259-3.285 8.759 8.759 0 014.022-4.76c4.618-2.38 9.52 1.143 10.044 7.378.405 5.831-2.999 10.091-6.997 10.758a7.14 7.14 0 01-4.546-1.262.619.619 0 00-.643 1.048 8.953 8.953 0 003.57 1.666c1.928.476 3.832 1.142 5.76 1.642a9.334 9.334 0 013.856 2.76c1.57 1.476 4.284 3.88 5.807 5.213zm-12.162-24.965c.19.19 1.166.19.904-.786a2.092 2.092 0 00-2.546-1.261 5.114 5.114 0 00-3.975 4.974c.333 4.76 4.189 1.666 5.593 2.38a1.93 1.93 0 01.905 1.523c.166 2.38-3.213 2.38-3.213 3.784 0 .643 1.451.334 2.046 0 4.451-2.665 1.547-5.973 1.095-6.235-1.928-1.143-5.069 1-4.189-1.928.453-1.57 2.523-3.594 3.38-2.451zm-17.136 27.298a2.554 2.554 0 001.322-1.98 2.547 2.547 0 00-.894-2.209c-1.451-1.07-3.26.857-3.284 2.261.095 1.904 1.166 2.69 2.856 1.928zm-11.662-25.585c.5 1.119 1.285.69 1.238-.143a4.763 4.763 0 00-6.284-3.522c-4.569 1.69-6.64 5.926-8.496 9.115-1.5 2.595-2.237 1.571-2.642-.57-.19-1.048-1.404-.405-1.404.332a5.69 5.69 0 00.428 2.19 2.046 2.046 0 002.38 1.285c3.38-1.118 3.689-8.258 9.972-10.59a3.573 3.573 0 014.808 1.903zm-6.355 9.377a3.471 3.471 0 00-1.19-2.142 1.023 1.023 0 00-1.428 0 2.383 2.383 0 001 3.213 1.094 1.094 0 001.618-1.07z" fill="#FFB68C"/><path d="M316.702 94.35a108.025 108.025 0 01-2.38 11.901c-.762 2.903-4.76 13.518-7.973 25.727a92.66 92.66 0 00-3.427 24.324c0 1.904-1.952 10.353-2.38 14.875 0 .476.333-3.927-2.38 24.776-.143 1.523-.476 2.713-2.38 3.022-1.904.31-13.447 3.642-15.756 4.046-.857.143-1 0-.952-.952.309-5.926.69-11.067 1.856-27.417 1.524-21.42 5.927-54.145 7.926-64.022 1.404 4.236 3.308 8.996 7.14 9.52 4.26.595 9.972-4.76 12.638-8.378 6.116-8.544 7.116-16.874 8.068-17.421z" fill="#fff"/><path d="M314.06 30.828c1.428.5 2.38 1.12 2.38 1.786 0 .666-.833 2.641-1.071 3.57-.143.523-.452.666-1.023.642-9.735 0-7.688 2.38-6.641 2.951 3.142 1.619 3.808 1.88 3.166 2.904a32.23 32.23 0 00-3.951 11.52c-4.284-4.142-11.686-1.5-13.376 4.188a5.158 5.158 0 01-4.498 2.951c-2.38.238-.262-2.832 0-3.427 1.833-4.094-7.306-.405-5.331-4.76.809-1.785 3.165-3.832 0-5.117-7.14-2.975-3.808-7.14-2.88-7.735.928-.595.381-1.595-.666-.976 0 0-6.474 4.76-5.546 1.047.31-1.261-.785-1.452-1.285-.452-1.452 2.927-7.306 7.14-10.734 2.927-1.808-2.38-.999.12-8.425 5.712a12.613 12.613 0 01-7.14 2.523 26.678 26.678 0 00-12.804 4.19c-.476.285-.762.166-.905-.382-1.404-5.498-1.499-5.283.262-5.83 5.855-1.857 7.902-1.786 8.211-3.761.524-3.427-6.64-2.642-9.877-2.07-.833.142-.976.166-1.095-.69a37.586 37.586 0 01-.38-4.356c0-2.261 1.88-.334 10.043-.69 1.476 0 5.474-3.785-7.925-5.95a.478.478 0 01-.405-.429c0-1.357 1.357-5.07 2.785-4.76 3.808 1.166 5.069 2.38 8.639 3.07a2 2 0 002.38-1.404c.548-1.88-5.022-5.664-6.711-6.473-.667-.334-.762-.738-.524-1.286.571-1.285 3.023-5.569 4.498-4.212 3.737 3.474 4.903 5.093 5.879 5.926.976.833 2.38.642 2.689-.928.857-3.713 0-5.308-2.546-10.687-.548-1.19-.548-1.404.476-2.094a13.33 13.33 0 012.046-1.166 1.502 1.502 0 012 .38 13.232 13.232 0 013.308 7.402c.333 2.595 1.428 1.357 1.475.976a27.744 27.744 0 011.547-10.805c.786-1.809 1.048-1.832 2.547-1.095 1.047.524 2.118 1 3.237 1.524-2.142 3.498-3.808 8.639.143 9.734a2.973 2.973 0 003.332-.857c1.975-2.523 2.07-4.308 2.522-8.949 0-.69.286-1.166 1.024-1.333.738-.166 1.785-.452 2.665-.618a1.048 1.048 0 011.214 1 17.234 17.234 0 010 6.52c0 .238-.619 1.31.143 1.714.762.405 1.571-1.071 2.118-2.237 1.428-3.07 3.665-9.71 6.45-8.64 1.642.62 4.355 1.524 3.451 3-1.761 2.903-3.403 4.76-2.808 7.734a.994.994 0 00.562.842.998.998 0 001.008-.08 2.33 2.33 0 00.405-.286c7.806-7.259 5.712-9.258 7.902-8.401 1.047.476 2.07 1.047 3.07 1.618.999.571.619 1.238.404 1.928-1.475 4.76-2.856 5.498-6.164 7.997-.857.642.191 1.737.833 1.356 3.975-2.38 6.45-4.76 13.614-4.76 2.094 0 2.38 4.142 2.523 5.617-5.903 0-9.52 1.714-9.83 3.19-.309 1.475 1.452 1.808 3.404 1.427 4.902-.5 7.568-1.309 7.854.286.162 1.542.241 3.09.238 4.64 0 .596-.524.453-.952.477-3.499-.12-4.76.238-5.665.88-.904.643-.452 1.167.643 1.048a15.66 15.66 0 018.068.5z" fill="#595959"/><path d="M303.921 57.89c.262.975-.714.975-.904.785-.976-1.143-2.928.88-3.404 2.38-.88 2.927 2.261.785 4.189 1.927.452.262 3.356 3.57-1.095 6.236-.595.357-2.023.666-2.046 0 0-1.38 3.379-1.452 3.213-3.784a1.933 1.933 0 00-.905-1.523c-1.404-.715-5.26 2.38-5.593-2.38a5.119 5.119 0 013.999-4.95 2.094 2.094 0 012.546 1.308z" fill="#000001"/><path d="M293.402 271.351c.143.786.143.833-.667.881a38.278 38.278 0 00-10.257 1.237c-7.378 1.619-7.712.929-18.493.191-17.255-1.166-32.606 2.38-43.126 1.237a27.763 27.763 0 01-21.039-11.781c-.88-1.142-2.784 0 0 3.332 1.738 2.071 3.499 4.142 5.212 6.236 4.76 5.831-8.044 6.973-10.971 7.497a1.163 1.163 0 00-1.121 1.361c.037.22.137.425.288.591.809 1.19 6.568 4.403-1.69 9.091-14.042 7.949-16.66 14.566-22.087 22.753-5.926 9.044-4.926 6.997-6.235 10.329-2.237 5.807-10.163 8.306-18.136 9.52-14.28 1.976-13.756 1.262-27.917-7.878-5.355-3.451-8.616-4.902-9.235-11.186-.571-5.807-.904-8.496 2.952-12.899 8.234-9.52 8.829-8.283 14.827-16.851 12.352-17.731 11.9-14.97 15.541-19.42 6.783-8.592 10.568-27.775 27.489-38.533.289-.186.636-.262.976-.214.238 0 46.267 10.996 48.814 9.901 3.594-1.547 18.564-13.566 20.373-15.089a2.739 2.739 0 011.452-.786 25.821 25.821 0 007.378-2.142 2.382 2.382 0 012.832.667 13.589 13.589 0 006.069 3.046c3.475.762 7.14-1.19 7.806-.976.286 0 .429.619.619.976a1.637 1.637 0 001.547.881 8.504 8.504 0 002.047-.238 1.787 1.787 0 001.499-1.357c0-.476.452-.547 1.047-.476 7.283.667 8.592-.285 8.64 1.214a21.65 21.65 0 002.999 11.591 79.918 79.918 0 018.472 20.896c.929 3.927.405 5.831 2.095 16.398zm-108.671 11.067c.547.786 1.357.357.952-.428a57.33 57.33 0 01-8.163-37.937c0-.833.523-3.118-.286-2.88-2.071.595-4.236 25.014 7.497 41.245zm-12.566-48.219c.523-1.237-.81-1.451-1.262-.571a74.095 74.095 0 00-6.616 23.3 85.082 85.082 0 001.713 33.32 27.668 27.668 0 002.88 6.712c.262.428.548 1.238 1.119.928.571-.309 0-1.023-.143-1.499-4.474-8.116-9.425-33.725 2.309-62.19z" fill="#0066B3"/><path d="M287.118 102.847a1.853 1.853 0 01.429 1.666c-1.119 9.663-1.309 11.472-1.5 12.686 0 .238-3.974 21.42-7.14 56.263 0 0-1.666 26.608-1.618 29.393a.946.946 0 01-.166.71.95.95 0 01-.619.385c-7.426 1.88-7.283 1.975-7.688 1.023-.214-.452-.5-.809-1.547-.952h-.785c0-.785 4.76-24.395 6.569-36.628 4.212-27.918 4.379-40.46 12.852-63.356a1.639 1.639 0 011.213-1.19z" fill="#FF8373"/><path d="M286.309 81.784a2.546 2.546 0 01-.428 4.189c-1.69.762-2.856 0-2.856-1.928.095-1.452 1.856-3.308 3.284-2.26z" fill="#000001"/><path d="M284.239 104.728c-8.354 23.228-9.52 38.46-12.21 60.047 0 .69-.428.476-2.166.214a61.532 61.532 0 00-10.543-.523c1.095-7.426 7.14-30.94 9.663-38.699 3.498-11.377 8.568-17.136 15.256-21.039z" fill="#fff"/><path d="M275.456 60.245c0 .833-.737 1.262-1.237.143a3.572 3.572 0 00-4.76-1.904c-6.283 2.38-6.593 9.52-9.972 10.591a2.048 2.048 0 01-2.38-1.285 5.69 5.69 0 01-.429-2.19c0-.738 1.214-1.38 1.404-.333.405 2.142 1.143 3.165 2.642.571 1.857-3.189 3.927-7.425 8.497-9.115a4.76 4.76 0 016.235 3.522z" fill="#000001"/><path d="M270.792 166.441c.904 0 1.023.262.833 1.142-3.713 16.47-5.379 33.32-6.569 36.295a4.042 4.042 0 00-2.38 2.19c-3.023-1.523-6.283-2.713-9.211-4.546A28.548 28.548 0 00239.59 197c-2.38 0-3.903 1.261-7.14 3.213-10.282-2.38-9.52-1-9.234-3.118 0-.833-.762-.928-1.024-.214-.262.714-.428 1.595-.738 2.38-3.617 9.187-5.212 14.685-6.33 12.471-1.119-2.213.261-7.473.476-10.091a2.859 2.859 0 00-1.833-2.737 10.563 10.563 0 00-6.188-1.499 40.893 40.893 0 00-5.736 1.761 2.57 2.57 0 00-.916.577 2.584 2.584 0 00-.782 1.968c.015.365.107.722.27 1.049.5 1.404 1.024 2.808 1.476 4.212a1.965 1.965 0 01.113 1.593 1.944 1.944 0 01-1.113 1.144c-.761.476-1.356.262-1.547-.619-1.38-7.14-3.689-6.092-2.832-9.52 1.047-4.093 1.642-3.831 7.568-5.926 2.023-.714 1.167-2.094 0-1.547-3.308 1.619-9.329 1.666-9.186 9.02a10.42 10.42 0 01-.572 2.119v1.856c-.38 2.047-2.023 2.118-2.165.857-.262-2.38-1.357-4.118-.81-5.26 1.69-3.094-.642-5.998 4.308-8.354l2.38-1.19c1.071-.523 0-1.19-.452-.999-5.593 1.999-5.736 3.046-6.616 5.664-.31.881 0 1.238-.5 3.07-2.713-.976-1.357-1.737-.405-6.212.571-2.618 2.69-2.998 5.76-4.379 1.713-.785 1.214-1.594.523-1.404a13.39 13.39 0 00-2.689.785 8.857 8.857 0 00-4.046 2.714 1.632 1.632 0 01-.357.19c-.762-1.499 2.975-5.974 7.83-5.783 9.068.38 7.426 0 9.52.214a104.699 104.699 0 0122.467 3.094c1.809.333 6.069.738 9.52 1.38a123.772 123.772 0 0013.519 2.523c1.118 0 7.949.881 8.211-.262.143-.619-.524-.595-.905-.785-.38-.191-1.237.214-1.428-.429 0-.214 4.118-23.062 4.118-23.109 0-.048.166-.643.238-.976a.575.575 0 01.192-.406.592.592 0 01.199-.115.586.586 0 01.228-.027 38.113 38.113 0 017.83.548z" fill="#FFB68C"/><path d="M269.649 217.754c-.034.954-.203 1.9-.5 2.808-.38 1.333-.952 1.618-2.38 1.333.167-.452.357-.905.524-1.381.456-1.819.593-3.703.405-5.569a26.573 26.573 0 00-2.047-9.663c.166-.19 1.237-.142 1.571-.142.737 0 .904.333 1.428 1.856a37.2 37.2 0 01.999 10.758z" fill="#0082EE"/><path d="M269.173 284.417l-1.023 1.976a106.096 106.096 0 00-10.734 28.417 135.16 135.16 0 00-3.046 44.72c0 .548 1.19.905 1.166-.143a149.206 149.206 0 013.38-41.626 131.87 131.87 0 0110.472-30.726c.499-.952.999-1.856 1.499-2.737.5-.88-.619-2.023-1.714.119zm-2.499-216.794a3.47 3.47 0 011.19 2.142 1.095 1.095 0 01-1.618 1.119 2.384 2.384 0 01-1.238-2.713 1.003 1.003 0 011.199-.794.999.999 0 01.467.246z" fill="#000001"/><path d="M265.913 209.709c.597 2.863.782 5.796.547 8.711 0 .643-.452 1.238-1.023 1.142-1.952-.285-3.071 1.524-7.545 1.333a7.488 7.488 0 01-2.38-.738 11.899 11.899 0 01-4.094-2.546c-1.023-.952 0-1 .976-2.618 0-.262 0-.667-.809-.405a34.728 34.728 0 01-7.497 3.856 22.083 22.083 0 01-4.094 1.071c-2.832.5-3.284-2.095-1.428-3.523a71.535 71.535 0 006.902-5.545.382.382 0 00.021-.568.377.377 0 00-.187-.098c-.381 0-.809-.191-.928-.667-.119-.476-.762 0-.762.357s-.547 1.071-1.023 1.476c-1.214 1.047-2.38 2.142-3.666 3.165-1.285 1.024-2.237 1.404-2.737 2.809-.166.428-.761.166-1.094 0a2.81 2.81 0 01-.215-4.499c.182-.233.408-.427.667-.571a17.297 17.297 0 003.594-3.451c2.261-2.237 3.57-2.38 2.094-3.213-1.476-.833-.762-.143-1.809.952-.5.5-.999 1-1.452 1.547a13.505 13.505 0 01-3.522 3.261 6.164 6.164 0 00-1.952 2.856 6.063 6.063 0 01-4.403 3.617c-.499 0-1.047.215-1.356-.333-.619-1.19 1.951-1.523 3.07-5.521.223-.484.503-.939.833-1.357 1.761-2.38 1.166-3.451 4.95-5.379l2.095-1.118a1.34 1.34 0 00.761-.905.351.351 0 00-.1-.303.367.367 0 00-.14-.087.365.365 0 00-.164-.014 10.675 10.675 0 00-3.642 1.523 7.903 7.903 0 00-2.951 2.38c-.33.829-.736 1.626-1.214 2.38a8.676 8.676 0 00-1.594 2.023c-.548 1.142-.571 2.618-2.38 3.784a3.283 3.283 0 01-2.214.547.761.761 0 01-.428-1.38c1.618-1.785 3.284-2.38 4.451-5.569a9.23 9.23 0 013.617-4.498 6.92 6.92 0 001.642-1.69 8.88 8.88 0 0110.306-2.928c2.324.49 4.536 1.41 6.521 2.714 2.38 1.618 5.284 2.618 7.902 3.974 7.758 4.046 7.211 1.285 7.854 4.046z" fill="#FFB68C"/><path d="M255.203 296.056c.404.452-.381 1.237-.786 1.928-11.662 20.372-20.015 39.436-18.064 62.189 0 1.285-.999 1.142-1.166.143-5.022-29.869 18.374-66.14 20.016-64.26z" fill="#000001"/><path d="M236.186 218.42a2.788 2.788 0 001.881 2.38c-8.497 6.617-16.946 13.661-20.468 14.28-1.476.31-34.915-6.14-57.739-11.9-4.927-1.261-20.064-5.355-23.8-6.878-.571-.214-.571-.571-.571-.666v-1.904c0-.691-1.595-.833 48.694 11.447a252.285 252.285 0 0033.654 6.522c1.023.119 1.356 0 12.804-8.545 1.285-.952 1.785-2.38-.214-.975-3.07 2.38-8.425 6.069-11.615 8.068-.595.452-1.094.166-1.832 0a332.732 332.732 0 01-34.748-6.736c-1.309-.309-44.006-10.852-44.578-10.948-.571-.095.31-.428.476-.499 5.808-3.213 28.394-14.042 48.838-23.372a.854.854 0 00.333-.262h.976a3.045 3.045 0 00.214 3.38c.5.833.452.904-.476 1.404-32.939 17.493-34.676 17.612-33.534 19.254a3.595 3.595 0 002.38 1.119c3.689.785 44.268 8.687 44.268 8.687a1.91 1.91 0 002.071-.548c1.904-1.761 1.118-.666 10.257-8.139a1.284 1.284 0 011.571-.214 1.929 1.929 0 002.594-.786c.423-.759.774-1.556 1.048-2.38.595-1.832 1.094-1.047 8.234-7.14.976-.785.262-1.452-.571-.785-1.975 1.594-3.998 3.141-5.95 4.76l-.547.357a63.089 63.089 0 013.046-7.878l9.139 1.785c-.469.424-.962.821-1.475 1.19a7.663 7.663 0 00-3.023 3.427 21.651 21.651 0 01-4.76 6.736c-1.261 1.499-.761 2.998 1.19 3.403.401.073.807.121 1.214.143a3.016 3.016 0 002.225 2.521 3 3 0 001.178.073 13.994 13.994 0 004.499-2.38c.499 1.047 1.737 2.285 3.117 1.999zm-11.305 1.69c-.642.381-3.403 2.88-5.14 4.236a2.619 2.619 0 01-1.738.595 85.384 85.384 0 01-8.473-1.975c-.309-.143.215-.666.381-.809 3.903-3.546 4.094-3.713 9.163-7.878.643-.524.881-1.761-.809-.428-1.69 1.332-2.927 2.38-9.187 7.83-.952.833-1.047 1.713.143 2.142 1.19.428 8.806 1.999 8.854 1.999a2.39 2.39 0 001.523-.19 39.174 39.174 0 005.831-4.76c.095-.81-.262-.976-.548-.786v.024z" fill="#fff"/><path d="M233.307 142.403c-1.666.381-42.245 5.402-43.412 5.521-.595 0-.952 0-.928-.309.024-.309.286-.524 1.024-.643 1.618-.238 41.483-5.688 43.101-5.616 1.619.071 1.333.904.215 1.047zm-7.854 78.016c.012.119.012.239 0 .357a39.049 39.049 0 01-5.831 4.76 2.384 2.384 0 01-1.523.191s-7.593-1.571-8.854-1.999c-1.261-.429-1.095-1.309-.143-2.142 6.236-5.593 7.664-6.617 9.187-7.831 1.523-1.213 1.452 0 .809.429-5.069 4.141-5.236 4.331-9.163 7.877-.166.143-.69.667-.381.81a85.384 85.384 0 008.473 1.975 2.619 2.619 0 001.738-.595c2.046-1.618 4.76-4.165 5.236-4.284a.382.382 0 01.452.452z" fill="#000001"/><path d="M212.743 199.856a7.134 7.134 0 00-6.164-.833 26.025 26.025 0 00-4.546 1.642 1.057 1.057 0 00-.38.809c.285.738 1.118-.333 4.046-1.261.642-.143.642.524-1.095 1.38l-2.38 1.095a1.14 1.14 0 000 .286c.238 0 9.52 1.333 10.21 1.547.69.214.309.619-.143 1.023-1.047.714-3.689 2.785-5.164 3.88l3.094.785a.476.476 0 01-.191.904c-.381 0-1.047-.214-2.665-.595a2.694 2.694 0 00-1.881 0c-.19 0-1.118.833-5.259 4.07l4.76.833c.428 0 .952 0 .904.619-.048.619-.666.357-1 .309-1.618-.261-3.213-.499-4.76-.88a1.636 1.636 0 00-1.499.381l-4.998 3.808 7.664 1.523a1.668 1.668 0 001.523-.286c3.332-2.737 6.664-5.426 10.02-8.116 1.975-1.57-.357-.809 1.404-9.853.404-2.166.119-2.07-1.5-3.07z" fill="#fff"/><path d="M210.173 101.11c.429-.191.857.166.809.714-.737.833-30.487 24.038-30.94 24.133-.452.095-1.094-.357-.571-.785 3.07-2.547 29.298-23.372 30.702-24.062z" fill="#000001"/><path d="M203.533 203.95c-.833-.143-1.095 0-.928.952a8.697 8.697 0 01.833 3.974 4.072 4.072 0 01-1.833 2.095 2.14 2.14 0 01-2.856-.667 25.633 25.633 0 01-1.452-4.022l-8.925 6.14 9.758 1.857a1.62 1.62 0 001.381-.286c1.642-1.333 3.522-2.689 5.188-3.951-.166-.238-.976-.19-.88-.737a.393.393 0 01.113-.22.4.4 0 01.22-.114c.642 0 .976.381 1.88 0a32.184 32.184 0 004.76-3.689l-7.259-1.332zm-5.831 11.447a39.79 39.79 0 00-4.76 3.689 1.376 1.376 0 01-1.238.286c-2.737-.571-8.211-1.571-9.972-1.928a.238.238 0 010-.428c5.165-3.475 5.212-3.832 5.974-3.713 7.521 1.238 9.282 1.595 9.996 1.761.03.017.055.041.072.07a.193.193 0 010 .193.18.18 0 01-.072.07zm-1.88-11.852c1.333 1.642 1.333 1.69-.381 2.594.119-.856.238-1.666.381-2.594zm-5.141 3.261a13.988 13.988 0 00-1.071-5.26l-5.522 3.475a1.036 1.036 0 000 .261l5.331 1.024c.405 0 .5.381 0 .761a.662.662 0 01-.476 0c-1.88-.333-3.76-.666-5.616-1.071a1.696 1.696 0 00-1.309.191c-2.547 1.642-5.07 3.094-5.998 3.879a93.449 93.449 0 009.877 1.952 2.011 2.011 0 001.642-.357c1.428-.976 2.856-1.999 4.403-3.094-1.19-.5-1.237-.595-1.261-1.761zm-3.189-9.044a3.805 3.805 0 001.975 2.546c-2.88-.975-5.879-1.047-9.02-1.856l7.901-4.189c-.142 1.333-1.071 2.285-.856 3.499z" fill="#fff"/><path d="M185.683 281.99c.404.785-.405 1.214-.952.428-6.973-9.52-9.52-23.014-9.044-34.557 0-2.047.738-6.45 1.547-6.688.809-.238.381 2.047.285 2.88a57.336 57.336 0 008.164 37.937z" fill="#000001"/><path d="M185.54 212.97a.305.305 0 010 .238 43.321 43.321 0 01-4.76 3.379 3.045 3.045 0 01-2.189.191c-9.52-2.023-9.14-1.595-9.925-2.19 6.14-3.498 5.95-3.689 6.902-3.617 9.972 1.832 9.972 1.761 9.972 1.999z" fill="#fff"/><path d="M180.518 186.361c1.357-.595 1.833.286.857.738-5.426 2.523-21.848 9.52-43.268 18.755-.429.166-1.048.666-1.309 0-.262-.667.476-.738.88-.929 10.805-4.807 32.297-14.018 42.84-18.564zm.738-9.734c.214.643-.428.762-.904.928-19.207 6.831-48.076 17.589-49.29 17.565a.422.422 0 01-.208-.157.424.424 0 010-.496.42.42 0 01.208-.156c13.59-5.141 33.058-12.162 49.004-17.803.429-.143 1-.452 1.19.119zm-4.26-9.448c.143.833 0 .476-29.75 10.686-12.543 4.284-9.52 3.403-21.944 7.449-.38 0-.88.476-1.071-.142-.19-.619.429-.643.786-.786 31.678-10.805 50.718-17.469 51.503-17.612a.453.453 0 01.476.405zm-2.428-5.879c.714 1.357 0 2.38-1.213 2.975a5.91 5.91 0 01-.976.381s-42.126 12.995-44.482 13.685c-6.212 1.856-7.14 1.928-8.568 0a268.661 268.661 0 01-21.849-37.033 5.08 5.08 0 01-.452-1.404 1.407 1.407 0 01.672-1.412c.159-.094.335-.156.518-.183 6.212-1.309 51.789-9.781 57.667-9.877 1.071 0 1.405.929 1.785 1.571 7.164 11.995 6.902 12.376 16.898 31.297zm-2.38 1.952c1.119-.333 1.381-.833.929-1.785-1.904-4.118-12.091-24.871-16.66-30.94-.643-.857-.833-1.024-1.857-.857 0 0-39.793 6.474-56.596 10.044 6.354 13.732 19.801 34.105 22.158 37.77 1.451 2.285 1.547 1.738 52.003-14.232h.023z" fill="#000001"/><path d="M173.093 161.467c.452.952.19 1.451-.928 1.785-50.504 15.993-50.552 16.517-52.075 14.137-2.38-3.665-15.803-24.038-22.158-37.771 16.803-3.57 56.668-10.02 56.668-10.043 1.024-.167 1.19 0 1.857.856 4.545 6.165 14.803 26.918 16.636 31.036zm-14.637.452c2.951-1.024 3.927-4.332.381-6.855-.381-.285-20.04-15.374-24.538-17.778-2.523-1.333-4.26 0-5.046 2.38-.262.785-2.642 14.684-3.546 25.561 0 1.214 0 3.451.785 4.26a4.24 4.24 0 004.094.833c1.618-.381 8.925-1.88 27.87-8.401z" fill="#FFA69F"/><path d="M170.903 233.628c.452-.88 1.785-.666 1.261.571-11.733 28.56-6.783 54.074-2.38 62.261.262.476.881 1.119.143 1.5-.737.38-.856-.5-1.118-.929-6.141-10.115-6.022-28.179-4.594-40.103a74.102 74.102 0 016.688-23.3zm-.547-59.5c1.404-.499 1.69.572.285 1.095-19.04 7.14-39.389 14.447-41.388 15.208-.976.357-1.118-.642-.571-.856 7.14-2.785-1.69.618 41.674-15.447zM168.88 69.432c.666 0 .904.666.571 1.261-22.991 40.461-22.538 40.246-23.229 39.77-.69-.476-.166-.761 11.9-22.205 11.353-20.468 9.877-17.97 10.758-18.826z" fill="#000001"/><path d="M179.519 199.19c-.405 0-.31 0-8.878 4.45-11.9 6.26-14.684 7.735-15.279 8.14a.267.267 0 00-.08.263.263.263 0 00.199.189c.571 0 1.19.19 11.091 2.237a1.543 1.543 0 001.523-.333c.761-.904.809-.619 4.974-3.57-2.927-.524-5.569-1-8.187-1.523-.31 0-1.024 0-.928-.571.095-.571.714-.31 1.071-.238l8.33 1.475a1.997 1.997 0 001.713-.285 48.375 48.375 0 005.712-3.785c-.5-.404-.262-.142-6.664-1.356-.381 0-1.618-.952.595-.762 2.214.191 4.141.762 6.188 1.214a2.793 2.793 0 002.237-.404c1.143-.762 4.499-2.88 5.117-3.285-.856-.428-8.687-1.856-8.734-1.856z" fill="#fff"/><path d="M167.809 185.909c.286 0 .69-.166.762.571-.833.833.856 0-32.916 14.042-.404.167-1.023.691-1.309 0-.285-.69.452-.761.881-.952 10.9-4.641 31.868-13.447 32.582-13.661z" fill="#000001"/><path d="M166.143 226.084c-.262.285-.524.571-.809.833-12.947 11.9-13.685 13.875-19.73 26.727a39.503 39.503 0 01-7.664 12.376c-11.9 12.733-9.044 12.067-15.66 20.04-7.402 8.949-9.806 9.972-14.423 15.97-2.38 3.165-1.999 5.355-2.38 9.972a38.3 38.3 0 01-7.14-4.594 10.658 10.658 0 01-3.69-5.926c-2.38-10.972 2.571-13.756 9.521-21.301 10.662-11.733 8.734-14.28 20.158-26.584 6.569-7.14 5.95-9.83 10.211-18.231a50.334 50.334 0 019.9-14.161 1.57 1.57 0 011.904-.405c12.353 3.689 15.113 3.856 19.802 5.284zm-20.73 6.949c.214-.904 0-1.475-.19-1.594-.976-.548-1.833 2.38-2.38 4.355-.548 1.976-10.02 28.37-7.688 28.56 1.809.238 1.095-6.973 6.879-22.158 1.023-2.784 3.046-8.258 3.379-9.163zm-14.78 20.016c.595-1.356-.214-1.856-.904-.452a75.266 75.266 0 00-5.165 13.542c-1.689 6.283-1.88 9.163-.785 8.973 1.095-.191 1.142-9.092 6.854-22.063z" fill="#0066B3"/><path d="M158.955 156.802c2.095 1.904 0 3.594-1.404 4.094a284.574 284.574 0 01-27.56 8.449 2.6 2.6 0 01-2.377-.668 2.595 2.595 0 01-.741-2.355c.238-2.38 2.832-24.205 3.879-27.061a2.178 2.178 0 011.544-1.352 2.166 2.166 0 011.979.543c2.903 2.071 21.729 15.708 24.68 18.35zm-16.517 6.878a2.383 2.383 0 002.38-2.237 2.049 2.049 0 00-1.951-2.142 2.382 2.382 0 00-2.38 1.999 2.143 2.143 0 001.951 2.38zm-2.118-5.355c1.19-.381 2.023-1.261 1.952-2.118 0-.286-.167-.619-.262-.904-4.07-11.329-3.689-10.663-4.237-11.52a.974.974 0 00-.904-.238c-1.095.429-2.166.952-3.237 1.452-1.737.809-1.023 1.309.738 4.76l3.998 7.711c.5.881 1.048 1.095 1.952.857z" fill="#FF4931"/><path d="M158.836 155.065c3.547 2.522 2.571 5.831-.38 6.854a290.233 290.233 0 01-27.87 8.449 4.234 4.234 0 01-4.094-.833c-.904-.809-.88-3.046-.785-4.26.904-10.877 3.284-24.776 3.546-25.561.785-2.38 2.523-3.761 5.046-2.38 4.498 2.356 24.157 17.445 24.537 17.731zm-1.285 5.831c1.381-.5 3.499-2.19 1.404-4.094-2.951-2.642-21.777-16.279-24.68-18.35a2.166 2.166 0 00-3.523.809c-1.047 2.856-3.641 24.681-3.879 27.061a2.592 2.592 0 003.118 3.023 284.574 284.574 0 0027.56-8.449zm-12.328 70.543c.214 0 .404.69.19 1.594-.214.905-2.38 6.379-3.475 9.282-5.664 14.828-5.117 22.396-6.878 22.158-2.38-.309 7.14-27.322 7.688-28.56.642-2.023 1.499-5.022 2.475-4.474z" fill="#000001"/><path d="M144.818 161.3a2.381 2.381 0 01-2.38 2.237 2.133 2.133 0 01-1.814-1.545 2.14 2.14 0 01-.066-.835 2.377 2.377 0 012.38-1.999 2.048 2.048 0 011.88 2.142zm-2.642-5.093c0 .857-.761 1.737-1.951 2.118-.809.238-1.357 0-1.857-.88-1.332-2.571-5.045-9.52-5.497-10.568-.453-1.047-.286-1.404.761-1.88s2.142-1.023 3.237-1.452a.975.975 0 01.904.238c.306.499.546 1.035.714 1.595 1.095 3.332 3.618 10.543 3.689 10.829z" fill="#000001"/><path d="M134.18 213.327c.107.79.107 1.59 0 2.38a6.524 6.524 0 01-3.166-2.094c-5.617-6.712-41.269-61.833-43.744-69.806a7.971 7.971 0 011.333-8.401c0 4.593 2.856 8.734 5.664 14.113 5.712 10.924 16.803 28.37 18.421 30.94 10.02 16.137 9.116 14.851 20.135 30.702a7.364 7.364 0 011.357 2.166z" fill="#fff"/><path d="M129.729 252.597c.69-1.404 1.5-.904.905.452-5.76 13.162-5.903 21.92-6.855 22.063-.952.143-.904-2.69.786-8.973a75.187 75.187 0 015.164-13.542zm-1.095-124.284a1.258 1.258 0 011.539.611 1.257 1.257 0 010 1.159 1.274 1.274 0 01-.391.45 1.259 1.259 0 01-1.148.16 1.332 1.332 0 01-1.166-1.356 1.118 1.118 0 011.166-1.024zm-3.879-15.97a.379.379 0 01-.226.358.383.383 0 01-.417-.072c-.666-1.071-6.759-25.514-9.139-34.867-.119-.476-.19-.81.333-.976.524-.166.786.476.857.786 9.068 36.247 8.425 33.51 8.592 34.771z" fill="#000001"/><path d="M125.493 334.54c-.691.762-1.238 1.476-1.904 2.095a21.876 21.876 0 00-4.118 4.879c-1.237 1.999-5.379 8.806-6.188 10.234a8.387 8.387 0 00-.5 1.713 6.098 6.098 0 01-5.045-1.19 27.315 27.315 0 001.666-2.237 79.254 79.254 0 005.141-8.235c1.38-2.975 4.498-4.95 6.711-9.686.167-.333.31-.667.714-.381 1.166.928 2.285 1.809 3.523 2.808zm-5.808-4.664c.786.452.881.476.238 1.761-2.213 4.403-3.903 4.331-7.854 11.067-1.642 2.784-3.355 5.545-5.188 8.544a9.661 9.661 0 01-1.499-4.07 1.94 1.94 0 010-1.047 8.044 8.044 0 00-.857-7.64c-.476-.666-.857-1.428-1.357-2.38 7.949-7.783 5.593-6.64 7.569-11.543l2.641 1.88c-2.237 4.07-2.522 6.45-5.569 9.973-.357.4-.669.839-.928 1.309a.945.945 0 000 .88 1.144 1.144 0 001.523-.476 21.818 21.818 0 004.951-8.592l1.047-2.38c1.975 1.024 3.641 1.833 5.283 2.714z" fill="#fff"/><path d="M119.876 357.365c.261-.093.533-.149.809-.167-1.214 2.38-2.38 4.76-3.427 7.14-8.758-4.213-23.015-.405-29.964 4.617l-1.642 1.214c-3-3.308-5.641-7.14-12.329-8.14-5.855-.857-7.592-1.095-12.9.667-.642.214-.928.238-1.38-.429a10.896 10.896 0 00-4.403-4.307 21.626 21.626 0 00-7.568-1.833 7.256 7.256 0 010-1.761c1.047-4.76-3.094-7.688-.405-8.164 7.283-1.356 8.711-.523 14.875-2.641l.595-.143c0 3.141.857 9.282 3.38 11.448a8.925 8.925 0 003.665 1.856c8.282 2.094 15.351 4.141 18.802 3.808a3.087 3.087 0 002.196-1.341 3.093 3.093 0 00.422-2.538 127.172 127.172 0 01-1.975-17.327c.093-.352.303-.662.595-.881a72.115 72.115 0 019.163-6.116c1.499 1 2.546 3.974 4.188 6.569.215.404.5.785.714 1.19a7.143 7.143 0 01-.404 7.14c-1.262 2.094-4.213 2.142-6.688 5.283a.748.748 0 00-.23.658.74.74 0 00.42.556c3.547-2.38 3.428-2.38 3.808-1.452a13.5 13.5 0 009.187 8.235c4.427 1.333 7.426-1.261 10.496-3.141z" fill="#F1D7F2"/><path d="M108.714 321.712c.595.785.452 3.998-1.69 7.592a29.124 29.124 0 01-3.975 4.451c-.976.904-1.761-.5-1.785-.548-.999-1.618-1.285-1.904-2.38-2.38a44.07 44.07 0 017.569-11.543 27.46 27.46 0 012.261 2.428z" fill="#fff"/><path d="M107.595 203.069c.666-.547 1.452 0 .833.666-1.166 1.357-23.49 27.228-27.75 31.845-1.12 1.214-1.595 0-1.072-.5.524-.5 27.703-31.749 27.989-32.011z" fill="#000001"/><path d="M105.81 315.024c0 1.19.262 1.928-.452 2.88a90.125 90.125 0 00-8.973 13.471c-.285.476-.309.428-3.308 2.38a4.759 4.759 0 01-.452-3.951 8.33 8.33 0 00-1.975-8.021.987.987 0 01-.284-.794 1.004 1.004 0 01.426-.729c.857-.833 1.666-1.666 2.523-2.38 3.094-2.88 2.999-6.949 4.141-8.282l2.571 1.833a45.243 45.243 0 01-5.284 9.781c-.452.667-1.428 1.666-.809 2.214.619.547 1.523-.643 1.666-.786a34.646 34.646 0 005.522-9.782c.214-.452.499-.618.999-.356l2.69 1.404a1.545 1.545 0 01.999 1.118z" fill="#fff"/><path d="M94.933 116.746c1.071 1.309.5 1.857-.642.619-29.488-32.582-30.13-32.868-29.012-33.391.31-.167.642.143.88.404 4.356 4.356 28.727 32.321 28.774 32.368z" fill="#000001"/><path d="M89.935 324.045a7.139 7.139 0 01.215 7.592 3.455 3.455 0 01-3.308 2.07 22.305 22.305 0 00-6.736 1.214c-.952.333-1.904.571-3.118.928-.857-10.21-1.785-11.471-.476-12.518a60.313 60.313 0 018.283-5.808c1-.642.928.334 5.14 6.522z" fill="#F1D7F2"/><path d="M89.721 175.58c0 .167 0 .476-.404.619-1.285.571-32.82 14.28-36.557 15.732-.5 0-.738-.476-.428-.809 1.166-1.357 30.368-13.233 35.938-15.351.38-.191 1.237-.548 1.451-.191z" fill="#000001"/><path d="M88.912 357.079c.19 1.095-.428 1.856-1.547 1.713a104.044 104.044 0 01-17.065-3.76 8.086 8.086 0 01-3.998-1.952 22.106 22.106 0 01-2.047-10.757 2.621 2.621 0 011.761-1.761c6.879-2 4.284-.857 11.9-3.071 5.498-1.594 7.854-2.737 11.067-1.38a4.207 4.207 0 00-1.975 3.618 118.1 118.1 0 001.904 17.35z" fill="#FC6DBF"/><path d="M77.726 138.143c.143.143.5.714-.833.404-1.333-.309-39.794-9.52-40.293-9.52-.5 0-.762-1.451.952-1.047 5.379 1.285 28.56 7.14 28.87 7.14 5.259 1.285 10.757 2.38 11.304 3.023z" fill="#000001"/><path d="M75.132 336.016c0 1.19-1.5.476-9.116 2.713a6.846 6.846 0 00-2.88 1.642 1.112 1.112 0 01-.856.31c-2.19-.524-4.38-1.048-6.521-1.714-1.286-.262-1.928-.809-2.38-2.38a26.917 26.917 0 01-1.5-7.402 3.852 3.852 0 01.12-1.475 2.38 2.38 0 011.737-1.928l7.02-1.904c7.14-1.952 8.545-2.904 11.9-3.308 2.523-.334 3.118-.381 3.523.761a3.789 3.789 0 00-1.809 3.546c-.143 1.595.452 6.95.762 11.139z" fill="#FC6DBF"/><path d="M57.306 341.466c.785.214 1.618.381 2.523.595-1.214 1.261-7.664 1.261-11.9 2.213a3.243 3.243 0 01-1.833-.261 48.508 48.508 0 00-6.926-2.618 37.135 37.135 0 00-3.689-.5 13.47 13.47 0 00-1.309-8.187c-.214-.81 0-1.167.833-1.309a116.137 116.137 0 0015.09-2.88 35.94 35.94 0 001.975 9.163 7.4 7.4 0 005.236 3.784z" fill="#F1D7F2"/><path d="M40.36 343.442c0 .547-2.023 0-5.022.357-5.997.547-18.73-7.783-18.088-10.044.429-1.547 1.833-2.737 6.07-3.118a91.552 91.552 0 019.4 0 3.188 3.188 0 00.143 3.213 10.852 10.852 0 01.88 6.069c-.309 2.095-.214 1.833 1.786 2.38 1.999.548 4.831.238 4.831 1.143z" fill="#0082EE"/><path d="M450.101 231.201l-40.46 5.164a2.204 2.204 0 01-.143-.571c.286-12.543 3.784-27.679 3.832-36.366.167-31.988-.524-34.225-3.641-47.362-1.928-8.164-7.712-22.468-14.114-28.56-10.972-10.33-20.373-16.399-33.32-14.661a1.155 1.155 0 01-.809-.333c-3.998-6.831-6.64-8.878-13.399-12.567-10.234-6.569-16.232-7.616-27.751-11.543a15.962 15.962 0 01-4.76-2.38 51.127 51.127 0 01-9.163-9.306c-.452-.547-.357-.856.143-1.332a13.185 13.185 0 002.856-12.78 8.442 8.442 0 01-.643-4.261 34.079 34.079 0 013.856-11.757c1.19-2.38-2.095-3.094-3.785-3.904 5.403-1.285 7.14.905 7.854-1.237.453-1.38.881-2.76 1.214-4.189a2.387 2.387 0 00-.547-2.38 36.846 36.846 0 00-3.38-1.975c-.809-.405-.404-.167-.904-5.736a2.194 2.194 0 00-1.738-2.023c-2.522-.714-7.14.428-8.782.5-.452 0-.595-.262 0-.524a18.282 18.282 0 016.736-1.261c.69 0 1.475 0 1.904-.643a6.044 6.044 0 00-1.857-7.14c-2.38-1.523-7.687.143-10.258 1.047a11.678 11.678 0 001.928-5.664 2.525 2.525 0 00-1.118-2.237 19.85 19.85 0 00-3.475-1.928c-1.452-.5-2.071-.357-2.809.928a21.985 21.985 0 01-5.997 7.473.194.194 0 01-.155.08.192.192 0 01-.155-.08 3.498 3.498 0 01.191-1.69 23.117 23.117 0 012.189-3.855c2.38-3.594-.69-4.617-4.76-5.998-1.666-.57-4.284 3.737-4.76 4.927-.476 1.19-.975 2.094-1.475 3.213-.286-1.38-.357-3.546-.619-4.38a2.377 2.377 0 00-3.07-1.595 27.69 27.69 0 00-2.737.81 2.853 2.853 0 00-1.833 2.57c-.404 2.238-.381 8.807-3.594 8.378-3.213-.428-1.023-4.379.238-7.425a1.454 1.454 0 00-.357-2c-.738-.666-.785-.69-4.545-2.38a1.598 1.598 0 00-1.946.033 1.59 1.59 0 00-.434.539 13.417 13.417 0 00-2.071 6.164c0 .476-.191.928-.238 1.38a.193.193 0 01-.179.124.19.19 0 01-.178-.124 15.077 15.077 0 00-.738-1.69c-.976-1.88-2.523-3.879-3.856-3.355-2.38.904-5.878 2.784-4.902 5.164 1.451 3.499 3.808 6.498 2.998 10.258-.404 1.88-2.832-3.308-6.187-5.807-3.356-2.5-6.474 2.975-7.14 5.902a1.33 1.33 0 00.69 1.571 21.274 21.274 0 015.973 4.498c.476.453.215.928-.452 1a26.185 26.185 0 01-7.259-2.57 2.735 2.735 0 00-4.022 1.475 8.403 8.403 0 00-1.285 4.38 1.645 1.645 0 001.063 1.538c.208.078.429.113.651.104 1.951 0 8.925 1.142 8.353 3.141-.381 1.38-8.139-.714-10.615-.238a1.333 1.333 0 00-.999 1.142 16.05 16.05 0 00.381 6.474 1.333 1.333 0 001.594 1.047s8.949-1.832 9.163.238c.167 1.38-3.022 1.714-8.235 3.118-1.309.357-1.499 1-1.38 2.38.153 2.08.754 4.1 1.761 5.926a1.572 1.572 0 002.166.429l1.047-.667c6.236-3.213 6.379-2.88 9.83-3.284a42.96 42.96 0 003.236 16.184c-1.737.285-3.379 1.737-1.903 4.617.309.595.928.762 1.237.5.309-.262 0-.928-.309-1.595-.452-1.57 1.499-2.641 1.951-1.713a10.546 10.546 0 003.784 4.45 3.959 3.959 0 00-.672 3.353 3.962 3.962 0 002.196 2.621c.856.595 1.38.833 1.475 1.214 1.5 14.113 10.425 21.586 20.635 20.872a23.354 23.354 0 008.33-2.38c.166 0 .452.357.761.691a64.019 64.019 0 00-10.662 7.901c-4.76 4.974-7.544 13.471-9.853 21.158 0 0-5.188 18.231-8.497 34.272a3.854 3.854 0 001.88 4.261 1.144 1.144 0 01.572 1.261c-3.404 23.253-2.904 20.706-5.379 20.492a78.623 78.623 0 01-11.257-1.833 126.021 126.021 0 00-13.543-2.213c-9.662-1.714-10.853-2.642-23.8-3.07-2.38 0-3.26.142-7.759 0a16.207 16.207 0 00-4.76.571c-.571.166-.951-.524-1.237-1.047-19.778-37.747-26.966-52.479-30.107-57.525-1.214-1.928-2.713-4.451-9.092-3.665-11.757 1.285-46.624 5.236-58.024 8.425-8.782 2.38-11.257 8.592-8.592 15.018 4.76 11.662 31.583 51.741 39.175 62.737a59.595 59.595 0 005.402 7.14 8.836 8.836 0 004.499 2.213 65.984 65.984 0 017.949 2.594c-2.071 1.238-7.973 9.52-9.02 11.734-4.57 9.353-5.498 14.66-12.472 21.658a57.381 57.381 0 00-7.14 8.425A90.324 90.324 0 01107 273.16a4.766 4.766 0 01-3.975 2.166c-.999 0-99.674 12.685-102.22 12.995-.381 0-.834 0-.786.595.048.595.88.642 1.69.547 7.997-.976 101.412-12.876 102.34-12.971-2.38 3.998-13.352 9.853-11.9 21.42 1.023 8.044 4.522 8.901 3.498 10.543-1.618 2.523 0 5.046-6.616 10.925a9.908 9.908 0 00-2.38-3.404 1.804 1.804 0 00-1.309-.56 1.797 1.797 0 00-1.309.56l-6.355 4.308a3.686 3.686 0 00-4.07-1.69c-6.092.69-9.972 2.951-12.685 3.38a48.547 48.547 0 00-8.21 2.189 4.025 4.025 0 00-1.833 1.619 1.93 1.93 0 01-1.071.857 114.642 114.642 0 01-13.447 2.737c-1.928.452-16.018-1.809-19.183 1.428a30.926 30.926 0 00-5.783 8.425c-2.024 4.212 2.38 5.45 6.497 8.116a2.382 2.382 0 002.904 0c.904-.595 1.665-.191 1.546.856a2.738 2.738 0 001.143 2.499c.928.691 0 1.024-.905 3.071-2.213 4.331 2.38 5.593 6.474 8.33a3.07 3.07 0 003.19 0c2.38-1.357.166 2.38 3.189 3.998 0 0 4.355 2.142 6.878 3.142a3.005 3.005 0 003.332-.714c1.118-1.048 1.404-.691 1.76.642.167 1.976 1.881 2.713 10.116 5.498a3.877 3.877 0 004.189-1.19c1.237-1.238 1.547 1 1.547 1.19 0 2.642 4.76 4.07 7.14 4.95.618.215 5.022 1.643 6.069.381 1.047-1.261 1.713-1.499 1.547 0-.143 1.166 0 1.547 1.142 2.023a37.087 37.087 0 008.473 2.999c2.927.762 2.523-2.261 4.189-1.809 1.094.286-1.857 2.785 2.38 4.165a41.315 41.315 0 007.14 2.19c3.332.5 2.618-2.023 3.712-1.642 1.095.38-.833 2.38.881 3.26a55.151 55.151 0 008.163 2.69c1.428.309 2.166-1.571 2.238-2.999.364-2.9.364-5.835 0-8.735a3.332 3.332 0 010-1.928c4.379-13.899.476-11.019 3.593-17.516.738-1.547 1.547-3.047 2.142-4.641a17.488 17.488 0 001.143-9.52 1.424 1.424 0 010-.833c4.498-7.45 3.165-5.284 6.878-7.831-.143 1-.19 1.785-.333 2.38-2.142 10.758 5.998 26.18 18.421 32.464 20.468 10.305 58.786 7.092 65.426 6.854 19.754-.738 29.869-.833 49.98 4.379 12.162 2.856 30.94 5.617 43.245 3.57 26.18-4.331 6.616-3.808 53.288-10.353a128.724 128.724 0 0031.654-10.377c10.234-5.497 20.944-19.206 25.133-29.702 8.235-20.516 6.807-20.087 7.354-33.32.595-14.899-5.545-35.367-11.257-49.98a45.067 45.067 0 01-3.427-17.255c0-.571.119-.857.666-.928l40.817-5.117c1.047-.072 2.166-1.69-.952-1.285zM347.761 97.754a22.822 22.822 0 019.853 7.949 54.74 54.74 0 0110.448 26.823c2.238 11.9 2.952 32.463 2.975 44.482 0 .167.286.238.191.357-.25.137-.526.218-.809.238-31.345-.809-12.472-1.88-48.672 2.38-.285-3.689.262-6.593-.237-17.517a12.492 12.492 0 011.332-5.402 64.05 64.05 0 0122.015-27.87c1.524-1.071.833-2.594-1.999-.857-5.807 3.546-11.257 10.686-14.827 15.946-2.023 2.999-3.166 4.974-3.856 5.974 0-11.9.452-31.154 6.926-41.388 3.046-4.76 5.76-8.925 11.162-10.734a7.736 7.736 0 015.403-.38h.095zM199.82 266.448c1.737 2.071 3.499 4.142 5.212 6.236 4.76 5.831-8.044 6.973-10.971 7.497a1.166 1.166 0 00-.833 1.952c.809 1.19 6.568 4.403-1.69 9.091-14.042 7.973-16.66 14.566-22.087 22.753-5.926 9.044-4.926 6.997-6.235 10.329-2.237 5.807-10.163 8.306-18.136 9.52-14.28 1.976-13.756 1.262-27.917-7.878-5.355-3.451-8.592-4.902-9.235-11.186-.571-5.807-.88-8.496 2.951-12.899 8.235-9.52 8.83-8.283 14.828-16.851 12.352-17.731 11.9-14.97 15.541-19.42 6.783-8.592 10.544-27.823 27.489-38.533.289-.186.636-.262.976-.214.238 0 46.267 10.996 48.814 9.901 3.808-1.642 17.969-13.138 20.111-14.875a3.336 3.336 0 011.714-1 26.676 26.676 0 007.377-2.142 2.382 2.382 0 012.833.667 13.578 13.578 0 006.069 3.046c3.522.738 7.14-1.19 7.806-.976.286 0 .429.619.619.976a1.637 1.637 0 001.547.881 8.504 8.504 0 002.047-.238 1.783 1.783 0 001.499-1.357c0-.476.452-.547 1.047-.476 7.402.667 8.592-.309 8.64 1.262a21.773 21.773 0 002.999 11.543 83.823 83.823 0 017.473 17.112c2.213 7.402.952 7.14 3.046 20.277.143.786.143.833-.666.881a38.242 38.242 0 00-10.258 1.238c-7.378 1.618-7.711.928-18.493.19-17.255-1.166-32.606 2.38-43.125 1.238a27.784 27.784 0 01-20.992-11.877c-.809-1.142-2.713-.023 0 3.332zm-95.2 72.043c-.476-.69-.857-1.428-1.357-2.38 7.95-7.783 5.593-6.64 7.569-11.543l2.642 1.88a43.808 43.808 0 00-1.857 3.832c-2.38 5.95-5.45 6.95-4.569 8.33a1.144 1.144 0 00.88 0c.381-.19.405-.167 3.07-3.737a26.518 26.518 0 002.523-5.402l1.047-2.38c1.833.928 3.499 1.737 5.141 2.618.833.452.809.547.429 1.38-2.047 4.379-4.07 4.76-8.045 11.448-1.618 2.785-3.379 5.522-5.188 8.52a9.523 9.523 0 01-1.5-4.046 1.959 1.959 0 010-1.047 7.965 7.965 0 00-.785-7.473zm-1.547-4.76c-.976.904-1.761-.5-1.785-.547-1-1.619-1.285-1.904-2.38-2.38a43.653 43.653 0 017.568-11.543 26.956 26.956 0 012.166 2.499c.595.785.452 3.998-1.69 7.592a29.006 29.006 0 01-3.903 4.403l.024-.024zm6.307 16.303a79.36 79.36 0 005.141-8.235c1.356-2.927 4.189-4.617 6.521-9.306.286-.571.428-1.118.904-.761 1.143.88 2.38 1.809 3.523 2.808-.69.762-1.238 1.476-1.904 2.095a23.046 23.046 0 00-4.118 4.879c-6.426 10.591-6.354 10.186-6.687 11.9a6.088 6.088 0 01-5.046-1.19 18.53 18.53 0 001.666-2.19zm135.874-140.42c-.381 0-.833-.19-.928-.666-.095-.476-.762 0-.762.357s-.547 1.071-1.023 1.475c-1.214 1.047-2.38 2.142-3.665 3.166-1.285 1.023-2.237 1.404-2.737 2.808-.167.428-.762.167-1.095 0a2.78 2.78 0 01-1.252-2.195 2.777 2.777 0 011.038-2.303c.181-.234.408-.428.666-.571a13.426 13.426 0 003.308-3.142c2.214-2.38 3.999-2.642 2.38-3.522-1.618-.881-.761-.143-1.808.952a25.535 25.535 0 01-4.975 4.76 6.17 6.17 0 00-1.951 2.856 6.065 6.065 0 01-4.403 3.617c-.5 0-1.047.214-1.357-.333-.309-.547 0-.904.405-1.214a8.87 8.87 0 002.665-4.308c.223-.483.503-.939.833-1.356 1.762-2.38 1.167-3.427 4.951-5.379l2.094-1.119a1.331 1.331 0 00.762-.904.364.364 0 00-.101-.304.35.35 0 00-.14-.086.352.352 0 00-.164-.015c-1.296.282-2.53.798-3.641 1.524a7.903 7.903 0 00-2.951 2.38 14.527 14.527 0 01-1.214 2.38 8.68 8.68 0 00-1.595 2.023c-.523 1.094-.571 2.618-2.38 3.784a3.28 3.28 0 01-2.213.547.765.765 0 01-.381-1.166c1.618-1.785 3.308-2.38 4.451-5.569a9.23 9.23 0 013.617-4.498 6.941 6.941 0 001.643-1.69 9.999 9.999 0 014.997-3.285 10.627 10.627 0 015.308.357 20.069 20.069 0 016.521 2.714c2.523 1.594 5.284 2.618 7.902 3.974a39.602 39.602 0 003.95 1.833c2.999 1.118 3.404.357 3.761 1.571.744 3.058.977 6.219.69 9.353 0 .643-.452 1.238-1.023 1.142-1.881-.285-3.118 1.524-7.545 1.333a7.488 7.488 0 01-2.38-.738 12.203 12.203 0 01-4.093-2.546c-1.024-.976-.001-.976.975-2.618 0-.262 0-.667-.809-.405a32.956 32.956 0 01-7.497 3.856 20.36 20.36 0 01-4.094 1.071c-2.737.523-3.355-2.047-1.428-3.523 1.214-.904 2.547-1.808 3.666-2.784 1.118-.976 2.165-1.809 3.237-2.761a.396.396 0 00.285-.476.391.391 0 00-.476-.286l-.024-.071zm22.301 5.26a26.765 26.765 0 00-2.047-9.663c.167-.214 1.595-.167 1.904 0 .309.167.666.571 1.095 1.809a37.235 37.235 0 011.118 10.757 10.205 10.205 0 01-.499 2.809c-.357 1.333-.952 1.618-2.38 1.333.166-.453.357-.905.523-1.381.439-1.83.544-3.725.31-5.593l-.024-.071zm17.017 18.564a22.066 22.066 0 01-3.356-10.948c0-.524 0-1.071.667-1 17.778 1.214 15.874 1.809 25.918 2.214 9.358.649 18.749.649 28.108 0 14.779-1.452 19.04-4.403 23.228-19.612.191-.571.476-.499.595-.333-.904 14.399-7.33 24.038-8.496 34.51a50.785 50.785 0 01-7.14 16.898 30.735 30.735 0 01-23.181 13.376 91.363 91.363 0 00-14.566 2.642 32.438 32.438 0 01-10.282 1.142c-.523 0-.69-.262-.785-.762-.833-4.046-1.214-23.728-10.686-38.056l-.024-.071zm73.542-31.202c-5.07 19.278-10.972 18.112-26.656 19.849-8.442.581-16.917.502-25.347-.238-11.662-.809-17.017-1.951-34.153-2.38h-1.404a44.924 44.924 0 00-.833-12.4l31.844-8.187c13.09-3.308 21.825-3.665 25.704-7.616 1.595-1.618 1.452-3.998 1.833-8.877 0-.524 0-1.19.261-1.523.262-.334.952 0 1.452-.143 17.969-2.38 15.018-2.38 24.514-2.19 6.117 0 6.641 0 6.641 1.761a83.819 83.819 0 01-3.832 22.015l-.024-.071zm-79.302-.333c2.166-41.412 7.14-78.326 9.782-91.44 1.404 4.237 3.308 9.02 7.14 9.52 4.26.643 9.949-4.76 12.638-8.377a48.894 48.894 0 007.378-15.209c2.071-6.33.286 2.642-1.523 9.687-.762 2.904-4.76 13.518-7.973 25.728a90.62 90.62 0 00-3.427 24.323c-.167 2.523-1.976 9.901-2.38 14.875 0 .453.333-3.927-2.381 24.776-.142 1.523-.476 2.713-2.38 3.023-1.903.309-13.494 3.665-15.755 4.046-1 .214-1.143.047-1.095-.881l-.024-.071zM319.82 85.735c4.498 1.119 23.086 7.52 23.99 10.163a17.201 17.201 0 00-7.425 3.76c-13.376 10.853-13.067 30.75-14.161 48.076-.786 9.258-2.642 10.853-2.119 18.04.167 3.237.167 13.162 0 14.59-.119 3.046 4.522 3.546 6.95 3.594a10.358 10.358 0 01-.452 5.045 6.018 6.018 0 01-4.213 3.451c-1.023.31-20.873 4.927-23.133 5.165 3.403-39.032 4.022-33.035 4.998-42.412.245-5.733.937-11.439 2.07-17.064.714-3.451 5.45-19.659 5.474-19.707 1.047-3.498 3.261-8.734 4.403-13.994 3.975-17.707 1.547-19.16 3.642-18.635l-.024-.072zm-85.68-30.63c-.476.285-.762.166-.905-.381-1.404-5.498-1.499-5.284.262-5.831 5.855-1.928 7.902-1.785 8.211-3.76.524-3.428-6.64-2.643-9.877-2.071-.833.143-.976.166-1.095-.69a37.813 37.813 0 01-.381-4.356c0-2.26 1.928-.333 10.044-.69 1.476 0 5.474-3.856-7.925-5.95a.478.478 0 01-.405-.428c0-1.357 1.357-5.07 2.785-4.76a86.444 86.444 0 008.639 3.07 2.001 2.001 0 002.38-1.404c.571-1.88-5.022-5.665-6.712-6.474-.666-.333-.761-.738-.523-1.285.571-1.285 3.022-5.57 4.498-4.213 3.737 3.475 4.903 5.093 5.879 5.926.975.833 2.38.643 2.689-.928.857-3.713 0-5.307-2.546-10.686-.548-1.19-.548-1.38.475-2.095a15.855 15.855 0 012.047-1.166 1.5 1.5 0 011.999.381 13.233 13.233 0 013.309 7.402c.333 2.594 1.428 1.357 1.475.976a27.744 27.744 0 011.547-10.806c.786-1.808 1.047-1.832 2.547-1.094l3.237 1.523c-2.142 3.498-3.808 8.64.142 9.734a2.978 2.978 0 003.332-.857c1.976-2.523 2.071-4.308 2.523-8.949 0-.69.286-1.166 1.024-1.332.737-.167 1.761-.476 2.665-.62a1.049 1.049 0 011.214 1 17.782 17.782 0 010 6.522c0 .238-.619 1.309.143 1.713.762.405 1.571-1.07 2.118-2.237 1.428-3.07 3.665-9.71 6.45-8.64 1.642.62 4.355 1.524 3.451 3-1.856 3.07-3.403 4.76-2.808 7.734 0 .81.975 1.405 1.975.477 7.663-7.022 5.712-9.259 7.901-8.402a31.465 31.465 0 013.071 1.618c.666.381.618 1.238.404 1.928-1.428 4.76-2.879 5.522-6.164 7.997-.857.643.191 1.737.833 1.357a21.943 21.943 0 0113.614-4.76c2.094 0 2.38 4.14 2.523 5.617-5.903 0-9.52 1.713-9.83 3.189-.309 1.475 1.452 1.808 3.403 1.428 4.903-.5 7.569-1.31 7.855.285a43.6 43.6 0 01.238 4.641c0 .595-.524.453-.953.476-3.498-.119-4.759.238-5.664.88-.904.643-.452 1.167.643 1.048a16.182 16.182 0 018.044.476c1.428.524 2.38 1.119 2.38 1.785 0 .666-.857 2.642-1.071 3.57-.143.524-.452.643-1.023.643-9.734 0-7.688 2.38-6.64 2.95 3.141 1.62 3.808 1.881 3.165 2.904a32.21 32.21 0 00-3.832 11.71c-4.284-4.141-11.686-1.5-13.375 4.189a5.168 5.168 0 01-4.499 2.951c-2.38.238-.262-2.832 0-3.427 1.833-4.094-7.306-.405-5.331-4.76.785-1.785 3.165-3.832 0-5.117-7.14-2.975-3.784-7.14-2.88-7.735.905-.595.381-1.595-.666-.976 0 0-6.474 4.76-5.545 1.047.309-1.261-.786-1.452-1.286-.452-1.475 2.927-7.306 7.14-10.734 2.927-1.785-2.38-.975 0-8.425 5.712a12.614 12.614 0 01-7.14 2.523 26.679 26.679 0 00-12.78 4.094l-.119-.072zm41.126 46.171c-10.258-.476-16.089-9.377-17.041-18.73a9.262 9.262 0 005.451 0c.38-.167 1.142-1.357-.334-1.31-4.331 0-6.973-.88-8.234-2.736-1.714-2.547 1.047-4.546 5.497-3.594 1.857.405 2.547-.833.667-1.238a10.257 10.257 0 00-4.26-.214c-1.095.286-.5-.666-1.904-1.594-.786-.62-1.524-.238-1.595.761v.81a7.135 7.135 0 01-2.261-2.928c.762 0 1.594-.214 1.928-.833.333-.619-.191-1.928-.762-1.475a2.38 2.38 0 01-2.189.547 51.882 51.882 0 01-3.142-15.494c0-.595 0-.857.809-.952 6.14-.81 8.735-3.808 13.304-8.092.357-.333.5-.547.952 0 3.999 3.57 8.616.88 11.162-1.809.453 1 2.381 1.404 4.57 0-.476 3.642 1.619 5.498 4.76 6.664 2.118.786.309 1.666-.547 4.427a2.686 2.686 0 001.327 3.338c.393.195.828.291 1.267.28h3.118c-.881 1.594-1.833 2.856-1.19 4.284a1.785 1.785 0 001.38 1.166 5.38 5.38 0 006.259-3.285 9.044 9.044 0 014.023-4.76c4.641-2.38 9.52 1.143 10.043 7.379.357 4.76-2.38 9.948-6.997 10.757a7.143 7.143 0 01-4.546-1.261.603.603 0 10-.714.975 8.5 8.5 0 003.642 1.738c1.928.5 3.832 1.142 5.759 1.642 1.928.5 2.023 1.404 9.52 7.925 1.214 1.024 2.023 1.547 1.5 4.308a57.882 57.882 0 01-4.189 13.709c-2.927 6.355-10.067 17.755-16.97 16.66-4.617-.666-6.33-13.495-6.378-13.852-.143-.809 0-.309 4.76 3.927.214.215 1.095.762 1.357.238.261-.523-.357-1.261-.667-1.523-1.332-1.142-3.808-3.665-5.712-5.545a1.957 1.957 0 01-.343-2.344 1.93 1.93 0 01.558-.631 37.368 37.368 0 0012.042-13.28c.238-.5.881-1.476.357-1.643-.523-.166-1.047.215-2.046 1.81-4.641 7.758-14.685 16.302-23.872 15.85l-.119-.072zm11.733 1.5a1.857 1.857 0 01.429 1.666c-.786 6.735-1.119 9.663-1.309 11.233-.309 2.714-3.546 18.017-7.354 57.715 0 0-1.666 26.609-1.619 29.393a.946.946 0 01-.785 1.095c-7.426 1.88-7.283 1.976-7.688 1.024a1.242 1.242 0 00-.737-.738 5.21 5.21 0 00-1.595-.262c.167-1.547 4.76-24.133 6.926-39.008 3.546-23.3 3.689-37.128 12.495-60.976a1.647 1.647 0 011.356-1.071l-.119-.071zm-27.679 61.689c1.095-7.473 7.307-31.154 9.663-38.698 2.856-9.211 6.973-16.208 15.256-21.04-8.259 22.92-9.52 38.08-12.21 60.048 0 .357-.214.523-.571.476a55.585 55.585 0 00-12.138-.786zm-62.142 20.349c9.068.381 7.426 0 9.52.215a104.69 104.69 0 0122.467 3.094c1.809.333 6.069.737 9.521 1.38a123.993 123.993 0 0013.518 2.523c1.119 0 7.949.88 8.211-.262.143-.619-.524-.595-.905-.785-.38-.191-1.237.214-1.427-.429 0-.214 4.117-23.062 4.117-23.11 0-.047.166-.642.238-.975a.588.588 0 01.444-.537.618.618 0 01.246-.011c2.534-.08 5.07.095 7.569.524.928 0 1.023.285.832 1.142-3.736 16.993-5.378 33.32-6.568 36.295a4.055 4.055 0 00-2.38 2.19c-3.023-1.523-6.26-2.737-9.211-4.546A28.562 28.562 0 00239.495 197c-2.38 0-4.023 1.333-7.14 3.213-10.234-2.38-9.52-1-9.235-3.118 0-.833-.761-.928-1.023-.214-.262.714-.428 1.595-.738 2.38-3.641 9.187-5.212 14.685-6.331 12.471-1.118-2.213.262-7.473.476-10.091a2.852 2.852 0 00-1.832-2.737 10.565 10.565 0 00-6.188-1.499 40.853 40.853 0 00-5.736 1.761 2.597 2.597 0 00-1.699 2.545c.016.365.108.722.271 1.049.5 1.404 1.023 2.808 1.476 4.212a1.965 1.965 0 01.113 1.593 1.944 1.944 0 01-1.113 1.144c-.762.476-1.357.262-1.547-.619-1.381-7.306-3.689-6.069-2.832-9.52 1.071-4.093 1.642-3.831 7.568-5.926 2.023-.714 1.166-2.094 0-1.547-3.308 1.619-9.33 1.666-9.187 9.02a9.05 9.05 0 01-.571 2.119v1.856c-.381 2.047-2.023 2.118-2.166.857-.262-2.38-1.356-4.094-.809-5.26 1.69-3.094-.643-5.998 4.308-8.354l2.38-1.19c1.071-.523 0-1.19-.452-.999-5.593 1.999-5.736 3.046-6.617 5.664-.309.881 0 1.238-.5 3.07-2.713-.976-1.356-1.737-.404-6.212.571-2.618 2.689-2.998 5.759-4.379 1.714-.785 1.214-1.594.524-1.404a13.39 13.39 0 00-2.689.785 8.857 8.857 0 00-4.046 2.714 1.632 1.632 0 01-.357.19c-.572-1.476 3.165-5.95 8.02-5.76zm15.637 28.061a1057.48 1057.48 0 00-10.02 8.115 1.665 1.665 0 01-1.523.286l-7.664-1.523 4.998-3.808a1.641 1.641 0 011.5-.381c1.57.381 3.165.619 4.76.881.333 0 .952.333.999-.31.048-.642-.476-.547-.904-.619l-4.76-.833c4.141-3.236 5.069-3.974 5.26-4.069a2.68 2.68 0 011.88 0c1.618.38 2.38.571 2.666.595a.473.473 0 00.289-.112.472.472 0 00.121-.574.477.477 0 00-.22-.219l-3.094-.785c1.475-1.119 4.117-3.166 5.165-3.88.428-.404.69-.833.142-1.023-.547-.19-9.377-1.428-10.21-1.547a1.243 1.243 0 010-.286l2.38-1.094c1.737-.857 1.714-1.524 1.095-1.381-1.096.36-2.163.806-3.189 1.333-1.095.547-1-.5-.476-.881a26.015 26.015 0 014.545-1.642 7.149 7.149 0 016.165.833c2.189 1.357 1.785.905 1.118 5.165-1.023 6.926.786 6.331-1.023 7.759zm-23.348-12.567c-2.88-.976-5.878-1.047-9.02-1.856l7.901-4.189c-.142 1.333-1.047 2.38-.856 3.499a3.805 3.805 0 001.975 2.546zm7.83 5.974a25.633 25.633 0 001.452 4.022 2.143 2.143 0 002.856.667 3.951 3.951 0 001.833-2.095 8.697 8.697 0 00-.833-3.974c-.167-.833 0-1.095.928-.952l7.283 1.332a32.184 32.184 0 01-4.76 3.689c-.905.381-1.238 0-1.88 0a.392.392 0 00-.225.109.386.386 0 00-.109.225c0 .547.714.499.881.737-1.666 1.262-3.546 2.618-5.189 3.951a1.62 1.62 0 01-1.38.286l-9.758-1.857 8.901-6.14zm-1.856-.143c0-.857.238-1.666.381-2.594 1.332 1.642 1.333 1.69-.381 2.594zm-7.83 5.546a2.037 2.037 0 01-1.643.357c-6.521-1.286-8.353-1.381-9.877-1.952.881-.738 3.785-2.38 5.998-3.879a1.696 1.696 0 011.309-.191c1.856.405 3.737.738 5.617 1.071a.662.662 0 00.476 0c.15-.127.265-.291.333-.476a.759.759 0 00-.357-.285c-.571-.143-4.76-.929-5.331-1.024a1.044 1.044 0 010-.262l5.522-3.474a14.148 14.148 0 011.071 5.259c0 1.167-.001 1.262 1.332 1.785l-4.45 3.071zm.714-10.639c-.619.405-3.975 2.523-5.117 3.284a2.777 2.777 0 01-2.237.405c-2.047-.452-4.118-.833-6.188-1.214h-1.143a1.237 1.237 0 000 .31c.214.142.428.404.69.452 6.498 1.214 6.164.952 6.664 1.356a61.778 61.778 0 01-5.783 3.785 2.003 2.003 0 01-1.714.285l-8.33-1.475c-.285 0-.69-.238-.904 0a.503.503 0 00-.167.285c0 .667.619.5.928.571 2.618.524 5.26 1 8.188 1.524-4.165 2.951-4.213 2.665-4.974 3.57a1.546 1.546 0 01-1.524.333c-9.901-2.047-10.519-2.166-11.091-2.237a.216.216 0 01-.214-.191c0-.309-.143-.214 7.711-4.355 16.994-8.973 16.161-8.568 16.661-8.497.499.072 7.615 1.381 8.544 1.809zm-12.995 9.925l9.972 1.832a.214.214 0 01.104.327.214.214 0 01-.104.078c-4.379 3.046-4.57 3.26-4.76 3.379a3.045 3.045 0 01-2.189.191c-9.52-2.023-9.14-1.571-9.925-2.19 5.807-3.308 5.902-3.713 6.902-3.617zm6.331 6.045c5.521-3.856 5.355-3.808 5.973-3.713 10.449 1.88 10.092 1.666 10.139 1.904.02.028.03.061.03.095a.16.16 0 01-.03.095 39.95 39.95 0 00-4.76 3.689 1.37 1.37 0 01-1.237.286c-2.737-.571-8.211-1.571-9.973-1.928a.235.235 0 01-.225-.162.238.238 0 01.083-.266zm-47.386-1.309a6.523 6.523 0 01-3.166-2.095c-5.712-6.735-41.364-61.832-43.84-69.805a7.971 7.971 0 011.334-8.401c0 4.593 2.856 8.734 5.664 14.113 5.712 10.924 16.803 28.37 18.421 30.94 10.02 16.136 9.116 14.851 20.135 30.702a7.93 7.93 0 011.357 2.118 8.86 8.86 0 01.095 2.428zm2.38.809c-.571-.19-1.214-.333-1.238-.904v-2a.397.397 0 01.063-.141.376.376 0 01.413-.144c25.49 5.379 57.12 15.446 81.872 18.35 1.047.119 1.571-.215 12.805-8.545 1.285-.952 1.785-2.38-.215-.975-3.07 2.38-8.425 6.069-11.614 8.068-.619.452-1.095.166-1.833 0a325.375 325.375 0 01-34.748-6.736c-1.308-.285-44.006-10.852-44.577-10.948-.571-.095.309-.404.476-.499 5.831-3.166 28.56-13.9 48.838-23.372.642-.286.809-1.452-1.024-.666-30.154 13.137-32.225 15.041-49.98 23.3a1.19 1.19 0 01-1.594-.524c-15.97-23.133-31.321-48.647-40.675-65.426-2.38-4.474-3.355-6.283-3.308-8.877a3.736 3.736 0 013.023-4.07c12.423-3.665 57.405-8.64 60.547-8.949a6.62 6.62 0 017.354 3.332c1.666 2.38 29.941 57.477 30.084 57.715a.694.694 0 01.026.873.692.692 0 01-.241.198c-2.38 2.071-4.355 3.546-2.689 6.307.5.833.452.904-.476 1.404-33.154 17.565-34.653 17.636-33.534 19.254a3.71 3.71 0 002.38 1.119l44.268 8.687a1.899 1.899 0 002.07-.547c1.809-1.666.857-.5 10.258-8.14a1.263 1.263 0 011.571-.214 1.926 1.926 0 002.642-.881c.412-.757.747-1.555.999-2.38.595-1.856 1.095-1.047 8.235-7.14.976-.785.262-1.452-.571-.785l-5.95 4.76-.548.357a63.094 63.094 0 013.047-7.878l9.139 1.785c-.469.424-.962.821-1.476 1.19a7.666 7.666 0 00-3.022 3.427 20.255 20.255 0 01-4.76 6.736c-1.262 1.499-.762 2.998 1.19 3.403.401.074.806.121 1.214.143a3.049 3.049 0 001.487 2.179 3.055 3.055 0 002.63.201 20.17 20.17 0 003.784-2.38c.619.999 1.857 2.237 3.237 1.928a2.839 2.839 0 001.88 2.38c-8.496 6.616-16.945 13.661-20.468 14.28-1.856.618-56.382-9.806-80.991-18.255zm-41.96 84.99c-2.38-10.972 2.57-13.757 9.52-21.301 10.663-11.734 8.735-14.28 20.159-26.585 6.569-7.14 5.95-9.829 10.21-18.231a49.995 49.995 0 019.901-14.161 1.55 1.55 0 011.904-.404c11.448 3.379 15.637 3.974 19.849 5.26-.262.285-.523.571-.809.833-12.971 11.9-13.685 13.875-19.73 26.727a39.512 39.512 0 01-7.759 12.376c-11.9 12.733-9.044 12.067-15.66 20.04-7.402 8.948-9.806 9.972-14.423 15.969-2.38 3.166-1.999 5.355-2.38 9.973a38.434 38.434 0 01-7.14-4.594 10.66 10.66 0 01-3.642-5.902zm-3.903 18.778c.833-.833 1.666-1.666 2.523-2.38 3.07-2.88 2.999-6.95 4.141-8.282l2.571 1.832c-3.57 9.211-7.14 10.996-6.093 11.9.666.571 1.523-.642 1.666-.785a33.766 33.766 0 005.521-9.782c.215-.452.5-.619 1-.357l2.689 1.404a1.55 1.55 0 011 1.19c0 1.19.262 1.928-.452 2.88a88.28 88.28 0 00-8.973 13.471c-.285.476-.31.428-3.308 2.38a4.759 4.759 0 01-.452-3.951 8.33 8.33 0 00-1.975-8.021 1 1 0 01.142-1.499zm-14.28 3.046a60.393 60.393 0 018.283-5.807c1-.642.928.333 5.14 6.521a7.145 7.145 0 01.215 7.593 3.455 3.455 0 01-3.308 2.07c-2.296.044-4.57.454-6.736 1.214-.952.309-1.904.571-3.118.928-.928-10.21-1.785-11.471-.476-12.519zm12.4 33.749c.19 1.095-.428 1.856-1.547 1.713a103.941 103.941 0 01-17.064-3.76 8.086 8.086 0 01-3.999-1.952 22.106 22.106 0 01-2.047-10.757 2.621 2.621 0 011.761-1.761c6.855-2.047 4.284-.857 11.9-3.071 5.498-1.594 7.855-2.737 11.068-1.38a4.207 4.207 0 00-1.976 3.618 118.1 118.1 0 001.904 17.35zm-36.914-29.441a2.378 2.378 0 011.738-1.928c14.97-3.855 14.946-4.76 18.802-5.212 2.523-.333 3.118-.381 3.522.762a3.789 3.789 0 00-1.809 3.546c0 1.666.572 7.14.88 11.21 0 1.237-1.594.381-9.115 2.713a6.856 6.856 0 00-2.88 1.642 1.112 1.112 0 01-.856.31c-2.19-.524-4.38-1.048-6.521-1.714-1.285-.262-1.928-.809-2.38-2.38a26.917 26.917 0 01-1.5-7.402 3.856 3.856 0 01.12-1.547zm-17.064 3.761a101.276 101.276 0 0015.089-2.88 35.94 35.94 0 001.975 9.163 7.441 7.441 0 005.308 3.784c.785.214 1.618.381 2.523.595-1.214 1.261-7.664 1.261-11.9 2.213a3.243 3.243 0 01-1.833-.261 48.508 48.508 0 00-6.926-2.618c-1.238-.238-3.19-.476-3.689-.5a13.47 13.47 0 00-1.309-8.187c-.285-.81-.047-1.143.762-1.309zm9.71 17.921a11.305 11.305 0 01.595 6.64c-.166 1.357 0 2.38 1.285 2.142 1.943-.162 3.898.09 5.736.738a8.9 8.9 0 015.284 4.189c-.738.333-1.285 0-1.833-.214-7.711-2.38-21.182-6.736-26.537-12.733a2.383 2.383 0 01.093-3.194c.27-.282.606-.493.978-.614 3.094-1.048 5.688-.572 11.138-.857a7.946 7.946 0 013.166.143 4.02 4.02 0 00.095 3.76zm-21.42-18.588a91.55 91.55 0 019.401 0 3.26 3.26 0 00.143 3.213 10.64 10.64 0 01.88 6.069c-.285 1.88-.238 1.857 1.238 2.19 2.642.619 5.426.262 5.379 1.237 0 .548-1.976 0-5.022.357-5.998.548-18.73-7.782-18.088-10.043.428-1.547 1.785-2.737 6.07-3.118v.095zm-2.975 15.327a1.117 1.117 0 01-1.452 0c-7.758-5.069-7.592-3.07-3.284-10.829 2.69 3.951 10.186 8.283 13.685 9.52-1.31 1.595-2.523 3.094-3.784 4.594-.167.19-.62.404-.69.333-.072-.071-.572-.571-.548-.833a2.595 2.595 0 00-3.927-2.88v.095zm94.319 45.22c0 1-.309 1.048-1.237.738-6.712-2.261-6.379-1.38-6.331-3.237.286-2.57-3.284-3.522-4.094-1.475-.309.571-.571.666-1.261.571a42.247 42.247 0 01-7.402-2.38c-.5-.19-.69-.381-.547-.904.547-2.142.333-2.618-.666-2.928-1.666-.476-3.07-.666-3.737.809-.428.929-.524.952-1.523.691a28.306 28.306 0 01-7.426-2.38.626.626 0 01-.4-.35.621.621 0 01.02-.531c.713-1.975-2.595-3.522-3.69-1.904-1.404 2.094-7.735-.904-10.281-1.952a1.682 1.682 0 01-1.071-1.428c-.357-3.903-3.166-3.641-4.118-2.546a2.741 2.741 0 01-3.355.857c-8.64-3.047-8.116-2.833-8.33-4.237a2.382 2.382 0 00-2.38-2.38 2.389 2.389 0 00-2.023.714c-1.571 1.381-1.833.905-8.616-2.38a1.068 1.068 0 01-.69-1.285c.333-1.88-2.214-3.998-4.046-2.38a.976.976 0 01-1.333 0 49.935 49.935 0 01-5.736-3.808 1.807 1.807 0 01-.405-2.38l2.833-5.046c2.88 4.356 10.948 8.568 13.28 9.52 30.512 11.377 47.29 11.9 74.137 23.229.619.167.595.619.571 1.071.072 1.452 0 6.212-.143 7.664v.047zm-53.859-26.87l.619-.404a19.029 19.029 0 019.282-.786 16.836 16.836 0 0111.757 5.522 6.451 6.451 0 011.285 1.713l-22.943-6.045zm54.097 15.304c-.214.833-.428.999-1.261.714a195.512 195.512 0 00-25.942-8.997l-.547-.333c7.282-5.403 20.206-8.877 28.179-5.95.429.169.83.401 1.19.69a.933.933 0 01.285.738 37.257 37.257 0 01-1.904 13.138zm2.38-15.447c-8.758-4.212-23.014-.38-29.964 4.618l-1.642 1.213c-1.166-1.285-2.38-2.594-3.498-3.831a15.297 15.297 0 00-8.83-4.308c-6.283-.976-8.092-.905-12.9.666-.642.214-.928.238-1.38-.428a11.134 11.134 0 00-8.473-5.593 33.809 33.809 0 00-3.427-.476 7.256 7.256 0 010-1.761c1.047-4.76-3.094-7.688-.405-8.164 7.283-1.356 8.71-.547 14.875-2.642l.595-.142c0 3.141.88 9.258 3.38 11.447a9.054 9.054 0 003.665 1.857c8.258 2.166 15.35 4.165 18.802 3.808a3.074 3.074 0 002.692-2.562 3.071 3.071 0 00-.074-1.318 127.14 127.14 0 01-1.976-17.326 1.5 1.5 0 01.596-.881 72.115 72.115 0 019.163-6.116c1.499.999 2.546 3.974 4.188 6.569.214.404.5.785.714 1.19a7.143 7.143 0 01-.404 7.14c-1.286 2.142-4.19 2.094-6.688 5.283a.74.74 0 00-.09.989c.074.097.17.174.28.225 3.523-2.38 3.427-2.38 3.808-1.452a13.432 13.432 0 009.187 8.235 8.612 8.612 0 007.378-1.238c3.213-1.999 3.046-2.023 3.856-2.07a415.974 415.974 0 01-3.356 7.068h-.072zm2.928-9.115c-1.19.762-2.214 1.809-3.427 2.38a10.267 10.267 0 01-9.52.262 12.543 12.543 0 01-5.879-6.736l2.689-2.023c1.143 6.379 7.926 7.735 12.71 4.879 1.785-1.047 3.141-2.118 5.021-3.308.024 1.88.119 3.475-1.523 4.546h-.071zm10.353-17.731c-.952.785-1.904 1.547-2.928 2.38a28.006 28.006 0 00-5.95 7.545c-.785 1.285 0 1.451-1.904 2.737-4.307 2.713-4.117 2.689-4.974 2.903l-.166-.19c3.665-6.236 3.546-5.736 6.735-11.02a50.6 50.6 0 015.617-6.449c.999.357 2.166.761 3.308 1.237.595.119.785.452.262.857zm280.412-82.181c5.926 15.017 11.9 33.32 11.447 51.098-.333 12.781.381 13.043-7.806 33.13-3.427 8.401-13.614 21.206-21.706 26.18a84.276 84.276 0 01-31.463 10.876 367.982 367.982 0 00-47.743 9.925c-21.158 4.284-29.726 1.856-50.742-2.523-18.04-4.141-20.991-4.427-44.649-4.093-44.482.666-88.06 4.45-86.608-40.08 0-1.38.976-2.903 2.38-2.665a43.076 43.076 0 0012.662-1.642c3.451-.833 15.089-2.214 17.945-9.901 1.142-3.142 1.452-2.832 7.664-12.733 9.996-15.899 14.827-15.661 22.729-21.087 3.094-2.118 3.974-5.45 1.285-9.52a25.172 25.172 0 008.568-2.618 5.143 5.143 0 002.594-6.664 33.583 33.583 0 0015.208 4.094c9.639.19 23.562-2.952 35.391-1.69v.214a76.844 76.844 0 00-32.511 10.186 18.493 18.493 0 00-6.664 6.474c-.309.595.214.833.595.5a44.921 44.921 0 017.14-5.308c6.141-3.974 20.206-8.734 33.891-9.924 8.425-.738 12.329-.286 20.254-1.833a86.26 86.26 0 0112.852-1.404c4.522-.143 5.617.762 13.709-1.095a114.035 114.035 0 0116.327-2.975c10.591-1.571 13.78-5.593 22.61-13.78a161.5 161.5 0 0132.891-24.062 130.475 130.475 0 0113.447-6.497c1.785-.762 1.5-2.571-.88-1.523-28.56 11.614-40.936 26.513-44.459 28.56 3.737-9.52 25.371-33.178 31.321-38.08a.522.522 0 00-.181-.902.524.524 0 00-.366.021c-.579.264-1.123.6-1.619 1-12.185 9.52-22.395 25.656-24.085 26.87 2.166-13.78 2.951-12.186 6.307-24.348a51.015 51.015 0 002.38-12.376c.357-3.213 1.88-17.635 2.38-21.753.166-1.237.357-1.428 1.38-1.523 3.166-.286 7.878-.976 7.926-4.117a316.303 316.303 0 00-1.357-31.75c-1.047-13.113-.619-8.282-1.571-13.494-1.856-10.163-3.403-15.161-6.616-20.563-.357-.595-.119-1.024.571-1.214a22.42 22.42 0 0114.423 2.142 69.587 69.587 0 0116.303 12.162c6.307 6.188 9.02 14.018 12.304 22.871 6.022 16.256 5.046 33.844 4.903 52.099 0 12.518-8.163 36.652-.761 55.358v-.023z" fill="#000001"/></svg>