<svg width="24" height="24" fill="none" xmlns="http://www.w3.org/2000/svg"><g clip-path="url(#clip0_171_8733)"><mask id="a" style="mask-type:luminance" maskUnits="userSpaceOnUse" x="0" y="0" width="24" height="24"><path d="M23.88 0H.119v24h23.763V0z" fill="#fff"/></mask><g mask="url(#a)"><path d="M.118 11.52c0-5.43 0-8.146 1.67-9.833C3.46 0 6.149 0 11.525 0h.95c5.378 0 8.066 0 9.736 1.687s1.67 4.402 1.67 9.833v.96c0 5.43 0 8.146-1.67 9.833C20.54 24 17.852 24 12.475 24h-.95c-5.377 0-8.066 0-9.736-1.687S.119 17.91.119 12.48v-.96z" fill="#0082EE"/><path d="M12.762 17.29c-5.416 0-8.505-3.75-8.634-9.99h2.713c.09 4.58 2.09 6.52 3.673 6.92V7.3h2.555v3.95c1.564-.17 3.208-1.97 3.762-3.95h2.555c-.426 2.44-2.208 4.24-3.475 4.98 1.267.6 3.297 2.17 4.069 5.01h-2.812c-.604-1.9-2.109-3.37-4.099-3.57v3.57h-.307z" fill="#fff"/></g></g><defs><clipPath id="clip0_171_8733"><path fill="#fff" d="M0 0h24v24H0z"/></clipPath></defs></svg>